<svg version="1.1" xmlns="http://www.w3.org/2000/svg" xmlns:xlink="http://www.w3.org/1999/xlink" width="73.69445" height="73.69445"><g transform="translate(-199.88569,-140.125)"><g data-paper-data="{&quot;isPaintingLayer&quot;:true}" fill="none" fill-rule="nonzero" stroke="none" stroke-width="none" stroke-linecap="butt" stroke-linejoin="miter" stroke-miterlimit="10" stroke-dasharray="" stroke-dashoffset="0" font-family="none" font-weight="none" font-size="none" text-anchor="none" style="mix-blend-mode: normal"><path d="M201.38569,176.97222c0,-19.52173 15.82549,-35.34722 35.34722,-35.34722c19.52173,0 35.34723,15.82549 35.34723,35.34722c0,19.52173 -15.8255,35.34723 -35.34723,35.34723c-19.52173,0 -35.34722,-15.8255 -35.34722,-35.34723z" data-paper-data="{&quot;origPos&quot;:null}" fill="#d2ff00" stroke="#8ca000" stroke-width="3"/><path d="M259.0542,172.15969c0.83669,-1.38119 2.21787,-0.54451 2.21787,-0.54451l0.93462,-0.33203c0.75792,0.25216 1.54559,0.49631 2.31905,0.77661c1.10844,-1.77358 2.00101,-3.6907 2.50108,-5.91122c0,0 0.35478,-1.57539 1.93018,-1.22061c1.57539,0.35479 1.22061,1.93018 1.22061,1.93018c-0.56322,2.50092 -1.54929,4.63238 -2.76881,6.59889c0.87617,0.60049 1.62521,1.36731 2.14421,2.40383c0.26141,0.52207 -0.11949,1.16157 -0.17923,1.74234c0,0 -0.16525,1.60638 -1.77161,1.44113c-1.60638,-0.16525 -1.44113,-1.77161 -1.44113,-1.77161c0.01925,-0.18707 0.03849,-0.37414 0.05773,-0.5612c-0.23322,0.05737 -0.49459,-0.18009 -0.75859,-0.44516c-1.09545,1.44682 -2.27629,2.85448 -3.45245,4.32023c1.2353,0.71845 2.32054,1.6358 3.06258,2.87094c0,0 0.83162,1.38424 -0.55262,2.21587c-1.38424,0.83162 -2.21587,-0.55262 -2.21587,-0.55262c-0.30068,-0.50047 -0.45357,-1.12756 -0.90202,-1.50142c-0.07474,-0.06231 -0.05039,0.26535 -0.14683,0.25231c-0.31534,-0.04265 -0.58764,-0.24587 -0.87135,-0.39c-0.15082,-0.07662 -0.29789,-0.15214 -0.44242,-0.22641c-1.14673,1.45857 -2.39996,2.71426 -3.74201,3.83224c0.01463,0.01323 0.02923,0.02651 0.0438,0.03984c0.93808,0.85794 1.41831,2.66662 1.90407,3.79827c0,0 0.63698,1.48391 -0.84694,2.12089c-1.48392,0.63697 -2.12089,-0.84694 -2.12089,-0.84694c-0.37557,-0.87494 -0.7862,-2.42819 -1.50865,-3.22025c-1.31141,0.88631 -2.68731,1.69143 -4.11442,2.46431c0.73287,1.36624 1.03283,2.94017 0.63827,4.78663c0,0 -0.33745,1.57919 -1.91665,1.24174c-1.5792,-0.33745 -1.24174,-1.91665 -1.24174,-1.91665c0.11983,-0.56079 0.37181,-1.10906 0.3595,-1.68238c-0.00683,-0.31807 -0.30896,-0.70834 -0.58842,-0.99776c-0.17225,0.08712 -0.34508,0.1742 -0.51847,0.26136c-1.67744,0.84316 -3.56056,0.94922 -5.24618,1.67453c0.28586,0.97983 0.49398,1.99195 0.64147,3.0201c0,0 0.2293,1.59849 -1.36919,1.82777c-1.59849,0.22929 -1.82777,-1.36919 -1.82777,-1.36919c-0.11171,-0.77878 -0.26026,-1.54655 -0.46077,-2.2918c-1.43612,0.5186 -2.92959,0.99633 -4.4549,1.41505c0.07695,1.01432 0.00601,2.04891 -0.25996,3.22992c0,0 -0.35479,1.57539 -1.93018,1.22061c-1.57539,-0.35479 -1.22061,-1.93018 -1.22061,-1.93018c0.14708,-0.65311 0.2171,-1.2168 0.22407,-1.7455c-2.77344,0.58581 -5.59215,0.94476 -8.31186,0.97429c0.03193,0.57727 0.04352,1.1702 0.04388,1.79237c0,0 0.00093,1.61484 -1.61392,1.61577c-1.61485,0.00093 -1.61578,-1.61392 -1.61578,-1.61392c-0.00039,-0.68216 -0.01286,-1.31464 -0.05633,-1.92686c-0.05084,-0.00493 -0.10162,-0.01 -0.15234,-0.01522c-2.66667,-0.33178 -5.2991,-0.37902 -7.95656,-0.65239l0.2175,-0.0697c-0.48509,0.08738 -1.20462,0.03168 -1.66438,-0.84996c-0.74668,-1.43185 0.68517,-2.17853 0.68517,-2.17853l1.0922,-0.11454c2.37415,0.24422 4.73793,0.31161 7.11747,0.55723c-0.01143,-0.03315 -0.02303,-0.06639 -0.03483,-0.09973l-0.82616,-0.80956c0,0 -0.38917,-1.56726 1.17807,-1.95643c1.56726,-0.38917 1.95642,1.17808 1.95642,1.17808l0.73661,0.51125c0.18031,0.50992 0.32725,1.00411 0.44667,1.49122c2.70272,0.0232 5.46677,-0.53359 8.09322,-1.22003c-0.02195,-0.06957 -0.0443,-0.14013 -0.06706,-0.21176l-0.6582,-1.44273c0,0 -0.24744,-1.59577 1.34834,-1.84322c1.59577,-0.24744 1.84322,1.34834 1.84322,1.34834l0.54473,0.95969c0.03524,0.11093 0.06964,0.22061 0.10313,0.3292c1.29267,-0.34863 2.62342,-0.66761 3.92452,-1.04409c-0.40635,-0.68898 -0.89499,-1.33418 -1.48361,-1.92212l-0.84353,-0.59943c0,0 -0.72301,-1.44395 0.72094,-2.16696c1.44395,-0.72301 2.16696,0.72094 2.16696,0.72094l0.23807,-0.2396c0.94329,0.94221 1.69622,1.9982 2.294,3.13443c1.43099,-0.51087 3.07012,-0.63585 4.43909,-1.26583c-0.65112,-0.55531 -1.34011,-1.07791 -2.15717,-1.5675l-1.65062,-0.99912c0,0 -0.98616,-1.27875 0.2926,-2.26492c1.27875,-0.98616 2.26492,0.29259 2.26492,0.29259l0.75317,0.20104c1.3238,0.79324 2.63526,1.67348 3.7346,2.69019c0.98449,-0.52308 1.94661,-1.0621 2.87909,-1.63482c-1.24185,-0.41715 -2.54553,-0.74355 -3.56953,-1.08423l-1.75293,-0.23814c0,0 -1.35342,-0.8809 -0.47253,-2.23432c0.8809,-1.35342 2.23432,-0.47253 2.23432,-0.47253l1.0107,-0.11956c1.85009,0.61552 3.7827,1.19941 5.54401,2.08636c1.22786,-0.95894 2.37842,-2.02745 3.43039,-3.25763l-1.02219,-0.21752c0,0 -1.40983,-0.78749 -0.62234,-2.19731c0.78749,-1.40983 2.19731,-0.62234 2.19731,-0.62234l0.86388,0.05713c0.24517,0.08157 0.49143,0.16598 0.73765,0.25396c1.21952,-1.50901 2.4676,-2.95078 3.6183,-4.43929c-0.47199,-0.14831 -0.94806,-0.28707 -1.41479,-0.44235l-1.58844,0.02988c0,0 -1.3812,-0.8367 -0.54451,-2.21787z" data-paper-data="{&quot;origPos&quot;:null,&quot;origRot&quot;:0}" fill="#9fab56" stroke="none" stroke-width="0.5"/><path d="M223.38394,155.10402c2.76645,-0.61477 6.10529,-1.52423 8.94823,0.18153c0.94872,0.56923 3.61617,3.16442 3.61617,4.13368c0,0.96304 -2.62763,3.27602 -3.69863,3.54378c-2.93535,0.73384 -10.54762,-0.89453 -11.29228,-4.06469c-0.21919,-0.27568 -0.35014,-0.62466 -0.35014,-1.00422c0,-0.74068 0.49866,-1.3649 1.17858,-1.55523c0.23954,-0.28482 0.53146,-0.57693 0.88036,-0.87599z" data-paper-data="{&quot;origPos&quot;:null}" fill="#ffffff" stroke="none" stroke-width="0.5"/><path d="M249.55962,154.34024c0.06928,0.31048 0.12347,0.6241 0.15696,0.93857c0.11774,-0.09205 0.23138,-0.19138 0.34086,-0.29968c-0.0177,-0.00103 -0.03603,-0.00493 -0.05508,-0.01205c-0.32479,-0.12146 -0.09973,-0.70515 -0.27842,-1.00232c-0.06937,-0.11537 0.04632,0.41193 -0.08715,0.39435c-0.02685,-0.00353 -0.05249,-0.00999 -0.07716,-0.01887zM250.3431,154.74785c0.28319,-0.20403 0.6203,-0.42357 0.40242,-0.40105c-0.17229,0.01781 -0.28667,0.22781 -0.40242,0.40105zM241.21562,154.11067c0.12303,-0.39084 0.29934,-0.76829 0.5167,-1.10753c1.12282,-1.75248 3.05776,-2.19911 4.98143,-2.19911c3.78454,0.00777 7.45758,1.2128 6.21416,5.92357c-0.19627,0.74357 -1.83967,1.55102 -2.48502,1.86882c-2.32663,1.14575 -4.39386,1.18136 -6.71211,0.83014l-0.00658,0.03288l-0.16884,-0.03377l-0.16148,0.35525l-1.65843,-0.75383c-0.07792,-0.03335 -0.15268,-0.07266 -0.22372,-0.11734c-0.32932,-0.18942 -0.6978,-0.5291 -0.75816,-1.11373c-0.75822,-0.13273 -1.33448,-0.79436 -1.33448,-1.59059c0,-0.5586 0.28362,-1.05094 0.71471,-1.3409l0.96912,-0.67092c0.03779,-0.02732 0.07536,-0.05496 0.1127,-0.08291z" data-paper-data="{&quot;origPos&quot;:null}" fill="#ffffff" stroke="none" stroke-width="0.5"/><path d="M226.66855,162.00424c-0.0938,-0.06253 -0.18262,-0.12624 -0.26661,-0.19097c-0.57968,-0.20404 -1.00787,-0.72952 -1.07059,-1.36247c-0.74873,-1.98803 1.47439,-4.00765 3.55298,-2.85944c2.08862,1.15375 0.84059,4.78281 -1.51994,4.25825z" data-paper-data="{&quot;origPos&quot;:null}" fill="#00ff75" stroke="none" stroke-width="0.5"/><path d="M244.04009,158.8616c-2.53764,-2.53764 1.97697,-5.69505 4.07899,-3.24269c2.65394,3.09626 -3.92725,5.61023 -4.05684,3.27751z" data-paper-data="{&quot;origPos&quot;:null}" fill="#00ff75" stroke="none" stroke-width="0.5"/><path d="M226.22054,160.37933c0,-0.44593 0.36149,-0.80742 0.80742,-0.80742c0.44593,0 0.80742,0.36149 0.80742,0.80742c0,0.44593 -0.36149,0.80742 -0.80742,0.80742c-0.44593,0 -0.80742,-0.36149 -0.80742,-0.80742z" data-paper-data="{&quot;origPos&quot;:null}" fill="#000000" stroke="none" stroke-width="0.5"/><path d="M244.79129,158.13648c0,-0.44593 0.36149,-0.80742 0.80742,-0.80742c0.44593,0 0.80742,0.36149 0.80742,0.80742c0,0.44593 -0.36149,0.80742 -0.80742,0.80742c-0.44593,0 -0.80742,-0.36149 -0.80742,-0.80742z" data-paper-data="{&quot;origPos&quot;:null}" fill="#000000" stroke="none" stroke-width="0.5"/></g></g></svg>