<svg version="1.1" xmlns="http://www.w3.org/2000/svg" xmlns:xlink="http://www.w3.org/1999/xlink" width="379.79295" height="192.12751" viewBox="0,0,379.79295,192.12751"><g transform="translate(-56.36456,-63.34115)"><g data-paper-data="{&quot;isPaintingLayer&quot;:true}" fill="none" fill-rule="nonzero" stroke="none" stroke-width="0.5" stroke-linecap="butt" stroke-linejoin="miter" stroke-miterlimit="10" stroke-dasharray="" stroke-dashoffset="0" font-family="none" font-weight="none" font-size="none" text-anchor="none" style="mix-blend-mode: normal"><path d="M399.6874,99.98576c0.05739,0.03584 0.11456,0.07208 0.17152,0.10869c-0.01794,-0.03835 -0.04331,-0.07037 -0.07765,-0.09444c-0.04255,-0.02982 -0.0729,-0.03253 -0.09387,-0.01425zM406.17904,174.27341c-1.78078,4.2266 -6.89776,4.2266 -6.89776,4.2266c-4.08448,0 -7.51778,-1.28771 -11.37171,-2.38487c-0.43803,-0.1247 -3.29423,-0.73353 -3.4473,-0.83906c-0.8782,-0.60538 -1.71491,-1.26829 -2.52604,-1.96335c-4.75786,-0.62748 -9.1577,-2.79441 -12.69145,-5.93452c-2.07605,-0.96033 -4.09559,-2.22183 -5.62375,-3.13783c-1.52087,-1.01391 -3.76107,-2.29026 -4.64305,-3.93707c-0.03899,-0.0728 -0.07796,-0.14603 -0.11688,-0.21966c-0.51105,0.77018 -1.00105,1.48165 -1.33945,2.07661c-3.23744,5.69202 -7.91621,14.72584 -14.88627,16.54796c-1.58612,0.41464 -3.23606,0.52787 -4.8541,0.7918c-2.68374,0 -4.79622,-0.71073 -6.42151,-1.91625c-1.95371,0.12608 -3.44061,-0.53738 -4.54082,-1.42966l-2.89177,-1.44588l0.66062,-1.32125c-0.19063,-0.37599 -0.35051,-0.7702 -0.47634,-1.17932l-0.94531,-2.83593l0.15226,-0.05076c-0.12457,-0.54878 -0.23711,-1.1064 -0.33692,-1.67015c-0.88809,0.7622 -1.79791,1.49801 -2.72934,2.20355c-0.79588,0.60287 -5.52011,0.63365 -5.97087,0.64565c-3.16127,0.08416 -6.33738,0 -9.5,0c-6.62434,0 -12.48528,-1.7865 -16.79325,-6.89676c0.15152,0.86754 0.25887,1.72133 -0.20675,2.39676c-1.91001,2.7707 -4.24677,5.23746 -6.62829,7.61513c-1.28422,1.28215 -3.56165,0.75518 -5.37171,0.88487c-4.73847,0.33951 -5.82333,-0.67112 -10.8033,-3.1967c-0.36808,-0.36808 -2.66246,-1.81295 -2.85695,-2.06293c-0.51406,-0.66074 -0.9913,-1.33422 -1.42839,-2.02058c-3.64844,-1.24482 -4.68743,-5.40078 -4.68743,-5.40078c-0.48053,-1.92213 -0.68867,-3.77562 -0.80867,-5.62207c-0.21356,0.25617 -0.43793,0.51027 -0.67348,0.76234c-0.6418,0.68681 -1.64073,2.0233 -2.46446,2.46446c-1.45219,0.77775 -3.0035,1.35423 -4.50525,2.03134c-1.87587,0.46896 -3.74018,0.28897 -5.60172,0.5947c-2.33666,0.38375 -5.2836,1.23586 -7.69871,-0.31617c-2.92202,-1.87778 -4.54427,-3.41611 -6.46399,-6.12407c-1.39551,-1.96852 -1.66721,-4.25572 -2.49377,-6.44145c-0.22562,-0.59662 -0.73621,-1.06594 -1.02313,-1.62968c-0.40698,1.2268 -0.99836,2.53493 -1.11996,3.72668c-0.01487,0.14576 0.28247,-0.44794 0.31617,-0.30535c0.48895,2.06858 -0.77822,4.0941 -1.13766,6.05575c-0.04703,0.25665 0.17987,-0.93859 0.31617,-0.71609c1.07396,1.7532 -1.09397,3.97257 -1.85625,5.88204c-1.07274,1.60912 -2.15284,3.84937 -4.05573,6.27864c-0.3613,0.46123 -0.36061,1.24164 -0.87318,1.52546c-3.57118,1.97744 -6.87723,3.34628 -10.87677,2.74355c-1.50206,-0.22636 -3.33866,-0.06355 -4.41277,-1.13765c-0.68689,-0.68689 -1.33973,-1.40757 -1.96765,-2.15029c-0.06314,0.00134 -0.12696,0.00201 -0.19145,0.00201c-3.66838,0 -5.15258,-2.18418 -5.75308,-3.95159c-0.25348,-0.65956 -0.39679,-1.37376 -0.40742,-2.12006c-1.93808,1.85875 -4.21456,3.32177 -7.08864,4.52325c-1.84254,0.61418 -3.7101,0.72691 -5.645,0.72691c-3.46227,0 -4.13273,-0.12497 -7.93574,-1.85625c-9.87337,-4.49474 -8.90469,-16.28972 -8.90469,-25.25275c0,-0.49305 -0.05989,-1.15837 -0.1328,-1.85959c-0.98155,0.09268 -2.34722,0.21662 -2.7424,0.21662c-0.5394,0 -1.09529,0.02005 -1.61306,0.16941c-0.18206,0.13353 -0.40192,0.28643 -0.53466,0.41639c0.16375,1.11067 0.09401,3.67857 0.09401,4.34311c0,4.51817 0,9.03632 0,13.55449c0,1.27916 0.47855,3.76075 0,4.92891c-0.87436,2.13436 -1.31316,5.12519 -3.44752,5.99955c-4.24462,1.73885 -6.42578,1.80455 -10.51771,1.80455c-0.41074,0 -0.82821,-0.07403 -1.23222,0c-0.23683,0.0434 0.88814,-0.07387 0.71609,0.09457c-1.23387,1.20802 -6.22756,1.03691 -8.10945,0.72691c-4.8187,-0.79378 -9.1678,-4.36797 -10.6779,-9.00618c-1.94191,-2.37983 -1.46062,-4.69666 -0.70148,-6.23541c0.19867,-0.44512 0.44859,-0.86235 0.74226,-1.24419c0.08933,-0.35752 0.18206,-0.7142 0.27398,-1.07074c0.05059,-0.19624 0.05897,-0.43631 0.09328,-0.65605c-0.00927,-0.50381 -0.06751,-0.99996 -0.14922,-1.4961c-0.25176,0.16986 -0.51018,0.33607 -0.77636,0.49837c-0.35562,0.21684 -1.13376,0.79588 -1.22473,0.45545c-0.67156,0.58402 -1.34324,1.17083 -2.07567,1.67472c-2.85939,1.96717 -6.84519,3.56199 -10.17263,4.22748c-3.29076,0.64491 -6.50572,1.72038 -9.83389,2.17335c-4.37703,0.59572 -9.96442,0.33278 -14.27058,-0.31616c-1.87038,-0.28187 -3.8141,-1.67691 -5.44504,-2.14829c-1.26906,-0.36679 -2.64981,-0.00581 -3.95875,-0.18395c-3.05228,-0.41542 -6.03433,-2.05556 -7.7395,-4.61331c-2.71576,-4.26682 -5.38875,-8.49386 -8.21485,-12.73301c-1.19499,-1.79247 -2.0294,-3.82762 -2.67773,-5.88204c-0.10516,-0.33322 -0.30276,-1.11262 -0.12856,-1.23467c-0.01375,-0.03969 -0.02785,-0.07889 -0.04247,-0.11741c-0.5487,-1.44538 -1.08091,-2.90255 -1.47193,-4.39831c-0.77025,-2.94642 0,-7.24393 0,-10.26855c0,-5.87848 0.32295,-11.51041 0.94112,-17.22724c0.16262,-1.50394 0.3628,-4.9909 1.42876,-6.07968c0.16844,-0.17204 0.07013,0.95562 0.09457,0.71609c0.23392,-2.29261 -0.97004,-7.19766 0.72691,-8.93094c0.16844,-0.17204 0.05118,0.95292 0.09457,0.71609c0.07403,-0.40401 0,-0.82148 0,-1.23222c0,-3.15645 -0.85148,-8.24337 0.72691,-10.98465c0.87232,-1.51501 1.76465,-3.0305 2.83813,-4.41028c1.32285,-1.7003 3.80587,-2.10283 5.88203,-2.67773c1.31949,-0.36538 2.73828,0 4.10742,0c3.14903,0 6.29805,0 9.44707,0c2.36026,0 7.6582,-0.92128 9.34168,0.72692c0.17204,0.16844 -0.95292,0.05118 -0.71609,0.09457c0.40402,0.07403 0.82148,0 1.23222,0c1.03601,0.0699 3.53316,0.736 4.51816,0.82148c2.76373,0.23986 5.4402,-0.04729 8.19092,0.53039c1.35468,0.28449 3.03686,0.04963 4.02596,1.01801c0.17204,0.16844 -0.95292,0.05118 -0.71609,0.09457c3.11155,0.57014 4.8361,-0.07305 8.34649,1.03476c1.6089,0.50773 2.99429,1.62081 4.13891,2.99261c0.35686,-0.67818 0.7302,-1.34802 1.11021,-2.01266c-0.04578,0.04768 -0.09111,0.09573 -0.13569,0.14439c0.87448,-2.62346 3.7893,-5.57449 6.00655,-6.92642c1.02988,-0.62796 2.11144,-1.16875 3.20025,-1.6896c-0.10372,-0.16353 0.59066,-0.6452 0.90717,-0.77486c1.81153,-0.74211 3.69628,-1.30387 5.58881,-1.80455c1.6076,-0.4253 4.26454,0.25053 5.645,1.13765c1.75948,1.1307 3.74202,2.19335 4.87271,3.95283c2.86943,4.46513 2.62604,8.75563 2.62604,13.80365c0,4.792 0,9.58398 0,14.37598c0,1.173 -0.1598,2.52561 -0.1162,3.77312c0.15488,-0.09628 0.59832,0.61506 0.7761,0.90663c0.40399,0.66256 0.7719,1.34651 1.12163,2.04001c0.57339,0.31327 1.12304,0.67841 1.65783,1.06432c0.09907,0.012 0.18822,0.02003 0.25732,0.02003c0.89657,0 1.79315,0 2.68973,0c0.16894,-0.23521 0.92984,-0.4958 1.28605,-0.60821c0.76723,-0.24212 1.54922,-0.43391 2.33747,-0.6c0.07093,-0.1205 0.13254,-0.23485 0.16405,-0.32937c0.27383,-0.82148 0.66541,-1.61271 0.82148,-2.46445c0.04703,-0.25665 -0.17987,0.93859 -0.31617,0.71609c-0.42911,-0.7005 0,-1.64297 0,-2.46445c0,-3.77442 -0.61422,-8.18285 0,-11.91153c0.2469,-1.49882 0.86388,-2.91863 1.13766,-4.41278c0.04703,-0.25665 -0.17987,0.9386 -0.31617,0.7161c-0.77871,-1.2712 0.35475,-2.96923 0.72691,-4.41278c1.53111,-5.93895 7.72188,-8.73098 13.23832,-8.73098c2.4442,0 6.09876,-0.42668 8.10945,1.13765c9.56565,7.44215 9.96321,19.40205 9.96321,30.4895c0,4.03026 -0.40924,8.31145 0,12.32226c0.02444,0.23952 -0.07387,-0.88814 0.09457,-0.71609c0.40547,0.41415 0.64633,1.08985 0.78156,1.89891c0.22661,-0.64423 0.5163,-1.29392 0.67227,-1.89891c0.91623,-3.5539 2.22595,-6.40197 4.36358,-9.39087c0.92785,-0.92785 1.17897,-3.47297 2.20196,-4.99731c0.03988,-0.18971 0.08347,-0.37584 0.10091,-0.50392c0.21959,-1.6134 0.20038,-3.3649 1.00544,-4.78023c1.82869,-3.21491 2.15017,-3.39186 4.08505,-5.32674c0.27383,-0.27383 0.54766,-0.54765 0.82149,-0.82148c0.27383,-0.27383 1.20606,-0.86695 0.82148,-0.82148c-0.52226,0.06175 -1.0505,1.33667 -1.30999,0.87924c-0.41092,-0.72438 0.22599,-1.65239 0.41074,-2.46446c0.63274,-2.78124 1.954,-8.02196 4.23687,-9.79806c1.37978,-1.07348 2.94018,-1.89208 4.41028,-2.83812c3.54529,-1.18177 6.85773,-1.54839 10.57391,-1.54839c0.86036,0 3.28277,-0.36714 4.10743,0c2.45039,1.09094 5.49485,1.93753 6.82103,4.26901c2.87607,5.05623 4.67329,11.98908 6.13877,17.64901c0.39869,1.59475 0.65123,3.39254 1.23222,4.9289c0.27612,0.73015 0.97904,1.26965 1.17647,2.02489c0.25295,0.9676 0.39708,1.96014 0.52272,2.95427c0.25294,-0.09551 0.5598,0.90663 0.73594,1.3124c0.45995,1.05953 0.77164,2.14826 1.0427,3.24257c-0.34785,-5.18932 0.01761,-10.54462 0.01761,-15.74605c0,-3.68852 -0.59734,-7.87375 0,-11.5c0.30055,-1.82453 0.00058,-4.14576 1.38487,-5.37171c2.26576,-2.00659 4.74131,-3.78169 7.29611,-5.40436c0.86226,-0.54765 1.98104,-0.50778 2.94731,-0.83906c5.78849,-1.98458 11.33266,-1.88487 17.37171,-1.88487c3.05105,0 6.48928,-0.45372 9.5,0c1.82847,0.27555 3.53215,1.19717 5.37171,1.38487c0.17744,0.0181 -0.54529,-0.34385 -0.37171,-0.38487c2.5181,-0.59519 4.98377,0.94733 7.37171,1.38487c0.31243,0.05725 -1.14256,-0.21896 -0.87171,-0.38487c1.49524,-0.91594 6.31064,0.49688 7.97087,1.14565c3.21702,1.2571 5.39453,2.77292 7.83243,5.05105c1.11549,1.04239 2.90166,3.80639 4.35695,4.06293c0.5,0.33334 1.131,0.52571 1.5,1c2.29911,2.95513 6.98804,10.84493 5.33975,15.24038c-0.83789,2.23436 -1.88348,4.39102 -3,6.5c-2.00615,3.7894 -4.55541,9.2982 -8.1967,11.8033c-1.88243,1.29505 -3.96309,2.27527 -5.9492,3.4049c-1.12318,0.63882 -2.06004,2.18922 -3.0508,2.5951c-0.36748,0.15054 -0.73845,0.29158 -1.11201,0.42549c0.73723,0.68711 1.65893,1.51483 2.11201,1.96791c1.0696,1.0696 1.75397,0.95994 2.85695,2.06293c4.04043,4.04043 7.07511,8.86914 11.14305,12.93707c2.62117,2.62117 3.6246,4.87073 4.30186,7.70347c0.70084,-1.24069 1.4517,-2.46122 1.68664,-3.75427c0.0694,-0.38197 -0.62349,1.20394 -0.79179,0.8541c-0.36127,-0.75096 -0.11463,-1.67459 0,-2.5c0.25435,-1.83154 1.0516,-3.55287 1.38488,-5.37171c0.05725,-0.31243 -0.25659,0.58114 -0.38488,0.87171c0,-14.46119 -1.09657,-30.32662 1.88488,-43.37171c0.08386,-0.25158 0.18586,-0.49849 0.27862,-0.74777c-0.05651,0.12971 -0.11477,0.19904 -0.1635,0.11948c-1.41613,-2.31177 1.86612,-9.29584 2.25963,-10.16025c0.24898,-0.54692 0.47429,-1.2089 1,-1.5c2.45833,-1.36123 5.09764,-2.38459 7.74037,-3.33975c1.10062,-0.3978 3.3195,0 4.5,0c4.58046,0 10.41278,-0.54393 13.3033,4.1967c2.73492,4.48544 4.38927,9.25733 5.08274,14.38169c0.13707,-0.25063 0.26371,-0.49728 0.37359,-0.73864c1.8918,-4.15563 7.17143,-7.78576 10.88627,-10.04796c3.09532,-1.54766 6.66271,-4.12757 10,-5c5.70638,-1.49176 13.53597,-1.37382 19.22581,0.09308c1.28905,0.33233 3.36692,0.80912 4.5,1.5c1.37565,0.83878 2.6568,1.82649 3.93159,2.81182c0.99923,0.77234 2.09781,2.84096 3.35695,3.06293c2.65398,1.76933 5.60935,3.41455 7.64305,5.93707c4.44461,5.51294 6.28028,12.71432 7.97277,19.48429c0.8705,3.482 1.74617,7.0083 2.12189,10.58603c0.10974,1.04498 -0.02834,2.11064 -0.00113,3.15984c0.0727,0.06884 0.14522,0.13786 0.21756,0.20707c0.00025,-0.0019 0.00048,-0.00378 0.00073,-0.00563c0.00103,0.0031 0.00207,0.0062 0.0031,0.00929c0.2971,0.2843 0.5911,0.57174 0.88178,0.86242c0.35355,0.35356 0.12788,1.01663 0,1.5c-0.03409,0.12887 -0.06767,0.2586 -0.10092,0.38902c1.48622,6.2653 1.10092,12.57629 1.10092,19.11099c0,2.79659 0.84652,7.31755 0,10c-0.52877,1.67554 -2.96987,8.58183 -5.25963,10.16025c-2.02249,1.39418 -4.28091,2.41055 -6.42136,3.61582c-2.46702,0.61676 -4.95827,1.92904 -7.4473,2.33906c-3.49127,0.57512 -6.96305,0.94638 -10.47395,1.15828zM330.03366,90.12951c0.05456,-0.1644 0.10127,-0.33082 0.13249,-0.50121c0.03129,-0.17075 -0.03702,0.18639 -0.13249,0.50121zM268.35391,127.5938c0.05697,-0.03369 0.114,-0.06729 0.17109,-0.10079c-0.06878,-0.03987 -0.13687,-0.08081 -0.20424,-0.12279c0.01132,0.07458 0.02237,0.1491 0.03315,0.22358zM311.15927,149.38467c-0.02228,-0.00873 -0.0445,-0.0176 -0.06664,-0.02659c0.1345,0.16812 0.27678,0.32948 0.42899,0.48168c0.15032,0.15032 -0.12288,-0.13841 -0.36236,-0.45509zM195.85393,116.97353c0.02577,-0.14061 -0.0307,0.15458 -0.10943,0.41367c0.00003,0.03779 -0.00003,0.07563 -0.00018,0.1135c0.04092,-0.1767 0.07761,-0.35253 0.10961,-0.52716zM246.4505,146.04768c-0.02186,0.4009 -0.05401,0.79873 -0.10035,1.19145c-0.00323,0.02739 -0.00583,0.05544 -0.00788,0.08406c0.0428,-0.08937 0.08522,-0.16376 0.12753,-0.21254c0,-0.08611 0,-0.17222 0,-0.25833c0,-0.27783 -0.00679,-0.54512 -0.01929,-0.80464zM204.98531,160.40687c-0.00111,-0.00106 -0.00222,-0.00212 -0.00334,-0.00318c-0.03847,-0.00173 -0.0443,-0.00167 0.00285,0.00314c0.00016,0.00001 0.00033,0.00003 0.00048,0.00005zM221.82526,129.05907c0,0.17019 0,0.34037 0,0.51056c0.10496,-0.03314 0.21069,-0.06408 0.31707,-0.09281c-0.10458,-0.13725 -0.21029,-0.27668 -0.31707,-0.41775zM121.60415,105.7781c0,-0.08196 0.00099,-0.16564 0.00276,-0.25081c-1.18797,0.84207 -2.41267,1.63056 -3.69944,2.30452c-0.48514,0.2541 -1.09631,0.03302 -1.64297,0c-3.9874,-0.24086 -6.7019,-1.3075 -9.98946,-3.49921c-1.16697,-0.77798 -2.07706,-1.36121 -3.20121,-2.25118c-0.94276,0 -1.88552,0 -2.82828,0c-2.06482,0 -2.10529,-0.19674 -3.84535,0.22679c-0.39549,0.09626 -0.79745,0.16708 -1.18894,0.27853c-0.38524,0.10968 -1.08123,0.73725 -1.21204,0.48895c-0.16237,0.16237 -0.32475,0.32475 -0.48713,0.48712c-0.80566,0.80566 -1.50181,1.39849 -2.13183,2.50619c-0.30272,0.53224 -0.2815,1.3543 -0.82148,1.64297c-0.33084,0.17686 0.13619,-1.32766 -0.17104,-1.11238c-0.67275,0.47143 0,1.64297 0,2.46446c0,2.05371 0,4.10742 0,6.16113c0,0.40492 0,0.80986 0,1.21479c0.20878,0.23062 0.413,0.46516 0.60821,0.70729c1.75898,2.18177 2.48722,4.78521 3.67025,7.23412c0.35118,0.72696 0.71573,1.44826 1.04165,2.18677c1.33142,-0.65469 3.03221,-0.75106 1.12395,1.91542c0.55751,0.04904 1.11357,0.11064 1.66539,0.20154c0.42721,0.07038 0.92285,0.10785 1.23223,0.41074c0.17204,0.16844 -0.95292,0.05118 -0.71609,0.09458c1.23142,0.22564 2.86697,0 4.10742,0c0.32981,0.40808 2.95411,-0.5174 3.43462,-0.63753c0.35061,-0.08765 0.97085,-0.45833 1.34287,-0.56846c0.52924,-0.64504 1.07348,-1.27741 1.66274,-1.86668c1.61112,-1.61112 6.37715,-3.85047 7.52501,-4.3207c0.76919,-0.3151 2.85725,-0.06015 3.69668,0c0.28199,0.02021 0.55562,0.04288 0.82148,0.06824c0,-5.36239 0,-10.7248 0,-16.08719zM151.17983,101.42793c-0.02062,-0.0399 -0.03999,-0.08007 -0.05784,-0.12047c0.01538,0.12296 0.03378,0.24414 0.0556,0.36322c0.0188,0.1026 0.00746,-0.05038 0.00224,-0.24275zM139.05928,75.78528c-0.00513,0.00382 -0.01027,0.00764 -0.01541,0.01146c0.18247,0.0054 0.3211,0.0153 0.22219,-0.00282c-0.0567,-0.01039 -0.12759,-0.01228 -0.20678,-0.00863zM138.98894,76.04053c0.37555,0.17016 0.88011,0.49761 0.79326,0.25871c-0.09714,-0.26723 -0.46473,-0.22998 -0.79326,-0.25871zM140.44377,151.69599c-0.0011,0.00077 -0.00221,0.00153 -0.00332,0.00229c0.00423,0.00037 0.00521,-0.00044 0.00332,-0.00229zM70.79988,102.50204c0.15839,-0.28881 0.32186,-0.57587 0.48958,-0.86121c-0.22724,-0.27641 -0.38581,0.29515 -0.48958,0.86121z" data-paper-data="{&quot;origPos&quot;:null}" fill="#ff0000"/><path d="M115.08018,87.40086c0.35008,-0.09617 0.74824,-0.15085 1.20109,-0.15085c3.75,0 3.75,3.75 3.75,3.75l-5.93586,1.55756c-0.5,-0.16666 -1,-0.33334 -1.5,-0.5c-1.42185,-0.67401 -4.84445,-2.37363 -5.89427,-3.93737c-0.12786,-0.19045 0.79293,-0.28455 0.58012,-0.37019c-1.03458,-0.41635 -3.37234,0 -4.5,0c-3,0 -6,0 -9,0c-1.04254,0 -4.57398,-0.25596 -4.84835,-0.09835c-1.7743,1.01923 -2.87747,2.70981 -4.96579,3.40591c-1.42337,0.47446 -5.55535,1.31902 -6.0342,1.59409c-1.16258,0.66783 -1.79798,2.41309 -3,3c-0.14234,0.0695 -0.01519,-0.60314 -0.09409,-0.46579c-1.85536,3.22986 -0.80756,8.63621 -0.80756,12.31414c0,2.02626 -0.32292,3.92269 0.30756,5.81414c0.94073,2.82218 2.2059,5.74466 2.69244,8.68586c0.09925,0.59995 -0.29408,1.21459 -0.19244,1.81414c0.24683,1.45595 2.14872,4.28915 1.19244,5.68586c-0.16125,0.23551 -0.73637,-0.84492 -0.62981,-0.58013c1.27374,3.1651 4.9036,4.31651 7.53146,6.42848c2.02266,1.62557 2.29944,3.01583 4.03421,3.59409c0.58834,0.23034 3.33967,1.11127 3.89427,1.93737c0.12786,0.19045 -0.79293,0.28455 -0.58012,0.37019c0.9277,0.37333 2,0 3,0c2.66666,0 5.33334,0 8,0c1.99165,0 3.50127,0.20888 5.31414,-0.30756c0.88918,-0.25331 1.77369,-0.54155 2.68586,-0.69244c0.30289,-0.05011 0.81288,-0.2267 1.15314,-0.24012c0.24223,-0.36334 0.48445,-0.72668 0.72668,-1.09001c0,0 2.08012,-3.12019 5.20031,-1.04006c3.12019,2.08013 1.04006,5.20032 1.04006,5.20032c-0.66666,1 -0.95318,2.40957 -2,3c-5.20155,2.93375 -11.80635,2.66987 -17.62019,2.66987c-2.13277,0 -5.48528,0.64637 -7.5,0c-1.30306,-0.41805 -4.08846,-2.52729 -5.68585,-2.69244c-3.11825,-1.03941 -4.54402,-3.48271 -6.96579,-5.40591c-1.63911,-1.30167 -3.93864,-2.04162 -5.42848,-3.53146c-1.19174,-1.19173 -2.52521,-2.43526 -3.04006,-4.04006c-1.14872,-3.58057 -1.00954,-7.42149 -1.62981,-11.08013c-0.32101,-1.89345 -1.66486,-4.38605 -2.30756,-6.31414c-0.88596,-2.65789 -0.69244,-5.41553 -0.69244,-8.18586c0,-7.13711 -1.09842,-15.78561 6.09835,-20.15165c2.70061,-1.63837 5.98806,-2.41333 8.9658,-3.40591c1.79635,-0.59878 3.32437,-2.97467 6.5,-3.5c5.6469,-0.93413 11.96843,-0.19244 17.68585,-0.19244c2.44954,0 4.67517,1.09883 6.58012,2.62981c0.16814,0.13513 2.52421,3.0301 2.60573,2.06263c0.5,0.16666 1,0.33334 1.5,0.5z" data-paper-data="{&quot;origPos&quot;:null}" fill="#ffffff"/><path d="M175.22613,158.74961c-3.74959,-0.05514 -3.69446,-3.80473 -3.69446,-3.80473l-0.00041,-0.94486c0,-1.5 0,-3 0,-4.5c0,-2.83798 -0.27175,-5.87977 0.19244,-8.68586c0.10803,-0.65305 0.69692,-1.16153 0.80756,-1.81414c0.39713,-2.34244 0,-5.11924 0,-7.5c0,-2.24775 0,-4.49549 0,-6.74324c-0.1569,0.00213 -0.25,-0.00676 -0.25,-0.00676h-1.5c-1.75149,-0.30812 -3.60041,-0.64334 -5.08013,-1.62981c0.19338,-0.12339 0.79293,-0.28455 0.58013,-0.37019c-1.29576,-0.52146 -2.80783,0.03552 -4.18586,-0.19244c-1.84805,-0.30571 -2.77544,-0.80756 -4.81414,-0.80756c-5.08334,0 -10.16666,0 -15.25,0c0,2.91666 0,5.83334 0,8.75c0,2.38076 -0.39713,5.15756 0,7.5c0.43286,2.55318 1.79855,4.68836 2,7.5c0,2.97303 1.77468,5.85523 2,9v1.5c0,0 0.29458,3.43021 -3.44281,3.73739c-3.7374,0.30719 -4.05719,-3.73739 -4.05719,-3.73739v-1.5c0.32039,-0.52301 -0.1136,-1.23227 -0.30756,-1.81414c-0.79135,-2.37405 -1.69244,-4.65304 -1.69244,-7.18586c0.64781,-1.05751 -1.80216,-6.30405 -2,-7.5c-0.38867,-2.34954 0,-5.11386 0,-7.5c0,-6 0,-12 0,-18c0.30096,-1.58721 -0.78893,-3.97912 -1,-5.5c-0.34506,-2.48631 0.58811,-5.4803 0.19244,-7.81414c-0.2425,-1.43039 -0.95566,-2.75451 -1.19244,-4.18586c-0.62261,-3.76373 0,-8.17745 0,-12c0,0 0,-3.75 3.75,-3.75c3.75,0 3.75,3.75 3.75,3.75c0,3.81417 -0.6362,8.24742 0,12c0.27957,1.64901 0.90602,2.45579 1,4.5c0.11235,2.44393 -0.36191,5.08391 0,7.5c0.28777,1.92115 0.90578,3.47225 1,5.5c0,0.57282 0,1.14565 0,1.71847c9.30943,-0.19332 19.58871,-1.09047 27.83013,2.66134c1.73749,1.15832 1.90712,1.442 0.91987,0.37019h1.5c0,0 0.09311,0.00812 0.25,0.03478c0,-0.26159 0,-0.52319 0,-0.78478c0,-9.83334 0,-19.66666 0,-29.5c0,0 0,-3.75 3.75,-3.75c3.75,0 3.75,3.75 3.75,3.75c0,9.83334 0,19.66666 0,29.5c0,5 0,10 0,15c0,2.38614 0.38867,5.15046 0,7.5c-0.23678,1.43134 -0.94994,2.75547 -1.19244,4.18586c-0.2913,1.71821 0.19244,4.43932 0.19244,6.31414c0,1.5 0,3 0,4.5l-0.00041,1.05514c0,0 -0.05514,3.74959 -3.80473,3.69446z" data-paper-data="{&quot;origPos&quot;:null}" fill="#ffffff"/><path d="M234.28127,125.75001h-1.5c-4.98193,0 -10.02408,0.22876 -15,0c-1.95862,-0.09005 -3.50602,-0.54554 -5.20409,-0.80967c-0.07703,0.25103 -0.15639,0.49963 -0.23835,0.74553c-1.48069,4.44207 -1.7833,8.63935 -2.41952,13.22366c-0.28621,2.06232 -1.56731,4.19869 -1.88804,6.09049c-0.31685,1.86894 -0.21269,3.96505 -0.10708,6h0.10708v3c0,0.47396 -0.08793,0.92739 -0.24837,1.34485c-0.3655,1.07574 -1.26886,2.40515 -3.50163,2.40515c-2.23278,0 -3.13614,-1.32941 -3.50163,-2.40515c-0.16044,-0.41746 -0.24837,-0.87089 -0.24837,-1.34485c0,-2.86554 -0.46674,-6.1785 0,-9c0.44519,-2.69123 1.70669,-5.20396 2.11196,-7.90951c0.70664,-4.71747 1.02838,-9.12005 2.58048,-13.77634c1.91795,-5.75383 2.31225,-13.24546 5.5,-18.5c0.78197,-1.28896 2.15496,-2.15852 2.90591,-3.46579c0.06763,-0.11774 -0.41422,0.10132 -0.40591,-0.03421c0.03226,-0.52606 0.21255,-1.05824 0.5,-1.5c1.07861,-1.6576 2.62002,-2.96328 3.90591,-4.46579c1.40344,-1.63986 2.87781,-5.1356 5,-6c1.32574,-0.54 2.76776,-0.73224 4.15165,-1.09835c2.41491,0 3.97133,2.93881 5.16197,5.09117c0.37743,-0.2525 0.68977,0.64901 0.98968,1.00718c2.375,2.83634 3.55875,4.37445 4.09835,8.15165c0.07071,0.49498 -0.18667,1.03615 0,1.5c0.08564,0.21281 0.17974,-0.70799 0.37019,-0.58013c1.31085,0.88003 2.19214,3.91183 2.43737,5.39427c0.5034,3.04313 -0.13975,6.14639 0.19244,9.18586c0.19539,1.78781 1.69842,4.48674 2.30756,6.31414c1.26819,3.80459 3.02732,7.79056 3.58048,11.77634c0.77844,5.60904 0.11196,11.74875 0.11196,17.40951v1.5c0,0 0.09735,-3.65005 -0.0013,0.09865c-0.09865,3.7487 -7.4987,-0.09865 -7.4987,-0.09865v-1.5c0,-4.95288 0.83925,-10.73519 0.11196,-15.59049c-0.57129,-3.81388 -2.20499,-7.58007 -3.41952,-11.22366c-0.10754,-0.32262 -0.22114,-0.64809 -0.33853,-0.97597c-0.36154,0.05043 -0.60391,0.04011 -0.60391,0.04011zM217.46713,118.44245c1.21724,0.20637 3.44559,-0.19244 4.81414,-0.19244c3.42858,0 6.85716,0 10.28574,0c-0.0127,-0.08339 -0.02462,-0.16673 -0.03574,-0.25c-0.36819,-2.7575 0.90495,-6.39302 -0.37019,-8.91987c-0.71653,-1.41991 -4.08133,-5.12861 -2.62981,-6.58013c0.11088,-0.11088 0.30674,0.08379 0.4745,0.30831c-1.33468,-2.06219 -3.0497,-3.67953 -4.35802,-5.69548c-0.29384,0.37541 -0.57853,0.75865 -0.86648,1.13717c-1.54327,2.02874 -3.56916,3.38967 -4.44244,5.43586c-0.26971,0.63197 -1.20887,3.38132 -2.40591,3.96579c-0.14234,0.0695 -0.01519,-0.60314 -0.09409,-0.46579c-1.78407,3.10575 -2.69601,6.85595 -3.52085,10.58909c1.01673,0.22504 2.03696,0.47894 3.14915,0.66749z" data-paper-data="{&quot;origPos&quot;:null}" fill="#ffffff"/><path d="M310.03127,149c0,3.75 -6.40165,2.65165 -6.40165,2.65165l-1,-1c-1.75134,-2.26582 -2.21377,-4.86469 -4,-7c-2.64353,-3.16017 -6.22017,-6.98365 -9.42847,-9.53146c-2.50405,-1.98854 -5.58727,-2.95668 -8.04006,-5.04006c-0.55445,-0.47095 -0.44554,-1.44554 -0.95994,-1.95994c-1.33188,-1.33188 -3.20472,-2.10174 -4.57152,-3.46854c-0.88189,-0.88189 -1.80266,-1.75095 -2.72717,-2.62403c-0.20825,3.96214 -0.54909,8.13382 -0.06362,11.78652c0.19114,1.43815 0.95566,2.75451 1.19244,4.18586c0.63077,3.81307 -0.42007,7.13125 0.80756,10.81414c0,0 1.18586,3.55756 -2.3717,4.74341c-3.55756,1.18586 -4.74341,-2.3717 -4.74341,-2.3717c-1.50776,-4.52327 -0.42634,-8.66705 -1.19244,-13.18586c-0.11064,-0.65261 -0.71079,-1.15933 -0.80756,-1.81414c-0.86527,-5.85542 -0.19244,-12.27934 -0.19244,-18.18586c0,-3.63526 -1.37544,-7.39699 -1.88804,-11.09049c-0.66461,-4.78887 -1.11196,-9.44629 -1.11196,-14.40951c0,-2.89568 -0.36968,-7.88837 2.62981,-9.58013c1.42634,-0.80447 3.08013,-1.11325 4.62019,-1.66987c2.61178,0 4.79415,-1.39069 7.31414,-1.80756c6.42514,-1.06287 13.68956,-0.19244 20.18586,-0.19244c2.35084,0 5.91424,-0.25043 7.90951,1.11196c1.22057,0.83342 2.14045,2.0386 3.21068,3.05791c2.03794,3.05691 2.28322,8.12264 0.51785,11.48964c-1.25759,2.39852 -3.72395,3.54446 -4.98638,5.74214c-0.06763,0.11774 0.41422,-0.10132 0.40591,0.03421c-0.03226,0.52606 -0.17476,1.08527 -0.5,1.5c-4.47846,5.71082 -11.82412,10.04588 -19.05756,10.56414c-3.29933,0 -7.12982,-0.54414 -10.38903,-0.01836c0.1739,0.21443 0.3499,0.42593 0.54067,0.61671c2,2 4,4 6,6c1.04675,1.04675 2.40392,1.5069 3.42848,2.53146c1.19173,1.19173 1.71598,2.99735 3.04006,4.04006c0.16253,0.12799 0.35786,-0.33048 0.55686,-0.27397c1.80302,0.51197 3.94795,2.06445 5.40308,3.23391c2.73273,2.19625 5.09433,4.99134 7.57153,7.46854c2.00173,2.00173 4.18447,3.99046 5.46854,6.57152c0.55751,1.12064 1.28364,4.65536 1.53146,3.42848l1,1c0,0 1.09835,-1.09835 1.09835,2.65165zM271.3517,105.02091c0.08059,-0.02852 0.1617,-0.05509 0.2437,-0.07845c4.20699,-1.19846 8.83053,-0.69244 13.18586,-0.69244c0.7203,0.44124 2.55989,-0.55614 3.31414,-0.80756c2.18539,-0.72846 3.83362,-1.4616 5.5342,-3.09409c0.25349,-0.24334 2.4477,-2.44164 3.07153,-2.46854c0.31124,-0.01343 -0.18884,1.16317 0.02256,0.93434c1.09826,-1.18885 1.06642,-3.08203 1.90591,-4.46579c0.31811,-0.52435 2.42513,-2.85376 3,-3c0.23978,-0.061 -0.07991,0.9712 0.01362,0.74214c0.26778,-0.6558 0.5333,-4.07238 0.88804,-4.59049c0.16125,-0.23551 0.73637,0.84492 0.62981,0.58013c-0.22435,-0.55748 -0.66667,-1 -1,-1.5c0.40356,0.01931 1.56317,0.25534 1.21068,0.05791c-3.03042,-1.69731 -7.76833,-0.88804 -11.09049,-0.88804c-3.95011,0 -9.04805,-0.83093 -12.81414,-0.19244c-3.26728,0.55392 -6.09036,2.13633 -9.50473,2.19099c0.02367,0.25063 0.06887,0.50541 0.06887,0.75145c0,2.84414 -0.64579,6.64008 -0.19244,9.31414c0.2425,1.43039 0.95566,2.75451 1.19244,4.18586c0.15905,0.9615 0.25058,1.98412 0.32045,3.02089zM269.94963,87.55885c0.0782,-0.09653 0.15299,-0.19883 0.22673,-0.30291c-0.05769,-0.18677 -0.10244,-0.36191 -0.14508,-0.25593c-0.07152,0.1777 -0.08823,0.36602 -0.08165,0.55884z" data-paper-data="{&quot;origPos&quot;:null}" fill="#ffffff"/><path d="M344.60335,100.26387c3.73615,0.32208 3.41406,4.05822 3.41406,4.05822l0.01385,1.67792c0,8.83334 0,17.66666 0,26.5c0,5.09492 0.63921,10.65849 -0.19244,15.68586c-0.82326,4.97672 -3.40186,10.20559 -5,15c0,0 -1.18586,3.55756 -4.74342,2.3717c-3.55756,-1.18586 -2.37171,-4.74341 -2.37171,-4.74341c1.60144,-4.80432 4.15501,-10.01585 5,-15c0.66485,-3.92158 -0.19244,-9.18117 -0.19244,-13.31414c0,-8.83334 0,-17.66666 0,-26.5l0.01385,-2.32208c0,0 0.32208,-3.73614 4.05823,-3.41406z" data-paper-data="{&quot;origPos&quot;:null}" fill="#ffffff"/><path d="M413.06604,156.5171c-0.21069,2.2444 -2.59891,3.04047 -2.59891,3.04047c-2.4865,0.82883 -4.64022,0.81113 -7.18586,1.19244c-3.83389,0.57429 -9.02049,2.073 -13,1c-4.81381,-1.29796 -9.17107,-3.61777 -12.65165,-7.09835c-2.31239,-2.31239 -6.21159,-3.05205 -8,-6c-0.83949,-1.38377 -1.09972,-3.06237 -1.90591,-4.46579c-0.0789,-0.13735 0.04825,0.53529 -0.09409,0.46579c-0.42361,-0.20683 -0.82218,-0.56342 -1,-1c-1.26096,-3.09577 -1.66448,-8.22934 -1.09835,-11.65165c0.4108,-2.48332 1.77736,-4.73754 2.19244,-7.18586c0.25304,-1.49254 0.03469,-2.69513 0.5,-4.5c1.94528,-5.83585 3.72713,-13.52067 9.40591,-16.96579c0.4027,-0.2443 3.39205,-1.72829 4.4658,-1.90591c1.37803,-0.22796 2.89009,0.32902 4.18586,-0.19244c0.21281,-0.08564 -0.70799,-0.17974 -0.58013,-0.37019c0.33495,-0.49892 0.9278,-0.81643 1.5,-1c3.03564,-0.9739 6.43854,-0.62981 9.58013,-0.62981c4.54716,0 11.69661,1.7889 14.15165,6.09835c1.00254,1.75981 1.19951,3.87591 1.98638,5.74214c0.30491,0.72316 1.13258,1.12672 1.48215,1.82939c1.09274,2.19651 1.47324,4.65687 2.43737,6.89427c0.31797,0.7379 1.62547,2.87434 1.79654,3.5088c0.77267,2.86562 0.3959,6.22825 0.3959,9.17705c0,8.27984 0.23607,17.68027 -5.96524,24.01709zM405.64349,153.14011c0.24102,-1.07061 0.99969,-2.77329 3.38787,-2.88437c2.91183,-5.51582 2.49991,-11.71353 2.49991,-17.75573c0,-1.72686 -0.49183,-4.35647 0,-6c0.04145,-0.1385 0.44137,0.31428 0.3959,0.17705c-1.59885,-4.82472 -4.30323,-9.18289 -6.28393,-13.76754c-0.75575,-1.74929 0.21664,-3.09366 -1.54782,-4.35195c-1.71807,-1.2252 -5.2679,-1.80756 -7.31414,-1.80756c-1.1852,0 -5.06339,0.64127 -6,0c-0.23552,-0.16125 0.84492,-0.73637 0.58013,-0.62981c-1.76894,0.71188 -3.26446,2.0473 -5.08013,2.62981c-1.05642,0.33892 -2.20677,0.23965 -3.31414,0.30756c-0.13553,0.00831 0.08354,-0.47355 -0.0342,-0.40591c-4.75432,2.73107 -5.98763,9.21483 -7.59409,14.03421c-1.02585,1.04781 -0.46796,4.40389 -1,6c-0.80667,2.41999 -1.30756,3.76859 -1.30756,6.31414c0,0.33074 0.15463,4.18273 0.01519,4.48209c0.80273,0.93591 2.20513,2.40956 2.29237,3.83206c0.11964,1.95083 5.71217,4.15229 7.59409,6.03421c0.66667,0.66666 1.58634,1.15278 2,2c0.0695,0.14234 -0.60315,0.01519 -0.4658,0.09409c1.06736,0.61313 2.35906,0.72026 3.4912,1.20346c0.86546,0.36938 1.42973,1.30809 2.32295,1.6041c1.14938,0.38089 3.28049,0 4.5,0c3.62837,0 7.35771,-0.27033 10.86221,-1.1099z" data-paper-data="{&quot;origPos&quot;:null}" fill="#ffffff"/><path d="M317.70234,244.40238c-1.40238,12.42108 -13.82346,11.0187 -13.82346,11.0187l-2.14805,-0.01761c-1.76499,-0.22062 -7.78238,-0.95835 -9.1612,-1.20114c-2.13867,-0.37658 -4.1357,-1.41645 -6.28837,-1.70234c-2.62984,-0.34926 -5.30895,0.09298 -7.95871,-0.03682c-7.44966,-0.36493 -15.17937,-0.74325 -22.49275,-2.20592c-5.50602,-1.63602 -11.57042,-0.49607 -17.26018,-1.05492c-2.16117,-0.21227 -4.13022,-1.4613 -6.28837,-1.70234c-3.61144,-0.40336 -7.28106,0.17601 -10.90071,-0.14535c-4.41731,-0.39218 -8.69981,-1.49979 -13.09929,-1.85465c-2.50512,-0.20206 -5.69112,0.65096 -7.45285,-1.14146c-0.03416,-0.03476 -0.03259,-0.05802 -0.00527,-0.07238c-7.1188,-0.91146 -14.20184,-1.89639 -21.30965,-2.91179c0,0 -12.37437,-1.76777 -10.6066,-14.14214c1.76777,-12.37437 14.14214,-10.6066 14.14214,-10.6066c7.15185,1.02169 14.52197,1.65634 21.61263,2.95082c1.22572,0.22377 2.42065,0.59076 3.61885,0.93582c0.0002,-0.00406 0.00045,-0.00815 0.00076,-0.01227c0.04887,-0.66487 1.33734,-0.07297 2,0c3.24892,0.35778 6.46758,0.96058 9.69765,1.46709c-0.19765,-1.17963 -0.19765,-1.96709 -0.19765,-1.96709c0,-11.8167 0,-24.84159 0,-36.90604c-5.55116,0.12703 -11.11422,0.40604 -16.5,0.40604c0,0 -12.5,0 -12.5,-12.5c0,-12.5 12.5,-12.5 12.5,-12.5c12.61832,0 26.73308,-1.60163 38.95285,1.64146c4.85863,1.28947 9.72759,2.91142 14.4362,4.65443c1.33544,0.49435 2.66209,1.01238 4,1.5c0.04715,0.01718 0.31365,0.10342 0.65845,0.21473c2.0065,0.07671 3.99071,0.55658 5.95115,1.02309c0.00006,-0.01098 0.00051,-0.02221 0.00136,-0.0337c0.04887,-0.66487 1.33333,0 2,0c1.16667,0 2.33333,0 3.5,0c6.16667,0 12.33333,0 18.5,0l2.25763,0.06343c0,0 12.43657,1.25763 11.17894,13.6942c-1.25763,12.43657 -13.6942,11.17894 -13.6942,11.17894l0.25763,0.06343c-3.16213,0 -6.32426,0 -9.4864,0c0.11801,11.40118 0.92442,23.24673 -0.75634,34.45145l-0.0516,0.258c1.8202,0.02615 3.62273,0.08804 5.29434,0.29055c6.23183,0.75496 12.31005,2.31648 18.55043,3.09653l1.85195,-0.01761c0,0 12.42108,1.40238 11.0187,13.82346zM243.99289,224.79766c3.08519,0.27822 6.20379,-0.58264 9.28837,-0.29766c0.91807,0.08482 1.8298,0.21859 2.73868,0.37443c-0.00048,-0.2105 0.00407,-0.32588 0.00407,-0.32588l0.5,-2.5c0.49806,-0.09399 0.25726,-6.53305 0.25726,-7.04855c0,-8.06041 0,-16.12082 0,-24.18123c-4.08265,-0.91222 -7.58951,-2.34929 -11.93401,-3.79972c-0.02193,-0.00732 -0.04392,-0.0146 -0.06599,-0.02185c0,10.50093 0,21.00187 0,31.5028v1.5c0,0 0,2.21721 -0.9338,4.78403c0.04845,0.00471 0.09693,0.00926 0.14544,0.01363z" data-paper-data="{&quot;origPos&quot;:null}" fill="#00d2ff"/><path d="M268.4151,237.14571c-0.24951,-1.74656 -0.41819,-2.21958 -1.46668,-4.05442c0,0 -1.72113,-3.01198 1.04437,-4.89744c0,-5.07744 0,-10.15488 0,-15.23232c0,-7.35753 -0.42949,-14.85705 0.02896,-22.1959c0.18104,-2.89807 0.54651,-5.66033 0.6852,-8.52377c-7.90894,-0.53795 -16.01551,-1.78787 -23.73919,-3.50425c-1.96896,-0.4564 -4.00409,-0.52195 -5.96498,-0.99067c-0.64416,-0.15397 -1.2995,-0.35761 -1.96179,-0.58512c0.06347,10.04519 0.38554,20.52813 -0.60959,30.44459c-0.90116,8.11043 0.81194,16.29187 -1.4675,24.26993l-0.24329,0.65715c0,0 -0.03003,0.75588 -0.40262,1.57515c1.08819,-0.07616 2.17058,-0.14266 3.19404,-0.08942c3.81122,0.19823 7.79937,0.54888 11.56796,1.17678c3.53586,0.58913 8.17079,2.32112 11.70127,1.90014c2.60743,0 5.14406,0.22343 7.65277,0.56735zM275.83972,236.08505l-0.08578,1.49906c0,0 0.15539,0.59047 0.1025,1.3576c2.3116,0.44619 4.63571,0.90819 7.00641,1.30419c6.08265,1.01604 12.20214,1.95031 18.0461,3.99911c0.70513,0.25641 1.41026,0.51282 2.11538,0.76923l-0.32943,-0.18259c0,0 3.70681,0.56749 3.13932,4.2743c-0.56749,3.70681 -4.2743,3.13932 -4.2743,3.13932l-1.09866,-0.18259c-0.70513,-0.25641 -1.41026,-0.51282 -2.11538,-0.76923c-5.37665,-2.06521 -11.30491,-2.7535 -16.9539,-3.6932c-6.99147,-1.16302 -13.51272,-3.0041 -20.61072,-3.0041c-5.36071,-0.18754 -10.65751,-1.73801 -15.99104,-2.33063c-7.23999,-0.80444 -14.35846,-0.72077 -21.5034,-1.91159c-5.99114,-0.99852 -12.46133,-1.02454 -18.32135,-2.56446c-1.05029,-0.276 -1.94469,-0.99235 -2.98377,-1.30794c-5.48349,-1.66546 -12.24498,-2.27 -17.93121,-2.27c0,0 -3.75,0 -3.75,-3.75c0,-3.75 3.75,-3.75 3.75,-3.75c6.02856,0 13.16063,0.66294 18.99187,2.34538c1.61092,0.46478 3.08511,1.35001 4.70854,1.76898c2.19737,0.5671 4.47898,0.24956 6.68421,0.50102c3.37324,0.38465 6.73543,1.07085 10.0847,1.62906c0.97506,0.16251 1.95281,0.45574 2.92815,0.72023c-0.24774,-0.77852 -0.22143,-1.44049 -0.22143,-1.44049l0.52594,-2.41978c2.12277,-7.42968 0.3784,-15.4201 1.2248,-23.03776c0.57117,-4.44014 0.16937,-9.14923 0.16937,-13.62434c0,-6.08449 0.35867,-12.14042 0.38329,-18.20015c-4.14568,-0.36313 -8.39107,0.28608 -12.54823,-0.01062c-3.63062,-0.25911 -7.24731,-0.86545 -10.89069,-1.12569c0,0 -3.74047,-0.26718 -3.47329,-4.00765c0.26718,-3.74047 4.00765,-3.47329 4.00765,-3.47329c3.81924,0.2728 7.61083,0.9098 11.417,1.18201c3.88655,0.27795 7.89862,-0.45977 11.77736,-0.03769c3.89364,0.4237 7.56728,2.16139 11.33817,3.08249c1.74929,0.42729 3.65795,0.4695 5.43685,0.85296c7.58887,1.68642 15.54007,2.87692 23.30549,3.4012c4.93006,0.33285 9.80693,0.023 14.75668,0.5709c0.57692,0.0641 1.15385,0.12821 1.73077,0.19231l1.54815,0.00109c0,0 3.72597,0.42381 3.30217,4.14978c-0.42381,3.72597 -4.14978,3.30217 -4.14978,3.30217l-1.52877,0.00109c-0.57692,-0.0641 -1.15385,-0.12821 -1.73077,-0.19231c-2.55619,-0.28519 -5.09219,-0.34465 -7.62783,-0.37938c-0.1507,3.09724 -0.54172,6.11033 -0.73701,9.23283c-0.43872,7.01463 0.02896,14.22812 0.02896,21.26564c0,6.34615 0,12.69231 0,19.03846l-0.0004,0.82397c0,0 -0.00565,0.38703 -0.13766,0.91058c0.20449,0.73282 0.36409,1.50422 0.48499,2.3505z" data-paper-data="{&quot;origPos&quot;:null}" fill="#ffffff"/></g></g></svg>