<svg version="1.1" xmlns="http://www.w3.org/2000/svg" xmlns:xlink="http://www.w3.org/1999/xlink" width="937" height="415"><g transform="translate(242,23)"><g data-paper-data="{&quot;isPaintingLayer&quot;:true}" fill="none" fill-rule="nonzero" stroke="none" stroke-width="none" stroke-linecap="none" stroke-linejoin="miter" stroke-miterlimit="10" stroke-dasharray="" stroke-dashoffset="0" font-family="none" font-weight="none" font-size="none" text-anchor="none" style="mix-blend-mode: normal"><path d="M-242,392v-415h937v415z" data-paper-data="{&quot;origPos&quot;:null}" fill="#00ffb9" stroke="none" stroke-width="0" stroke-linecap="butt"/><path d="M436.28125,295v-250h46v250z" data-paper-data="{&quot;origPos&quot;:null}" fill="#3effcc" stroke="none" stroke-width="0" stroke-linecap="butt"/><path d="M-65,364v-70h546v70z" data-paper-data="{&quot;origPos&quot;:null}" fill="#61cd42" stroke="none" stroke-width="0" stroke-linecap="butt"/><path d="M422,48l-1,42l-38,-27z" data-paper-data="{&quot;origPos&quot;:null}" fill="#ff0000" stroke="#d90000" stroke-width="5" stroke-linecap="round"/><path d="M414.19526,73.19654c0.23286,-0.00078 0.40066,0.00015 0.40066,0.00015l-1.0129,0.4341c-2.88553,1.23604 -5.05384,2.06231 -8.2215,1.3023c-6.00497,-1.44077 -4.84665,-10.20381 -1.85207,-13.77595c2.28327,-2.72364 8.20263,-2.52726 11.29618,-2.24603c0,0 2.16158,0.19651 1.96508,2.35809c-0.19651,2.16158 -2.35809,1.96508 -2.35809,1.96508c-2.44764,-0.22251 -7.18365,-0.48014 -8.96181,1.80557c-0.14349,0.18445 0.51692,0.24784 0.50964,0.48142c-0.06227,1.99674 -1.18065,3.86642 0.26259,5.78651c0.16334,0.2173 -0.41415,-0.69145 -0.1644,-0.79879c0.09558,-0.04108 3.01687,0.59795 3.26787,0.55878c0.29451,-0.04596 1.98121,-1.18458 2.54652,-1.42698l1.0129,-0.4341c0,0 2.08822,3.2021 1.30934,3.98986z" data-paper-data="{&quot;origPos&quot;:null}" fill="#ff0000" stroke="none" stroke-width="0.5" stroke-linecap="butt"/><path d="M395.66667,66.59091c0,-6.90356 5.59644,-12.5 12.5,-12.5c6.90356,0 12.5,5.59644 12.5,12.5c0,6.90356 -5.59644,12.5 -12.5,12.5c-6.90356,0 -12.5,-5.59644 -12.5,-12.5z" data-paper-data="{&quot;origPos&quot;:null}" fill="#ffffff" stroke="none" stroke-width="0" stroke-linecap="butt"/><path d="M414.19526,73.19654c0.23286,-0.00078 0.40066,0.00015 0.40066,0.00015l-1.0129,0.4341c-2.88553,1.23604 -5.05384,2.06231 -8.2215,1.3023c-6.00497,-1.44077 -4.84665,-10.20381 -1.85207,-13.77595c2.28327,-2.72364 8.20263,-2.52726 11.29618,-2.24603c0,0 2.16158,0.19651 1.96508,2.35809c-0.19651,2.16158 -2.35809,1.96508 -2.35809,1.96508c-2.44764,-0.22251 -7.18365,-0.48014 -8.96181,1.80557c-0.14349,0.18445 0.51692,0.24784 0.50964,0.48142c-0.06227,1.99674 -1.18065,3.86642 0.26259,5.78651c0.16334,0.2173 -0.41415,-0.69145 -0.1644,-0.79879c0.09558,-0.04108 3.01687,0.59795 3.26787,0.55878c0.29451,-0.04596 1.98121,-1.18458 2.54652,-1.42698l1.0129,-0.4341c0,0 2.08822,3.2021 1.30934,3.98986z" data-paper-data="{&quot;origPos&quot;:null}" fill="#ff0000" stroke="none" stroke-width="0.5" stroke-linecap="butt"/><path d="M425.28125,273v-228h12v228z" data-paper-data="{&quot;origPos&quot;:null}" fill="#ffeca9" stroke="none" stroke-width="0" stroke-linecap="butt"/><path d="M404.28125,295v-21h64v21z" data-paper-data="{&quot;origPos&quot;:null}" fill="#ff0000" stroke="none" stroke-width="0" stroke-linecap="butt"/><text transform="translate(243.28125,37) scale(0.5,0.5)" font-size="40" xml:space="preserve" data-paper-data="{&quot;origPos&quot;:null}" fill="#000000" fill-rule="nonzero" stroke="none" stroke-width="1" stroke-linecap="butt" stroke-linejoin="miter" stroke-miterlimit="10" stroke-dasharray="" stroke-dashoffset="0" font-family="Marker" font-weight="normal" text-anchor="start" style="mix-blend-mode: normal"><tspan x="0" dy="0">LEVEL 15</tspan></text><path d="M66,226v-37h91v37z" data-paper-data="{&quot;origPos&quot;:null}" fill="#787878" stroke="none" stroke-width="0" stroke-linecap="butt"/><path d="M156,293v-104h37v104z" fill="#787878" stroke="none" stroke-width="0" stroke-linecap="butt"/><path d="M193,189v-115h37v115z" fill="#787878" stroke="none" stroke-width="0" stroke-linecap="butt"/><path d="M229,146v-37h86v37z" fill="#787878" stroke="none" stroke-width="0" stroke-linecap="butt"/><path d="M230,228v-39h91v39z" fill="#787878" stroke="none" stroke-width="0" stroke-linecap="butt"/><path d="M314,192v-47h58v47z" fill="#787878" stroke="none" stroke-width="0" stroke-linecap="butt"/><path d="M192.66667,227.33333v-38.33333h37.19444v38.33333z" fill="#78461c" stroke="none" stroke-width="0" stroke-linecap="butt"/><path d="M66.5,294.16667v-68.5h30v68.5z" fill="#78461c" stroke="none" stroke-width="0" stroke-linecap="butt"/><path d="M10,225.66667v-35.5h56.5v35.5z" fill="#78461c" stroke="none" stroke-width="0" stroke-linecap="butt"/><path d="M271.60426,180.77083v-26.25h33.75v26.25z" fill="#78461c" stroke="none" stroke-width="0" stroke-linecap="butt"/><path d="M93.74242,146.25v-24.58333h9.58333v24.58333z" fill="#78461c" stroke="none" stroke-width="0" stroke-linecap="butt"/><path d="M102.49242,156.25v-10h8.33333v10z" fill="#78461c" stroke="none" stroke-width="0" stroke-linecap="butt"/><path d="M110.40909,146.25v-10.41667h7.08333v10.41667z" fill="#78461c" stroke="none" stroke-width="0" stroke-linecap="butt"/><path d="M117.90909,156.66667v-10.83333h7.5v10.83333z" fill="#78461c" stroke="none" stroke-width="0" stroke-linecap="butt"/><path d="M125.40909,146.25v-23.33333h9.16667v23.33333z" fill="#78461c" stroke="none" stroke-width="0" stroke-linecap="butt"/><path d="M142.07576,152.91667v-22.08333h9.16667v22.08333z" fill="#78461c" stroke="none" stroke-width="0" stroke-linecap="butt"/><path d="M151.24242,130.83333v-8.75h8.75v8.75z" fill="#78461c" stroke="none" stroke-width="0" stroke-linecap="butt"/><path d="M159.57576,152.91667v-22.5h8.75v22.5z" fill="#78461c" stroke="none" stroke-width="0" stroke-linecap="butt"/><path d="M150.40909,144.16667v-6.66667h9.58333v6.66667z" fill="#78461c" stroke="none" stroke-width="0" stroke-linecap="butt"/><path d="M172.07576,151.66667v-27.5h7.5v27.5z" fill="#78461c" stroke="none" stroke-width="0" stroke-linecap="butt"/><path d="M178.74242,132.08333v-7.5h9.58333v7.5z" fill="#78461c" stroke="none" stroke-width="0" stroke-linecap="butt"/><path d="M178.32576,141.25v-5.41667h5.41667v5.41667z" fill="#78461c" stroke="none" stroke-width="0" stroke-linecap="butt"/></g></g></svg>