<svg version="1.1" xmlns="http://www.w3.org/2000/svg" xmlns:xlink="http://www.w3.org/1999/xlink" width="46.88381" height="57.44853" viewBox="0,0,46.88381,57.44853"><g transform="translate(-216.93636,-150.94392)"><g data-paper-data="{&quot;isPaintingLayer&quot;:true}" fill="none" fill-rule="none" stroke="none" stroke-width="none" stroke-linecap="none" stroke-linejoin="none" stroke-miterlimit="10" stroke-dasharray="" stroke-dashoffset="0" font-family="none" font-weight="none" font-size="none" text-anchor="none" style="mix-blend-mode: normal"><g data-paper-data="{&quot;origPos&quot;:null}" id="tail" fill-rule="evenodd"><path d="M232.98434,193.93841c0.38889,0.19444 1.21527,0.63194 0.04861,2.2847c-1.16666,1.65276 -4.52079,1.99304 -4.90968,1.99304c-1.50693,0.04861 -3.35414,0.04861 -5.39578,-0.63194c-5.9305,-1.94443 -5.97911,-8.31242 -4.0833,-9.33325c1.84721,-1.02082 2.67359,2.91664 5.34717,5.29856c1.16666,1.06943 2.57637,1.45832 3.74302,1.70137c1.65276,0.29166 4.81246,-1.55554 5.24995,-1.31249z" fill="#ffab19" stroke="#001026" stroke-width="1.2" stroke-linecap="round" stroke-linejoin="round"/><path d="M220.92889,190.00094c0.77777,1.31249 2.2847,3.15969 2.2847,3.15969c0,0 -1.79859,-0.4375 -2.81942,0.38889c-0.82638,0.63194 -0.63194,1.70137 -0.53472,2.04165c-0.63194,-0.63194 -1.40971,-1.50693 -1.89582,-3.2083c-0.48611,-1.70137 0,-3.74302 0.97221,-4.03469c0.97221,-0.19444 1.21527,0.53472 1.99304,1.65276z" id="detail" fill="#ffffff" stroke="none" stroke-width="1" stroke-linecap="butt" stroke-linejoin="miter"/></g><path d="M235.41487,198.99392c-0.87499,0.58333 -3.88885,2.7222 -7.7291,3.93746l-0.19444,0.04861c-0.19444,0.04861 -0.29166,0.29166 -0.19444,0.48611c0.82638,1.16666 2.33331,3.49997 -0.34027,4.32635c-2.57637,0.82638 -7.38882,-6.02772 -5.34717,-7.82632c0.9236,-0.68055 1.74998,-0.34027 2.18748,-0.14583c0.24305,0.09722 0.48611,0.09722 0.72916,0.04861c0.58333,-0.19444 1.65276,-0.58333 2.47914,-1.02082c2.09026,-1.06943 2.57637,-1.50693 3.54858,-2.23609c0.97221,-0.72916 3.2083,-2.52775 5.0069,-0.97221c1.55554,1.31249 0.68055,2.77081 -0.14583,3.35414z" data-paper-data="{&quot;origPos&quot;:null}" id="leg" fill="#ffab19" fill-rule="evenodd" stroke="#001026" stroke-width="1.2" stroke-linecap="round" stroke-linejoin="round"/><path d="M243.14397,188.8829c0.24305,0.19444 3.2083,3.69441 4.18052,2.81942c1.16666,-1.02082 2.77081,-3.01386 4.52079,-1.40971c1.74998,1.60415 -1.55554,4.32635 -2.96525,5.05551c-3.35414,1.50693 -6.07633,-1.3611 -6.65966,-2.13887c-0.58333,-0.77777 -1.60415,-2.09026 -1.60415,-3.35414c0.04861,-1.3611 1.70137,-1.70137 2.52775,-0.97221z" data-paper-data="{&quot;origPos&quot;:null}" id="arm" fill="#ffab19" fill-rule="evenodd" stroke="#001026" stroke-width="1.2" stroke-linecap="round" stroke-linejoin="round"/><g data-paper-data="{&quot;origPos&quot;:null}" id="body-and-leg" fill-rule="evenodd"><path d="M243.19258,200.20919c1.02082,0.9236 3.25691,2.81942 3.25691,2.81942c0,0 6.95133,-1.21527 6.95133,2.2847c0,2.09026 -3.49997,2.57637 -8.2152,2.13887c-0.29166,-0.04861 -0.58333,-0.14583 -0.82638,-0.34027c-1.06943,-0.9236 -4.13191,-3.6458 -6.07633,-5.54162c-2.86803,-2.81942 -5.24995,-4.66662 -5.24995,-4.66662c-4.13191,-4.03469 -0.77777,-5.73606 0.53472,-8.06937c1.21527,-1.99304 1.74998,-1.60415 4.66662,-1.02082c1.65276,0.24305 2.62498,0.38889 3.69441,0.34027c1.60415,-0.04861 1.31249,2.2847 0.87499,3.49997c0,0 -0.68055,1.79859 -1.31249,2.7222c-0.77777,1.11805 -1.3611,1.84721 -1.94443,2.2847z" id="body" fill="#ffab19" stroke="#001026" stroke-width="1.2" stroke-linecap="round" stroke-linejoin="round"/><path d="M239.10928,196.612c0,0 -0.72916,-0.58333 -1.50693,-1.31249c-0.97221,-0.87499 -1.94443,-1.60415 -0.97221,-3.11108c0.87499,-1.16666 1.70137,-2.7222 3.88885,-1.31249c2.09026,1.31249 1.16666,2.52775 1.16666,2.52775c-1.06943,2.18748 -2.57637,3.2083 -2.57637,3.2083z" id="tummy" fill="#ffffff" stroke="none" stroke-width="1" stroke-linecap="butt" stroke-linejoin="miter"/></g><path d="M231.76907,192.62592c1.06943,1.3611 2.7222,3.06247 0.63194,4.47218c-2.86803,1.60415 -5.24995,-3.25691 -5.73606,-4.95829c-0.4375,-1.50693 0.82638,-2.47914 1.89582,-3.30553c2.09026,-1.50693 3.84024,-2.86803 5.78467,-2.13887c2.43053,0.87499 0.68055,2.81942 -0.53472,3.69441c-0.72916,0.53472 -1.45832,1.11805 -1.99304,1.45832c-0.14583,0.24305 -0.19444,0.53472 -0.04861,0.77777z" data-paper-data="{&quot;origPos&quot;:null}" id="arm" fill="#ffab19" fill-rule="evenodd" stroke="#001026" stroke-width="1.2" stroke-linecap="round" stroke-linejoin="round"/><g data-paper-data="{&quot;origPos&quot;:null}" id="head" fill-rule="evenodd"><path d="M247.08143,159.86233c0.14583,-0.09722 0.38889,-0.04861 0.4375,0.14583l1.26388,5.20134c0,0 3.11108,2.2847 4.03469,3.88885c1.55554,2.67359 1.60415,4.86107 1.60415,4.86107c0,0 3.45136,1.02082 4.03469,3.79163c0.58333,2.77081 -1.55554,8.02076 -10.69435,9.81935c-9.13881,1.79859 -16.47902,-0.68055 -19.93037,-6.22217c-3.45136,-5.54162 1.99304,-12.15267 1.70137,-11.76378l-1.02082,-8.70131c-0.04861,-0.19444 0.19444,-0.34027 0.38889,-0.24305l5.88189,3.84024c0,0 2.18748,-0.82638 4.47218,-0.9236c1.3611,-0.09722 2.52775,0 3.6458,0.19444z" fill="#ffab19" stroke="#001026" stroke-width="1.2" stroke-linecap="butt" stroke-linejoin="miter"/><path d="M254.27581,174.15387c0,0 3.35414,0.87499 3.93746,3.6458c0.58333,2.77081 -1.74998,7.77771 -10.79157,9.52769c-11.76378,2.43053 -17.35401,-4.5694 -14.09709,-9.72213c3.25691,-5.20134 8.84714,-0.77777 12.93044,-1.06943c3.49997,-0.24305 3.88885,-3.30553 8.02076,-2.38192z" id="face" fill="#ffffff" stroke="none" stroke-width="1" stroke-linecap="butt" stroke-linejoin="miter"/><path d="M238.96345,179.35521c0,-0.19444 0.19444,-0.34027 0.38889,-0.29166c0.9236,0.34027 3.54858,1.11805 6.46522,1.31249c2.62498,0.14583 4.18052,0 4.90968,-0.14583c0.24305,-0.04861 0.4375,0.19444 0.34027,0.4375c-0.4375,1.31249 -2.2847,4.95829 -7.38882,4.66662c-4.42357,-0.48611 -4.86107,-3.59719 -4.71523,-5.97911z" id="mouth" fill="#ffffff" stroke="#001026" stroke-width="1.2" stroke-linecap="round" stroke-linejoin="round"/><path d="M263.22018,174.68858c-2.2847,1.84721 -5.78467,1.89582 -5.78467,1.89582" id="whisker" fill="none" stroke="#001026" stroke-width="1.2" stroke-linecap="round" stroke-linejoin="round"/><path d="M262.58824,180.13298c-3.06247,0.24305 -4.95829,-0.68055 -4.95829,-0.68055" id="whisker" fill="none" stroke="#001026" stroke-width="1.2" stroke-linecap="round" stroke-linejoin="round"/><path d="M246.06061,175.27191c1.02082,0 2.09026,0.09722 2.13887,0.4375c0.04861,0.68055 -0.68055,2.04165 -1.45832,2.09026c-0.87499,0.09722 -2.91664,-1.11805 -2.91664,-1.89582c-0.04861,-0.58333 1.26388,-0.63194 2.23609,-0.63194z" id="nose" fill="#001026" stroke="#001026" stroke-width="1.2" stroke-linecap="round" stroke-linejoin="round"/><path d="M224.18581,174.54275c0,0 4.18052,1.3611 5.88189,2.86803" id="whisker" fill="none" stroke="#001026" stroke-width="1.2" stroke-linecap="round" stroke-linejoin="round"/><path d="M230.21353,179.11216c-2.09026,0.82638 -5.68745,0.29166 -5.68745,0.29166" id="whisker" fill="none" stroke="#001026" stroke-width="1.2" stroke-linecap="round" stroke-linejoin="round"/><g id="eye"><path d="M251.79667,169.58446c1.40971,2.18748 1.45832,4.66662 0.09722,5.54162c-1.3611,0.87499 -3.59719,-0.14583 -5.05551,-2.33331c-1.40971,-2.18748 -1.45832,-4.66662 -0.09722,-5.54162c1.3611,-0.9236 3.6458,0.14583 5.05551,2.33331z" id="pupil" fill="#ffffff" stroke="#001026" stroke-width="1.2" stroke-linecap="round" stroke-linejoin="round"/><path d="M251.60223,172.35527c0,0.53472 -0.38889,0.97221 -0.87499,0.97221c-0.48611,0 -0.87499,-0.4375 -0.87499,-0.97221c0,-0.53472 0.38889,-0.97221 0.87499,-0.97221c0.48611,0 0.87499,0.4375 0.87499,0.97221" id="pupil" fill="#001026" stroke="none" stroke-width="1" stroke-linecap="butt" stroke-linejoin="miter"/></g><g id="eye"><path d="M239.74122,170.94556c1.45832,2.13887 1.3611,4.76385 0.04861,5.68745c-1.60415,0.9236 -3.74302,0.24305 -5.20134,-1.89582c-1.50693,-2.13887 -1.60415,-4.90968 -0.09722,-5.97911c1.50693,-1.11805 3.79163,0.04861 5.24995,2.18748z" fill="#ffffff" stroke="#001026" stroke-width="1.2" stroke-linecap="round" stroke-linejoin="round"/><path d="M239.44956,173.76498c0,0.53472 -0.38889,0.97221 -0.87499,0.97221c-0.48611,0 -0.87499,-0.4375 -0.87499,-0.97221c0,-0.53472 0.38889,-0.97221 0.87499,-0.97221c0.48611,0.04861 0.87499,0.4375 0.87499,0.97221" id="pupil" fill="#001026" stroke="none" stroke-width="1" stroke-linecap="butt" stroke-linejoin="miter"/></g></g><path d="M253.92001,162.284c2.86352,2.40876 2.85852,6.90419 -0.62825,8.89198c-1.11854,0.63767 -2.52095,0.47053 -3.72891,0.47053c-1.79618,0 -3.61101,0.09243 -5.39874,-0.10915c-3.35954,-0.38082 -6.76242,-1.57471 -9.85714,-3.12322c-1.16915,-0.58501 -1.93196,-1.15695 -3.20929,-1.39699c0,0 -0.68484,-0.1287 -1.08215,-0.72343c-0.08883,-0.04768 -0.1765,-0.09598 -0.26286,-0.1449c-0.02495,-0.01414 -0.31775,-0.17716 -0.61177,-0.34803c-0.30711,-0.17848 -0.61555,-0.36553 -0.62144,-0.4004l-0.59419,-0.38284c-0.50165,-0.30947 -0.84185,-0.91007 -0.84185,-1.60028c0,-0.72744 0.37791,-1.35536 0.92443,-1.64779c-0.66228,-2.38827 -0.56422,-5.07251 1.38294,-6.6981c1.09392,-0.91326 1.82987,-1.13009 3.1258,-1.37368c3.6328,-0.45512 7.27217,-0.71184 10.92062,-0.71184c1.14807,0 3.45288,-0.44395 4.52711,0.225c0.98556,0.61374 1.6007,1.43564 2.4798,2.14156c1.28895,1.08999 2.64088,2.8013 3.26174,4.41957c0.30467,0.79411 0.20282,1.66954 0.21416,2.512z" fill="#ff0000" fill-rule="nonzero" stroke="none" stroke-width="0.5" stroke-linecap="butt" stroke-linejoin="miter"/><path d="M256.04024,161.81157c0.07501,0.039 0.14703,0.07925 0.21559,0.12079c1.18035,0.71539 1.19534,2.18983 1.19534,3.4619c0,4.14678 -2.6869,6.07567 -6.00891,6.70418c-1.53632,0.25414 -2.89616,-0.15351 -4.40857,-0.28376c-1.23019,-0.10594 -2.47706,-0.09458 -3.7035,-0.2002c-1.15898,-0.09981 -2.38907,0.21345 -3.52679,-0.11664c-0.95961,-0.27841 -1.21175,-0.86322 -1.93993,-1.00099c-1.79964,-0.42234 -3.39252,-1.59863 -4.92419,-2.5483c-0.7819,-0.4848 -1.67049,-0.64384 -2.44652,-1.20493c-0.21424,-0.1549 -0.32292,-0.47125 -0.55156,-0.59685c-1.11766,-0.61398 -2.02253,-0.90363 -2.99217,-1.82089c0,0 -0.60574,-0.57302 -0.34429,-1.32565c-0.86404,-1.30539 -0.76779,-3.1223 -0.07621,-4.71535c0.56603,-1.12447 0.66038,-2.62216 1.38283,-3.64421c1.85094,-2.6185 4.65951,-2.67217 7.30639,-2.87396c1.48626,-0.11331 2.79706,-0.60059 4.32075,-0.60059c2.29952,0 5.07029,-0.49996 7.31883,0c2.8546,0.63471 4.76027,3.12358 6.47939,5.56115c0.47679,0.67655 0.67453,1.43252 1.02982,2.18233c0.48791,1.0297 1.13073,1.91247 1.6737,2.90197zM230.79341,164.14172c0.93792,0.49532 1.90785,0.93478 2.82295,1.50102c1.33463,0.82584 2.99984,2.35295 4.59911,2.45665c0.79926,0.15122 1.22268,0.79288 1.90363,1.15066c0.54482,0.28626 2.38616,-0.13887 3.21109,-0.06611c1.23331,0.10878 2.46996,0.0914 3.7035,0.2002c1.35359,0.11939 2.69393,0.63934 4.05658,0.31683c2.35731,-0.44599 4.21981,-1.42557 4.21981,-4.30672c0,-0.18938 0.01839,-0.38207 0.03561,-0.57456l-0.67201,-0.90573c-0.5961,0.06604 -1.41587,-0.53831 -1.9962,-0.62424c-2.63585,-0.4987 -5.96864,-0.30048 -8.64187,-0.08357c-1.99224,0.16165 -3.8101,0.80079 -5.81979,0.80079c-2.16092,0 -4.37018,-0.15705 -6.52522,0c-0.25583,0.01864 -0.56424,0.07287 -0.8972,0.13477zM252.93373,160.87448c-0.18801,-0.32503 -0.36919,-0.65781 -0.53516,-1.00744c-0.30356,-0.63946 -0.33368,-1.05374 -0.73375,-1.62143c-1.21228,-1.72159 -2.76179,-4.1673 -4.80748,-4.64895c-2.22737,-0.52444 -5.03483,0 -7.31883,0c-1.52168,0 -2.7989,0.48612 -4.32075,0.60059c-1.66441,0.1252 -2.71301,0.02043 -4.28288,0.87269c-0.22218,0.12062 -0.98985,0.48819 -1.10845,0.6577c-0.73632,1.05235 -0.85501,2.60321 -1.43889,3.76312c-0.3716,0.48874 -0.54127,1.17693 -0.2699,1.74096c0.09022,0.18751 0.4021,0.29433 0.35271,0.5005c-0.01875,0.07828 -0.14653,0.08979 -0.26948,0.08103c1.14805,0.16524 2.36013,-0.14892 3.48975,-0.23683c2.15226,-0.1675 4.36627,0 6.52522,0c1.9922,0 3.82355,-0.63902 5.81979,-0.80079c2.75907,-0.22359 6.1624,-0.39987 8.89811,0.09885z" data-paper-data="{&quot;origPos&quot;:null}" fill="#650000" fill-rule="nonzero" stroke="none" stroke-width="0.5" stroke-linecap="butt" stroke-linejoin="miter"/><path d="M240.22388,160.45795c-1.95134,0 -3.53321,-1.43617 -3.53321,-3.20778c0,-1.77161 1.58187,-3.20778 3.53321,-3.20778c1.95133,0 3.5332,1.43617 3.5332,3.20778c0,1.77161 -1.58186,3.20778 -3.5332,3.20778z" data-paper-data="{&quot;origPos&quot;:null}" fill="#ffffff" fill-rule="nonzero" stroke="none" stroke-width="0" stroke-linecap="butt" stroke-linejoin="miter"/><path d="M242.03603,158.46674c0.02809,-0.00739 0.04726,-0.01234 0.04726,-0.01234l-0.21189,0.12621c-0.76037,0.37049 -1.51389,0.31869 -2.3513,0.11085c-1.96038,-0.56973 -0.78128,-2.63848 0.68437,-3.23931l-0.00632,-0.01411l0.07062,-0.01753l-0.01261,-0.05631l0.50144,-0.06223c0.02267,-0.00312 0.04604,-0.00475 0.06992,-0.00475c0.02595,0 0.05129,0.00193 0.07579,0.0056c0.11209,0.01354 0.25779,0.06271 0.29878,0.22241c0.00156,0.00574 0.00288,0.01155 0.00396,0.01741c0.03222,0.1625 -0.085,0.24474 -0.18564,0.28474c-0.02512,0.01096 -0.05207,0.01984 -0.08042,0.02633l-0.30832,0.07652c-0.9659,0.37417 -2.09033,2.0473 -0.8699,2.22141c0.34721,0.08617 1.38773,0.33718 1.63223,-0.01536l0.21189,-0.12621c0,0 0.55759,0.32743 0.43014,0.45667z" data-paper-data="{&quot;origPos&quot;:null}" fill="#ff0000" fill-rule="nonzero" stroke="none" stroke-width="0.5" stroke-linecap="butt" stroke-linejoin="miter"/></g></g></svg>