<svg version="1.1" xmlns="http://www.w3.org/2000/svg" xmlns:xlink="http://www.w3.org/1999/xlink" width="51.36364" height="86.15111" viewBox="0,0,51.36364,86.15111"><g transform="translate(-214.50201,-95.38652)"><g data-paper-data="{&quot;isPaintingLayer&quot;:true}" fill="none" fill-rule="nonzero" stroke="none" stroke-width="none" stroke-linecap="butt" stroke-linejoin="miter" stroke-miterlimit="10" stroke-dasharray="" stroke-dashoffset="0" font-family="none" font-weight="none" font-size="none" text-anchor="none" style="mix-blend-mode: normal"><path d="M224.75668,98.06663l-0.0625,0.4375c-0.46249,-0.21624 0.41567,0.7764 0.53069,0.92541c0.47461,0.61488 0.65159,1.5378 1.20537,1.90698c0.18946,0.16908 0.36437,0.35286 0.52783,0.54833c0.49502,-0.65949 1.05458,-1.22321 1.44783,-2.00971c0.39517,-0.14443 0.0596,-2.19751 0.01622,-2.82808c-0.36493,0.0613 -0.76704,0.11408 -0.9952,0.14563c-0.95092,0.13149 -1.8464,0.42069 -2.72091,0.78614c0.03272,0.05389 0.05068,0.08779 0.05068,0.08779zM230.25231,107.26612c0.24027,0.25912 0.52422,0.48029 0.82273,0.68863l0.18787,-0.28181c0.57656,-1.06437 0.6263,-2.81279 0.6263,-3.89987c0.00785,-0.43117 -0.0051,-0.88435 0.05382,-1.25373c-0.00283,0.00188 -0.00563,0.00375 -0.00838,0.00558c-0.36639,0.24517 -0.8915,0.38323 -1.30827,0.52215c-1.01896,0.33965 -1.71749,0.76365 -2.40942,0.85736c0.60357,1.17626 1.15835,2.41588 2.03535,3.36168zM233.24753,109.87516c0.23508,0.47047 0.38682,0.96018 0.50687,1.45662c0.39628,-1.03082 1.24932,-2.57 1.91534,-3.23673c-0.35023,0.03729 -0.73401,0.07652 -0.94512,0.16134c-0.94115,0.37812 -1.47416,0.78186 -1.99794,0.91149c0.20708,0.20712 0.38625,0.43809 0.52085,0.70728zM234.72487,114.74205c0.58667,1.07414 1.1941,2.03947 1.6965,3.10739c0.2468,-0.7886 0.69954,-1.95073 0.74432,-2.25248c0.02279,-0.1536 0.05979,-1.14803 0.13688,-1.95641c-1.0096,0.36498 -2.17122,0.59764 -2.93554,0.28234c0.0964,0.2789 0.21234,0.55276 0.35784,0.81915zM242.79063,122.25132c-0.18357,-1.91448 0.53546,-4.15858 0.86113,-6.03866l-0.00235,-0.00039l0.12297,-0.73784c0.0537,-0.36151 0.36537,-0.63886 0.74182,-0.63886c0.12592,0 0.24459,0.03103 0.34878,0.08586c-0.37044,-0.94522 -0.58654,-1.81775 0.41405,-2.79737c0.47064,-0.46078 1.72651,-0.15535 2.90608,0.16314c-0.79506,-0.69228 -1.79736,-1.66688 -1.58973,-2.36621c0.59116,-1.99114 2.32064,-1.89022 3.83541,-2.69373c0.69928,-0.34964 1.38483,-0.47755 2.08711,-0.75648c0.12855,-0.05106 0.34198,-0.23977 0.48736,-0.36033c-0.5346,-0.05746 -2.29032,-1.5069 -2.29999,-1.91458c-0.0543,-2.29039 1.44857,-1.59064 2.83096,-2.03129c-0.73292,-0.36484 -1.32656,-0.83335 -1.23068,-1.23549c0.6652,-2.79019 3.4281,-1.43854 5.19731,-2.48327c0.78841,-0.29565 1.951,0.58011 1.51334,1.38975c-1.3602,2.51625 -2.98679,4.87104 -4.26668,7.58541c-0.53098,1.06197 -1.53306,1.52701 -2.20299,2.44492c-0.7869,1.07816 -0.61013,2.74199 -1.03787,3.95074c-0.29939,0.84604 -1.12732,1.44122 -1.3656,2.25187c-0.91816,2.14238 -1.68802,4.5714 -3.72153,6.04739c-0.56905,0.41304 -1.18053,0.60554 -1.78465,0.85434l-0.12684,0.38053c-0.02594,0.19815 -0.13397,0.42157 -0.45244,0.55109c-0.01864,0.00787 -0.03767,0.015 -0.05704,0.02137c-0.39224,0.13463 -0.64348,-0.03521 -0.78594,-0.20326c-2.68887,1.2263 -6.60884,-1.28239 -7.65993,-4.02223c-0.67934,-2.03801 -1.95114,-3.6836 -2.70931,-5.65176c-0.46797,-1.21483 -0.36102,-2.34776 -0.9375,-3.5c-0.1819,-0.3638 -0.45312,-0.69333 -0.77555,-1.00629c-0.18131,-0.06668 -0.32973,-0.20138 -0.41435,-0.37318c-1.08792,-0.91987 -2.507,-1.75254 -3.1851,-2.99554c-0.13636,-0.24996 -0.6711,-1.26605 -1.14368,-2.15318c-0.12719,-0.11466 -0.21493,-0.27225 -0.24038,-0.44994c-0.30288,-0.56491 -0.537,-0.99225 -0.54864,-0.98325c-1.02138,-0.68092 -2.32096,-3.12617 -2.38894,-4.2926l0.0625,-0.4375c0,0 -0.18666,-0.0136 0.00507,-0.23523c-0.15491,-0.58287 0.43278,-0.84407 0.43278,-0.84407c1.05348,-0.46821 3.68526,-1.57934 4.71919,-1.36046c2.0944,0.44338 1.92479,3.51674 1.31873,5.13123c-0.27711,0.55423 -0.64802,1.00164 -1.01458,1.44698c0.24719,-0.0233 0.48211,-0.05483 0.66909,-0.1189c0.46375,-0.15893 2.09042,-1.20271 2.33184,-1.19382c0.47179,0.01737 0.93148,0.18964 1.36598,0.37431c0.81912,0.34813 0.26865,2.08114 0.28935,2.71852c0,1.17147 -0.12413,2.50651 -0.50062,3.69448c0.07106,-0.01794 0.1373,-0.03971 0.19602,-0.06734c1.43927,-0.67725 2.63482,-1.50458 3.89112,-0.17681c1.47284,1.55663 -2.53307,3.58534 -1.90922,4.86047c-0.01741,0.10445 -0.03535,0.26718 -0.05337,0.43949c0.46934,-0.14909 2.19261,-0.43656 2.66086,-0.6687l0.36631,-0.18316c0.10422,-0.05487 0.22294,-0.08593 0.34891,-0.08593c0.41421,0 0.75,0.33579 0.75,0.75c0,0.07754 -0.01177,0.15234 -0.03362,0.2227l-0.24524,0.85834l-0.08273,-0.02364c0.15188,0.96089 -0.04318,1.95682 -0.23308,3.15859c-0.10399,0.65812 -0.17739,0.98841 -0.56968,1.56503c-0.14072,0.20684 -0.42059,0.86791 -0.22086,0.71728c0.46652,-0.35183 0.58051,-0.79753 1.98771,-1.6968c3.20758,-2.00474 2.60333,3.95273 1.98401,5.81067l-0.01654,-0.16464c-0.03564,0.07169 -0.08809,0.14293 -0.16256,0.21083c0.43428,-0.06126 0.91618,-0.50894 1.24401,-0.74261zM244.79391,117.81061c-0.17162,0.73916 -0.34346,1.53224 -0.44871,2.30063c0.10564,0.12924 0.16901,0.29438 0.16901,0.47433c0,0.2297 -0.10326,0.43528 -0.26589,0.57286c-0.00581,0.14609 -0.00768,0.28973 -0.0051,0.43026c0.40622,-0.14838 0.79776,-0.30143 1.11566,-0.53345c0.40787,-0.29768 0.75676,-0.62875 1.0616,-0.98492c-0.28581,-0.33525 -0.57004,-1.04471 -0.6866,-1.20442c-0.28442,-0.3897 -0.63437,-0.73732 -0.93997,-1.05529zM247.66765,118.07444c0.40008,-0.84349 0.72401,-1.73185 1.09471,-2.59681c0.20921,-0.43291 0.3928,-0.8819 0.56319,-1.33922c-1.08874,-0.1037 -2.56244,-0.3238 -3.20575,-0.74539c0.02337,0.28285 0.03008,0.57838 0.01942,0.75505c-0.05096,0.84449 0.66505,1.49072 0.8023,2.3142c0.08531,0.58471 0.42215,1.0921 0.72614,1.61217zM250.11015,111.86134c0.29759,-0.86012 0.61975,-1.70531 1.04575,-2.48619c0.27621,-0.50631 0.68202,-0.88539 1.08844,-1.26022c-0.36621,0.12825 -0.75713,0.26016 -1.14471,0.45395c-0.6617,0.31907 -2.41462,1.20228 -2.98402,0.95353c0.07648,0.18616 0.15991,0.40279 0.21297,0.51771c0.12967,0.2809 0.22165,0.62123 0.47667,0.7964c0.54666,0.37551 0.9824,0.68758 1.30491,1.02481zM252.73351,103.86549c0.42657,0.41267 1.06178,1.11415 1.2947,1.71034c0.38848,-0.7671 0.75498,-1.54636 1.12994,-2.32301c-0.34423,0.08823 -0.68848,0.17982 -1.03176,0.29425c-0.37605,0.11791 -0.90981,0.27415 -1.39288,0.31841zM256.2654,101.07799c0.10674,-0.19377 0.2159,-0.38646 0.32799,-0.57783c0.06481,-0.11065 0.12926,-0.20861 0.19293,-0.29516c-0.88575,0.22866 -1.95509,0.44394 -2.63443,0.35962c0.06383,0.13676 0.09709,0.26823 0.07297,0.36493c-0.14465,0.58014 1.46694,-0.47378 2.04053,0.14844zM240.63921,119.08557c0,-0.05959 -0.00791,-0.38834 -0.01291,-0.72902c-0.03851,0.02195 -0.0692,0.03977 -0.08959,0.05252c-1.24054,0.75101 -2.36137,1.94805 -3.42519,1.21545c0.50389,1.06214 2.10645,2.2045 3.19168,2.84735c0.37663,-1.13095 0.336,-2.20136 0.336,-3.3863z" data-paper-data="{&quot;origPos&quot;:null}" fill="#969696" stroke="none" stroke-width="0.5"/><path d="M254.17602,100.94021c0.02411,-0.0967 -0.01017,-0.24238 -0.074,-0.37913c0.67934,0.08433 1.84584,-0.14368 2.73159,-0.37234c-0.06367,0.08655 -0.12589,0.19383 -0.1907,0.30447c-0.11209,0.19137 -0.22655,0.41434 -0.33329,0.60811c-0.57359,-0.62222 -2.27825,0.41903 -2.13361,-0.16111z" data-paper-data="{&quot;noHover&quot;:false,&quot;origItem&quot;:[&quot;Path&quot;,{&quot;applyMatrix&quot;:true,&quot;selected&quot;:true,&quot;segments&quot;:[[[256.2654,101.07799],[-0.57359,-0.62222],[0.10674,-0.19377],7],[[256.59339,100.50016],[-0.11209,0.19137],[0.06481,-0.11065],7],[[256.78632,100.20499],[-0.06367,0.08655],[-0.88575,0.22866],7],[[254.15189,100.56461],[0.67934,0.08433],[0.06383,0.13676],7],[[254.22487,100.92955],[0.02411,-0.0967],[-0.14465,0.58014],7]],&quot;closed&quot;:true}],&quot;origPos&quot;:null}" fill="#ffffff" stroke="none" stroke-width="0.5"/><path d="M254.13658,103.49813c0.34328,-0.11443 0.71345,-0.19166 1.05767,-0.27989c-0.37496,0.77664 -0.77403,1.64037 -1.16251,2.40747c-0.23292,-0.59619 -0.91721,-1.36817 -1.34378,-1.78084c0.48307,-0.04426 1.07257,-0.22883 1.44862,-0.34674z" data-paper-data="{&quot;noHover&quot;:false,&quot;origItem&quot;:[&quot;Path&quot;,{&quot;applyMatrix&quot;:true,&quot;selected&quot;:true,&quot;segments&quot;:[[[252.73351,103.86549],[0.48307,-0.04426],[0.42657,0.41267],7],[[254.0282,105.57584],[-0.23292,-0.59619],[0.38848,-0.7671],7],[[255.15815,103.25283],[-0.37496,0.77664],[-0.34423,0.08823],7],[[254.12638,103.54708],[0.34328,-0.11443],[-0.37605,0.11791],7]],&quot;closed&quot;:true}],&quot;origPos&quot;:null}" fill="#ffffff" stroke="none" stroke-width="0.5"/><path d="M248.76269,110.86279c-0.25501,-0.17517 -0.35442,-0.54036 -0.4841,-0.82126c-0.05305,-0.11492 -0.13528,-0.34396 -0.21176,-0.53012c0.5694,0.24875 2.39828,-0.66542 3.05998,-0.98448c0.38758,-0.19379 0.78834,-0.31735 1.15455,-0.44559c-0.40642,0.37484 -0.80691,0.76091 -1.08313,1.26723c-0.426,0.78088 -0.79236,1.70263 -1.08995,2.56275c-0.3225,-0.33723 -0.79893,-0.67301 -1.3456,-1.04852z" data-paper-data="{&quot;noHover&quot;:false,&quot;origItem&quot;:[&quot;Path&quot;,{&quot;applyMatrix&quot;:true,&quot;selected&quot;:true,&quot;segments&quot;:[[[250.11015,111.86134],[-0.3225,-0.33723],[0.29759,-0.86012],7],[[251.15589,109.37516],[-0.426,0.78088],[0.27621,-0.50631],7],[[252.24433,108.11493],[-0.40642,0.37484],[-0.36621,0.12825],7],[[251.09962,108.56889],[0.38758,-0.19379],[-0.6617,0.31907],7],[[248.11561,109.52241],[0.5694,0.24875],[0.07648,0.18616],7],[[248.32857,110.04013],[-0.05305,-0.11492],[0.12967,0.2809],7],[[248.80524,110.83653],[-0.25501,-0.17517],[0.54666,0.37551],7]],&quot;closed&quot;:true}],&quot;origPos&quot;:null}" fill="#ffffff" stroke="none" stroke-width="0.5"/><path d="M246.90494,116.49637c-0.13725,-0.82348 -0.85202,-1.5392 -0.80106,-2.38368c0.01066,-0.17667 0.01103,-0.47807 -0.01234,-0.76092c0.64331,0.42159 2.1807,0.64768 3.26944,0.75137c-0.17039,0.45732 -0.34086,0.92962 -0.55008,1.36253c-0.3707,0.86496 -0.74435,1.81526 -1.14443,2.65875c-0.30399,-0.52007 -0.67622,-1.04334 -0.76153,-1.62805z" data-paper-data="{&quot;noHover&quot;:false,&quot;origItem&quot;:[&quot;Path&quot;,{&quot;applyMatrix&quot;:true,&quot;selected&quot;:true,&quot;segments&quot;:[[[247.66765,118.07444],[-0.30399,-0.52007],[0.40008,-0.84349],7],[[248.76236,115.47763],[-0.3707,0.86496],[0.20921,-0.43291],7],[[249.32554,114.13841],[-0.17039,0.45732],[-1.08874,-0.1037],7],[[246.11979,113.39302],[0.64331,0.42159],[0.02337,0.28285],7],[[246.13921,114.14807],[0.01066,-0.17667],[-0.05096,0.84449],7],[[246.94151,116.46227],[-0.13725,-0.82348],[0.08531,0.58471],7]],&quot;closed&quot;:true}],&quot;origPos&quot;:null}" fill="#ffffff" stroke="none" stroke-width="0.5"/><path d="M245.75563,118.82087c0.11656,0.1597 0.42638,0.9303 0.71219,1.26555c-0.30484,0.35617 -0.70005,0.72112 -1.10792,1.0188c-0.3179,0.23202 -0.73542,0.37841 -1.14163,0.52678c-0.00259,-0.14053 -0.00556,-0.28735 0.00025,-0.43344c0.16263,-0.13758 0.2618,-0.34655 0.2618,-0.57625c0,-0.17994 -0.07561,-0.36258 -0.18125,-0.49182c0.10525,-0.76839 0.30955,-1.62882 0.48117,-2.36798c0.3056,0.31796 0.69097,0.66865 0.97539,1.05835z" data-paper-data="{&quot;noHover&quot;:false,&quot;origItem&quot;:[&quot;Path&quot;,{&quot;applyMatrix&quot;:true,&quot;selected&quot;:true,&quot;segments&quot;:[[[244.79391,117.81061],[0.3056,0.31796],[-0.17162,0.73916],7],[[244.3452,120.11124],[0.10525,-0.76839],[0.10564,0.12924],7],[[244.51421,120.58557],[0,-0.17994],[0,0.2297],7],[[244.24832,121.15842],[0.16263,-0.13758],[-0.00581,0.14609],7],[[244.24323,121.58868],[-0.00259,-0.14053],[0.40622,-0.14838],7],[[245.35888,121.05524],[-0.3179,0.23202],[0.40787,-0.29768],7],[[246.42048,120.07031],[-0.30484,0.35617],[-0.28581,-0.33525],7],[[245.73388,118.8659],[0.11656,0.1597],[-0.28442,-0.3897],7]],&quot;closed&quot;:true}],&quot;origPos&quot;:null}" fill="#ffffff" stroke="none" stroke-width="0.5"/><path d="M240.33171,122.51295c-1.08524,-0.64285 -2.76193,-1.84671 -3.26582,-2.90886c1.06382,0.73259 2.26218,-0.48252 3.50272,-1.23354c0.02039,-0.01275 0.05159,-0.03015 0.0901,-0.0521c0.005,0.34068 0.02044,0.67742 0.02044,0.73702c0,1.18494 0.02919,2.32652 -0.34744,3.45748z" data-paper-data="{&quot;noHover&quot;:false,&quot;origItem&quot;:[&quot;Path&quot;,{&quot;applyMatrix&quot;:true,&quot;selected&quot;:true,&quot;segments&quot;:[[[240.63921,119.08557],[0,1.18494],[0,-0.05959],7],[[240.62631,118.35655],[0.005,0.34068],[-0.03851,0.02195],7],[[240.53671,118.40907],[0.02039,-0.01275],[-1.24054,0.75101],7],[[237.11153,119.62452],[1.06382,0.73259],[0.50389,1.06214],7],[[240.30321,122.47187],[-1.08524,-0.64285],[0.37663,-1.13095],7]],&quot;closed&quot;:true}],&quot;origPos&quot;:null}" fill="#ffffff" stroke="none" stroke-width="0.5"/><path d="M234.33566,113.88395c0.76432,0.3153 1.98591,0.08057 2.99551,-0.28441c-0.07709,0.80838 -0.093,1.83829 -0.11579,1.99189c-0.04477,0.30175 -0.53379,1.51757 -0.78059,2.30617c-0.5024,-1.06792 -1.16035,-2.11494 -1.74703,-3.18908c-0.1455,-0.2664 -0.25571,-0.54567 -0.35211,-0.82457z" data-paper-data="{&quot;noHover&quot;:false,&quot;origItem&quot;:[&quot;Path&quot;,{&quot;applyMatrix&quot;:true,&quot;selected&quot;:true,&quot;segments&quot;:[[[234.72487,114.74205],[-0.1455,-0.2664],[0.58667,1.07414],7],[[236.42137,117.84944],[-0.5024,-1.06792],[0.2468,-0.7886],7],[[237.16569,115.59696],[-0.04477,0.30175],[0.02279,-0.1536],7],[[237.30257,113.64056],[-0.07709,0.80838],[-1.0096,0.36498],7],[[234.36703,113.92289],[0.76432,0.3153],[0.0964,0.2789],7]],&quot;closed&quot;:true}],&quot;origPos&quot;:null}" fill="#ffffff" stroke="none" stroke-width="0.5"/><path d="M232.67981,109.15049c0.52378,-0.12963 1.12066,-0.56301 2.06181,-0.94113c0.21112,-0.08482 0.61154,-0.11402 0.96177,-0.15131c-0.66602,0.66673 -1.56593,2.29112 -1.9622,3.32194c-0.12006,-0.49644 -0.30786,-1.02598 -0.54294,-1.49645c-0.1346,-0.26919 -0.31136,-0.52593 -0.51844,-0.73305z" data-paper-data="{&quot;noHover&quot;:false,&quot;origItem&quot;:[&quot;Path&quot;,{&quot;applyMatrix&quot;:true,&quot;selected&quot;:true,&quot;segments&quot;:[[[233.24753,109.87516],[-0.1346,-0.26919],[0.23508,0.47047],7],[[233.75441,111.33177],[-0.12006,-0.49644],[0.39628,-1.03082],7],[[235.66975,108.09505],[-0.66602,0.66673],[-0.35023,0.03729],7],[[234.72462,108.25639],[0.21112,-0.08482],[-0.94115,0.37812],7],[[232.72669,109.16788],[0.52378,-0.12963],[0.20708,0.20712],7]],&quot;closed&quot;:true}],&quot;origPos&quot;:null}" fill="#ffffff" stroke="none" stroke-width="0.5"/><path d="M228.17629,103.87535c0.69193,-0.09371 1.44324,-0.53714 2.4622,-0.87679c0.41677,-0.13892 0.958,-0.26975 1.32439,-0.51491c0.00275,-0.00184 0.00559,-0.00367 0.00842,-0.00555c-0.05892,0.36938 -0.03537,0.83234 -0.04322,1.26351c0,1.08708 -0.06677,2.91193 -0.64333,3.9763l-0.19252,0.28379c-0.29851,-0.20834 -0.59542,-0.42664 -0.83569,-0.68576c-0.877,-0.9458 -1.47667,-2.26433 -2.08024,-3.44059z" data-paper-data="{&quot;noHover&quot;:false,&quot;origItem&quot;:[&quot;Path&quot;,{&quot;applyMatrix&quot;:true,&quot;selected&quot;:true,&quot;segments&quot;:[[[230.25231,107.26612],[-0.877,-0.9458],[0.24027,0.25912],7],[[231.07504,107.95475],[-0.29851,-0.20834],[0,0],7],[[231.26291,107.67294],[0,0],[0.57656,-1.06437],7],[[231.88921,103.77307],[0,1.08708],[0.00785,-0.43117],7],[[231.94303,102.51934],[-0.05892,0.36938],[-0.00283,0.00188],7],[[231.93465,102.52493],[0.00275,-0.00184],[-0.36639,0.24517],7],[[230.62638,103.04708],[0.41677,-0.13892],[-1.01896,0.33965],7],[[228.21696,103.90444],[0.69193,-0.09371],[0.60357,1.17626],7]],&quot;closed&quot;:true}],&quot;origPos&quot;:null}" fill="#ffffff" stroke="none" stroke-width="0.5"/><path d="M224.66685,97.94775c0.87451,-0.36545 1.82663,-0.67039 2.77755,-0.80188c0.22816,-0.03155 0.6431,-0.07726 1.00802,-0.13856c0.04339,0.63057 0.39743,2.73434 0.00227,2.87877c-0.39325,0.7865 -0.99385,1.38869 -1.48887,2.04818c-0.16346,-0.19547 -0.35006,-0.3788 -0.53953,-0.54788c-0.55378,-0.36919 -0.77679,-1.34329 -1.25141,-1.95817c-0.11502,-0.14901 -0.98773,-1.16304 -0.52524,-0.9468l0.06738,-0.44523c0,0 -0.01745,-0.03454 -0.05018,-0.08843z" data-paper-data="{&quot;noHover&quot;:false,&quot;origItem&quot;:[&quot;Path&quot;,{&quot;applyMatrix&quot;:true,&quot;selected&quot;:true,&quot;segments&quot;:[[[224.75668,98.06663],[0,0],[0,0],7],[[224.69418,98.50413],[0,0],[-0.46249,-0.21624],7],[[225.22487,99.42955],[-0.11502,-0.14901],[0.47461,0.61488],7],[[226.43024,101.33653],[-0.55378,-0.36919],[0.18946,0.16908],7],[[226.95806,101.88486],[-0.16346,-0.19547],[0.49502,-0.65949],7],[[228.40589,99.87516],[-0.39325,0.7865],[0.39517,-0.14443],7],[[228.42211,97.04707],[0.04339,0.63057],[-0.36493,0.0613],7],[[227.42691,97.19271],[0.22816,-0.03155],[-0.95092,0.13149],7],[[224.706,97.97884],[0.87451,-0.36545],[0.03272,0.05389],7]],&quot;closed&quot;:true}],&quot;origPos&quot;:null}" fill="#ffffff" stroke="none" stroke-width="0.5"/><path d="M250.07019,160.62854c0,-10.85742 -3.86663,-19.65909 -8.63636,-19.65909c-4.76973,0 -8.63636,8.80167 -8.63636,19.65909c0,10.85742 3.86663,19.65909 8.63636,19.65909c4.76973,0 8.63636,-8.80167 8.63636,-19.65909z" data-paper-data="{&quot;origPos&quot;:null}" fill="#115711" stroke="#082908" stroke-width="2.5"/><path d="M241.32019,160.74217c-4.83249,0 -8.75,-8.54729 -8.75,-19.09091c0,-9.0394 2.87945,-16.61145 6.74629,-18.58802c0.14021,0.05628 0.28461,0.10433 0.43259,0.14356c1.25147,1.3987 3.09941,1.4094 4.81035,0.70443c3.22893,2.80909 5.51077,9.69316 5.51077,17.74003c0,10.54362 -3.91751,19.09091 -8.75,19.09091z" data-paper-data="{&quot;origPos&quot;:null}" fill="#115711" stroke="#082908" stroke-width="2.5"/><path d="M215.75201,116.31035c0,-7.07813 3.00993,-13.45325 7.81967,-17.91523c0.73381,0.63044 1.50446,1.2525 2.27631,1.8607c0.00107,0.40373 0.0032,0.67916 -0.00265,0.75434c-0.12328,1.58473 1.9593,4.0694 2.58889,5.33865c1.4085,2.83958 3.53384,5.09898 4.96723,7.93689c0.93308,1.84737 1.50379,4.90789 2.88461,6.36671c0.47478,0.5016 1.26703,1.31336 2.14164,1.90308c0.38757,0.29823 0.83508,0.52239 1.32136,0.6513c1.97472,2.20703 5.43456,0.95819 7.49787,-1.10512c3.40574,-3.40574 5.88991,-11.16016 7.60903,-15.5868c0.58056,-1.49492 3.23648,-3.20613 3.26014,-5.02037c0.30663,-0.24357 0.61007,-0.49087 0.90809,-0.74009c3.49279,4.22544 5.59146,9.64561 5.59146,15.55594c0,13.49332 -10.9385,24.43182 -24.43182,24.43182c-13.49332,0 -24.43182,-10.9385 -24.43182,-24.43182z" data-paper-data="{&quot;origPos&quot;:null}" fill="#ff0000" stroke="#970000" stroke-width="2.5"/><path d="M219.76421,119.89807c0,-2.93401 2.37849,-5.3125 5.3125,-5.3125c2.93401,0 5.3125,2.37849 5.3125,5.3125c0,2.93401 -2.37849,5.3125 -5.3125,5.3125c-2.93401,0 -5.3125,-2.37849 -5.3125,-5.3125z" data-paper-data="{&quot;origPos&quot;:null}" fill="#ffffff" stroke="#969696" stroke-width="1.5"/><path d="M253.51421,116.96057c0,-2.34721 1.90279,-4.25 4.25,-4.25c2.34721,0 4.25,1.90279 4.25,4.25c0,2.34721 -1.90279,4.25 -4.25,4.25c-2.34721,0 -4.25,-1.90279 -4.25,-4.25z" data-paper-data="{&quot;origPos&quot;:null}" fill="#ffffff" stroke="#969696" stroke-width="1.5"/><path d="M236.63921,132.52307c0,-2.72691 2.21059,-4.9375 4.9375,-4.9375c2.72691,0 4.9375,2.21059 4.9375,4.9375c0,2.72691 -2.21059,4.9375 -4.9375,4.9375c-2.72691,0 -4.9375,-2.21059 -4.9375,-4.9375z" data-paper-data="{&quot;origPos&quot;:null}" fill="#ffffff" stroke="#969696" stroke-width="1.5"/></g></g></svg>