<svg version="1.1" xmlns="http://www.w3.org/2000/svg" xmlns:xlink="http://www.w3.org/1999/xlink" width="220.83333" height="183.70833" viewBox="0,0,220.83333,183.70833"><g transform="translate(-112.82143,-164.625)"><g data-paper-data="{&quot;isPaintingLayer&quot;:true}" fill-rule="nonzero" stroke-linejoin="miter" stroke-miterlimit="10" stroke-dasharray="" stroke-dashoffset="0" style="mix-blend-mode: normal"><path d="M115.32143,345.83333v-105h215.83333v105z" data-paper-data="{&quot;origPos&quot;:null}" fill="#594122" stroke="#4b1e0c" stroke-width="5" stroke-linecap="butt"/><path d="M156,250c-7.73199,0 -14,-7.61116 -14,-17c0,-9.38884 6.26801,-17 14,-17c7.73199,0 14,7.61116 14,17c0,9.38884 -6.26801,17 -14,17z" fill="none" stroke="#bdbdbd" stroke-width="5" stroke-linecap="butt"/><path d="M169.98809,232.125c-7.27175,0 -13.16667,-7.23807 -13.16667,-16.16667c0,-8.92861 5.89492,-16.16667 13.16667,-16.16667c7.27175,0 13.16667,7.23807 13.16667,16.16667c0,8.92861 -5.89492,16.16667 -13.16667,16.16667z" fill="none" stroke="#bdbdbd" stroke-width="5" stroke-linecap="butt"/><path d="M182.32143,214.45834c-7.27175,0 -13.16667,-7.23807 -13.16667,-16.16667c0,-8.92861 5.89492,-16.16667 13.16667,-16.16667c7.27175,0 13.16667,7.23807 13.16667,16.16667c0,8.92861 -5.89492,16.16667 -13.16667,16.16667z" data-paper-data="{&quot;origPos&quot;:null}" fill="none" stroke="#bdbdbd" stroke-width="5" stroke-linecap="butt"/><path d="M196.65477,200.45834c-8.19222,0 -14.83333,-7.46192 -14.83333,-16.66667c0,-9.20475 6.64111,-16.66667 14.83333,-16.66667c8.19222,0 14.83333,7.46192 14.83333,16.66667c0,9.20475 -6.64111,16.66667 -14.83333,16.66667z" data-paper-data="{&quot;origPos&quot;:null}" fill="none" stroke="#bdbdbd" stroke-width="5" stroke-linecap="butt"/><path d="M272.15476,235c0,-9.38884 6.26801,-17 14,-17c7.73199,0 14,7.61116 14,17c0,9.38884 -6.26801,17 -14,17c-7.73199,0 -14,-7.61116 -14,-17z" data-paper-data="{&quot;index&quot;:null,&quot;origPos&quot;:null}" fill="none" stroke="#bdbdbd" stroke-width="5" stroke-linecap="butt"/><path d="M259,217.95834c0,-8.92861 5.89491,-16.16667 13.16666,-16.16667c7.27175,0 13.16666,7.23807 13.16666,16.16667c0,8.92861 -5.89491,16.16666 -13.16666,16.16666c-7.27175,0 -13.16666,-7.23806 -13.16666,-16.16666z" data-paper-data="{&quot;index&quot;:null,&quot;origPos&quot;:null}" fill="none" stroke="#bdbdbd" stroke-width="5" stroke-linecap="butt"/><path d="M246.66667,200.29167c0,-8.92861 5.89492,-16.16666 13.16666,-16.16666c7.27175,0 13.16667,7.23806 13.16667,16.16666c0,8.92861 -5.89492,16.16667 -13.16667,16.16667c-7.27175,0 -13.16666,-7.23807 -13.16666,-16.16667z" data-paper-data="{&quot;origPos&quot;:null,&quot;index&quot;:null}" fill="none" stroke="#bdbdbd" stroke-width="5" stroke-linecap="butt"/><path d="M230.66667,185.79167c0,-9.20475 6.64111,-16.66666 14.83333,-16.66666c8.19223,0 14.83333,7.46192 14.83333,16.66666c0,9.20475 -6.6411,16.66667 -14.83333,16.66667c-8.19223,0 -14.83333,-7.46193 -14.83333,-16.66667z" data-paper-data="{&quot;origPos&quot;:null,&quot;index&quot;:null}" fill="none" stroke="#bdbdbd" stroke-width="5" stroke-linecap="butt"/><path d="M156.4881,230.79167l11.66667,-12.66667" fill="none" stroke="#bdbdbd" stroke-width="5" stroke-linecap="round"/><path d="M172.82143,213.45833l9.66667,-12" fill="none" stroke="#bdbdbd" stroke-width="5" stroke-linecap="round"/><path d="M185.15476,196.45833l8.33333,-12.33333" fill="none" stroke="#bdbdbd" stroke-width="5" stroke-linecap="round"/><path d="M257.4881,200.125l-12,-15.66667" fill="none" stroke="#bdbdbd" stroke-width="5" stroke-linecap="round"/><path d="M286.82143,232.79167l-15.66667,-18l-10.33333,-12.66667" fill="none" stroke="#bdbdbd" stroke-width="5" stroke-linecap="round"/><text transform="translate(124.86111,272.1978) scale(0.70368,0.70368)" font-size="40" xml:space="preserve" data-paper-data="{&quot;origPos&quot;:null}" fill="#22190d" fill-rule="nonzero" stroke="none" stroke-width="1" stroke-linecap="butt" stroke-linejoin="miter" stroke-miterlimit="10" stroke-dasharray="" stroke-dashoffset="0" font-family="Handwriting" font-weight="normal" text-anchor="start" style="mix-blend-mode: normal"><tspan x="0" dy="0">PIECES :</tspan></text><text transform="translate(123.19444,304.28113) scale(0.70368,0.70368)" font-size="40" xml:space="preserve" data-paper-data="{&quot;origPos&quot;:null}" fill="#22190d" fill-rule="nonzero" stroke="none" stroke-width="1" stroke-linecap="butt" stroke-linejoin="miter" stroke-miterlimit="10" stroke-dasharray="" stroke-dashoffset="0" font-family="Handwriting" font-weight="normal" text-anchor="start" style="mix-blend-mode: normal"><tspan x="0" dy="0">SCORE :</tspan></text><text transform="translate(120.19924,333.00023) scale(0.70368,0.70368)" font-size="40" xml:space="preserve" fill="#22190d" fill-rule="nonzero" stroke="none" stroke-width="1" stroke-linecap="butt" stroke-linejoin="miter" stroke-miterlimit="10" stroke-dasharray="" stroke-dashoffset="0" font-family="Handwriting" font-weight="normal" text-anchor="start" style="mix-blend-mode: normal"><tspan x="0" dy="0">SUCCÈS :</tspan></text></g></g></svg>