<svg version="1.1" xmlns="http://www.w3.org/2000/svg" xmlns:xlink="http://www.w3.org/1999/xlink" width="127.58374" height="138.65998"><g transform="translate(-172.01282,-111.70714)"><g data-paper-data="{&quot;isPaintingLayer&quot;:true}" fill="none" fill-rule="nonzero" stroke="none" stroke-width="0.5" stroke-linecap="butt" stroke-linejoin="miter" stroke-miterlimit="10" stroke-dasharray="" stroke-dashoffset="0" font-family="none" font-weight="none" font-size="none" text-anchor="none" style="mix-blend-mode: normal"><path d="M222.77778,158.53319l0.03517,-0.18012c-0.53345,-3.73414 -0.69814,-8.04123 0.27377,-11.7065c-2.3818,0.67623 -4.77325,1.27674 -7.20034,1.49264c0.06255,0.1703 0.11257,0.34666 0.14895,0.52794c0.08131,0.36555 0.16238,0.72739 0.24151,1.08685l0.25638,1.15372l-0.0093,0.00207c0.34592,1.68583 0.60802,3.35112 0.60802,5.13916l-0.0261,1.36385c0,0 0.00756,0.06237 0.01243,0.17161c1.90214,0.44328 3.79931,0.89968 5.68565,1.3776c-0.02994,-0.26223 -0.02615,-0.42882 -0.02615,-0.42882zM230.07966,148.31185c-0.78942,2.76299 -0.5699,6.11718 -0.15448,9.02518l0.03517,1.35939c0,0 -0.02438,1.07269 -0.63275,2.03224c0.38092,0.11085 0.7611,0.22301 1.14047,0.33658c0.0673,-0.00689 0.13462,-0.0137 0.20196,-0.02043c0.38796,-0.2814 0.88511,-0.5043 1.52073,-0.62933c0.60969,-0.11994 1.13348,-0.11899 1.58284,-0.03538c-0.13478,-2.39687 0.00859,-4.83464 0.00859,-7.2166l0.00287,-0.75448c0,0 -0.00805,-0.20108 0.02727,-0.50997c0.0283,-0.30961 0.07711,-0.50484 0.07711,-0.50484c0.60555,-2.42218 0.69907,-4.90888 1.29079,-7.40237c-0.01142,-0.07531 -0.02101,-0.1526 -0.02869,-0.2319c-0.7225,0.19472 -1.38269,0.37598 -1.81838,0.42303c-1.3253,0.14311 -2.64225,0.39729 -3.95517,0.711c1.28048,1.392 0.70165,3.41788 0.70165,3.41788zM209.52043,152.46611l-0.00054,0.00012l-0.47484,-2.13676l-0.49884,-0.14252l0.25398,-0.88894c-0.12423,0.028 -0.24906,0.05751 -0.37462,0.08895c-4.00806,1.00366 -8.01381,2.00326 -12.01878,3.00992c3.73019,1.2851 7.68525,2.26345 11.43758,3.0973c0.70043,0.15565 1.40147,0.31123 2.10284,0.46716c-0.00843,-1.19876 -0.18878,-2.34309 -0.42678,-3.49522zM264.71886,153.95676c-0.08553,0.29935 -0.05232,0.6631 -0.25658,0.89805c-0.10203,0.11737 -0.13473,-0.60175 -0.1362,-0.44624c-0.0053,0.56095 0.06918,1.11831 0.14533,1.67558c1.44451,-0.28931 2.89546,-0.55061 4.3804,-0.66872c3.17208,-0.21147 6.16859,-1.14725 9.18541,-2.00683c-1.52137,-0.21981 -3.30921,-0.16454 -4.68833,-0.26707c-2.65633,-0.19749 -5.39921,-0.49542 -8.10499,-0.92732zM257.81086,151.98305l0.40513,-1.01728c0,0 0.00967,-0.07413 0.03691,-0.1996c-1.22995,-0.27036 -2.47424,-0.49277 -3.71885,-0.71331c-0.40828,2.69403 -1.0315,5.26274 -1.79556,7.85079c0.60258,-0.15896 1.21034,-0.29888 1.82504,-0.41292c1.4414,-0.26743 2.03139,-0.2574 2.82545,-0.28548c-0.15465,-1.82267 -0.10831,-3.36654 0.42188,-5.2222zM244.5893,160.54854c-0.00172,-0.04566 -0.00259,-0.09154 -0.00259,-0.13762v-3.33563h0.89696c0.89148,-2.85138 1.60966,-5.61964 2.02142,-8.60683c-1.39295,-0.50769 -2.91046,-1.26133 -4.29334,-1.59134c-0.39039,-0.09316 -0.82374,-0.13137 -1.27537,-0.13893c-0.38011,1.99367 -0.51113,3.92499 -0.97107,5.95362l0.0013,0.47169c0,1.97949 -0.15579,4.03463 -0.08996,6.02001c1.61683,0.05572 2.46766,0.86422 2.91541,1.69973c0.26674,-0.07933 0.53274,-0.16177 0.79815,-0.24669c-0.00061,-0.02961 -0.00091,-0.05896 -0.00092,-0.08802zM245.87761,180.95548l0.02815,-1.03883c0.33518,-2.34621 0.77719,-4.72542 1.03014,-7.10793c-0.81201,-0.28748 -1.6275,-0.56205 -2.45253,-0.80456c0.00778,1.72745 -0.03658,3.44602 -0.19394,5.13736c-0.17253,1.85434 -0.71844,3.5461 -0.71844,5.38832l-0.36402,1.26322c0,0 -0.02093,0.40458 -0.18459,0.93497c0.26322,0.12464 0.52936,0.25442 0.79966,0.38897c0.45931,-0.48972 0.91021,-0.93965 1.33992,-1.26562c0.38013,-0.28835 0.7707,-0.55544 1.16867,-0.8076c-0.52474,-1.01224 -0.45301,-2.08831 -0.45301,-2.08831zM228.81831,181.91754c-0.05517,0.82617 -0.27511,1.61588 -0.71162,2.24339c1.25554,-0.22735 2.51598,-0.43101 3.77525,-0.66471c-0.56755,-3.03656 -0.94599,-6.13424 -1.67567,-9.16604c-0.32711,0.09074 -0.6554,0.17944 -0.98438,0.26739c-0.16797,2.40114 -0.23584,4.80833 -0.40357,7.31996zM221.63388,181.91754c-0.10536,-1.64746 -0.08213,-3.26428 0.02377,-4.86562c-0.97827,0.40346 -1.95648,0.82167 -2.93367,1.24956c0.04033,1.17287 0.04387,2.35662 -0.01004,3.55888c1.03533,0.39853 2.07137,0.79415 3.11005,1.18067c-0.10364,-0.3579 -0.16538,-0.7367 -0.19011,-1.12348zM207.20532,163.66757c0.0481,0.27606 0.10897,0.57099 0.17991,0.88177c1.08933,-0.16249 2.17976,-0.31854 3.27209,-0.47498c0.00891,-0.19561 0.02054,-0.39145 0.03513,-0.58755c-1.20595,-0.26938 -2.41313,-0.53678 -3.62082,-0.8048c0.04076,0.36153 0.08307,0.69504 0.13369,0.98556zM249.86225,137.5692c0.39711,1.79384 -0.32636,2.8733 -1.12803,3.49989c0.04043,0.01336 0.08088,0.02684 0.12132,0.04045c0.93392,0.31412 1.74019,0.97672 2.6981,1.20754c3.05458,0.73604 6.446,0.96205 9.59237,1.74863c5.33088,1.33272 10.86364,1.26507 16.22272,2.20764c1.6264,0.28606 5.43268,1.15717 5.8064,1.05281c1.56265,-0.43635 3.82454,0.67068 5.1987,1.27729c1.91451,0.95726 3.48287,1.45608 5.55113,1.97315l0.64671,0.36046c0.69415,0.08059 1.45424,0.371 2.06546,1.11287c0.49287,0.48318 0.89352,1.17013 0.92838,2.13456c0.13062,0.90172 -0.10381,1.61849 -0.46572,2.17008c1.62235,2.69529 -1.01711,4.64016 -1.01711,4.64016l-0.9379,0.09717c-1.16242,1.16242 -2.28539,2.40499 -3.62775,3.36705c-4.16113,2.98228 -8.7995,3.484 -11.54796,8.06476c0,0 -0.57657,0.96095 -1.62236,1.48736c-0.00021,0.37489 -0.13526,0.76147 -0.449,1.15364c-0.81467,1.01834 -1.16394,1.40751 -1.27835,1.49011c0,0.82081 0,1.64161 0,2.46243c0,4.49027 0,8.98053 0,13.4708c0,2.332 0.09224,4.61012 -0.1865,6.86355c0.31206,0.27165 0.59872,0.63342 0.83577,1.11113c2.05113,0.50172 2.51396,2.81591 2.51396,2.81591c0.8695,4.34752 3.03666,8.07098 4.2422,12.29038l0.29433,0.51453c0,0 1.19077,3.38911 -2.19834,4.57988c-3.38911,1.19077 -4.57988,-2.19834 -4.57988,-2.19834l-0.42411,-0.92235c-1.11586,-3.90552 -2.99755,-7.44441 -4.03822,-11.38935c-5.17218,1.90898 -10.52851,3.15782 -15.98506,4.06724c-2.54176,-0.0735 -5.777,2.28351 -7.96461,3.44146c-3.09558,1.63857 -6.51704,2.91825 -9.50936,4.68989c-1.25929,0.74559 -2.42394,1.54616 -3.61375,2.20823c0.03692,0.58506 -0.04823,1.01081 -0.04823,1.01081c-0.83145,4.15727 -2.40475,8.07231 -3.23299,12.21353l-0.79034,1.73124c0,0 -0.99884,3.45055 -4.44939,2.45171c-3.45055,-0.99884 -2.45171,-4.44939 -2.45171,-4.44939l0.64654,-1.14253c0.73958,-3.6979 2.06352,-7.18813 2.93314,-10.84732c-0.32055,-0.15613 -0.66957,-0.37321 -0.98222,-0.6712c-1.46316,-0.76021 -2.885,-1.58018 -4.34561,-2.34547c-0.08262,-0.04329 -2.01171,-0.98302 -2.34495,-1.41687c-0.06111,-0.07956 0.39177,0.03783 0.30093,-0.00473c-0.92133,-0.43171 -1.94179,-0.6239 -2.86755,-1.04602c-2.52923,-1.15326 -4.90465,-3.13837 -7.65723,-3.68889c-7.80943,-1.56189 -15.90202,-3.94217 -22.82451,-8.01272c-0.72227,-0.42471 -1.42201,-0.90609 -2.11561,-1.40417c-0.96305,3.27616 -1.83582,6.71406 -1.83582,10.02548l-0.43541,2.1728c0,0 -0.73592,3.51602 -4.25194,2.78011c-3.51602,-0.73592 -2.78011,-4.25194 -2.78011,-4.25194l0.28303,-0.70097c0,-5.03439 1.59066,-10.25981 3.02527,-15.04185c0,0 0.15786,-0.52621 0.5559,-1.10532c0.32266,-1.90561 2.34195,-2.66284 2.34195,-2.66284c0.10282,-0.03856 0.2057,-0.07695 0.30864,-0.11517c0.25027,-0.76505 0.66217,-1.27993 0.66217,-1.27993c2.15356,-2.69195 4.65409,-5.04438 7.09017,-7.48047c1.81764,-1.81764 3.60005,-3.94439 5.9358,-5.1187c0.24301,-0.12217 0.48769,-0.24204 0.73383,-0.35993c-1.68736,-0.70809 -3.2688,-1.51999 -4.78125,-2.55446c-1.2538,-0.85757 -2.5132,-1.74282 -3.56442,-2.83935c-0.32755,-0.34167 -0.60064,-0.89871 -0.44903,-1.34708c0.08052,-0.23811 0.16487,-0.47504 0.25288,-0.71074c-0.43722,-0.89004 -0.43722,-1.77229 -0.43722,-1.77229c0,-1.19741 0.22522,-2.41618 0,-3.59221c-0.0246,-0.12844 -0.20737,0.3571 -0.2943,0.25941c-0.55621,-0.62507 -0.74838,-1.49675 -1.12257,-2.24513c-0.79325,-1.58652 -1.68451,-3.69511 -2.24513,-5.38832c-0.82595,-2.49455 -0.94163,-5.01484 -1.91842,-7.4568l-0.55646,-1.6557c0,0 -1.02549,-3.44273 2.41724,-4.46822c1.74635,-0.52019 2.87072,0.10934 3.55477,0.85603l0.35451,-0.17725l0.08028,0.16056c4.90242,-1.78289 10.13419,-2.22655 15.19057,-3.61323c3.33722,-0.91521 6.67903,-2.05839 10.13405,-2.31489c3.53539,0 7.1835,-1.50637 10.53874,-2.50982c2.93479,-0.87771 5.76368,-1.17799 8.76941,-1.53142c1.82407,-0.21448 3.5137,-0.81645 5.38832,-0.89805c2.00786,0 4.12134,-0.52036 6.04847,-1.16274l0.80856,-0.09943c0,0 3.5073,-0.77643 4.28373,2.73087zM255.08015,176.44412c-0.00928,-0.12205 -0.01409,-0.24874 -0.01409,-0.38025c0,-0.21729 0.01314,-0.42143 0.03784,-0.61323c-0.40444,-0.11328 -0.81571,-0.22403 -1.24315,-0.33025c-0.11889,0.92352 -0.25287,1.84615 -0.39039,2.76768c0.53237,-0.48461 1.06871,-0.96599 1.60979,-1.44395zM191.9527,158.41821c1.22567,2.77025 2.88209,5.45506 3.59639,8.38236c0.50269,-0.07909 0.98839,-0.17069 1.43974,-0.28353c1.16248,-0.29062 2.32332,-0.54924 3.48351,-0.78414c-0.32955,-1.6132 -0.63266,-3.23694 -0.95504,-4.88141c-2.55869,-0.6986 -5.1132,-1.4966 -7.5646,-2.43329zM282.72611,160.34793c-0.65429,0.1667 -1.08669,0.84586 -1.72814,1.05664c-1.79964,0.59134 -3.35119,0.97689 -4.94531,1.54623c0.06511,0.88387 0.0864,1.76924 0.09279,2.66764c1.27534,-1.44929 2.76396,-2.72792 4.42534,-3.654c1.15987,-0.64653 2.40815,-1.18496 3.64799,-1.74293c-0.5052,-0.01349 -1.00595,0.00243 -1.49266,0.12643zM237.04264,172.04944c0.08544,0.34722 0.16525,0.69251 0.24053,1.03618c0.0053,-0.58532 0.00362,-1.1719 -0.00281,-1.75914c-0.11387,0.07934 -0.2285,0.15676 -0.34385,0.23233c0.03044,0.16491 0.0656,0.32851 0.10613,0.49063zM199.95103,173.19372c0.55496,0.02091 1.46084,0.46438 2.1769,0.87457c-0.01574,-0.44987 -0.03523,-0.89597 -0.07672,-1.32949c-0.70046,0.14217 -1.4005,0.29319 -2.10017,0.45493zM220.05199,169.97712c0.17596,-0.06781 0.35248,-0.13283 0.52944,-0.19557c-0.82641,0.15176 -1.65139,0.29338 -2.47505,0.42775c0.01502,0.17506 0.03028,0.34997 0.04573,0.52474c0.63336,-0.26006 1.26677,-0.51295 1.89988,-0.75693zM209.24509,171.51685c0.239,1.0182 0.43245,2.01634 0.53312,2.94156c0.53441,-0.24742 1.0699,-0.49512 1.60627,-0.74204c-0.07039,-0.82617 -0.16222,-1.64952 -0.25737,-2.47185c-0.62791,0.08973 -1.25523,0.18006 -1.88203,0.27233zM276.94083,176.00097l-0.32149,0.19289c0,0.11469 0,0.22937 0,0.34405c0.09857,-0.19598 0.32149,-0.53694 0.32149,-0.53694zM263.39115,183.59006c-2.48214,1.2162 -5.81311,1.33443 -7.77908,2.51401c-0.3499,0.20677 -0.71906,0.40058 -1.09837,0.5881c-0.63874,0.63673 -1.27374,1.27784 -1.90857,1.9204c1.58519,0.55362 3.16318,1.10803 4.6931,1.71784c1.3522,0.54088 2.88302,0.56433 4.32262,0.95895c2.67162,0.73235 5.30336,1.59822 7.83465,2.72553c-0.01116,-0.46839 -0.02059,-0.94347 -0.02059,-1.42686c0,-4.0635 0,-8.12699 0,-12.19049c-2.00717,1.1253 -4.03304,2.20729 -6.04377,3.19252zM230.2168,193.24414c-1.47706,-0.37773 -2.93769,-0.80264 -4.38674,-1.26118c-4.58547,1.39908 -8.91569,3.83809 -13.87056,3.83809c-6.76333,0 -13.36232,1.03946 -19.78133,2.85953c0.00805,0.00476 0.0161,0.0095 0.02415,0.01424c1.32912,0.78229 3.19818,1.303 4.61461,1.89282c5.10548,2.12599 9.91034,3.74296 15.30822,4.82253c3.62873,0.72575 6.64401,3.08295 9.94461,4.5732c1.62885,0.73543 3.2243,1.57835 4.82071,2.43982c0.95748,-1.38206 1.10945,-2.44232 2.0665,-4.19514c1.1382,-2.08457 2.84142,-3.96965 3.90608,-6.02973c0.30012,-0.58071 0.2256,-1.30702 0.51922,-1.89104c0.84336,-1.67747 2.02385,-3.16181 3.11919,-4.68342c-2.13957,-0.38188 -4.2251,-1.86482 -6.28467,-2.37971zM206.15367,184.86006c-0.33763,-0.11961 -0.67056,-0.23843 -0.99892,-0.361c-0.7801,0.35531 -1.56294,0.70343 -2.35136,1.03507c-1.31035,0.55117 -2.61084,0.78943 -3.75033,1.69114c-1.23074,0.97391 -2.45436,2.07468 -3.64493,3.24393c5.41615,-1.1822 10.94495,-1.83258 16.55137,-1.83258c1.12671,0 2.22018,-0.17593 3.29343,-0.45427c-3.01602,-1.14979 -6.03366,-2.30041 -9.09926,-3.32228zM199.53301,173.29164c0.03364,0.02584 0.06738,0.05156 0.10121,0.07714c-0.02874,-0.0372 -0.04142,-0.07018 -0.02833,-0.0944c-0.0243,0.00574 -0.04859,0.0115 -0.07289,0.01726zM245.72631,195.1026c-0.23383,0.1869 -0.41922,0.5476 -0.71844,0.53883c-0.04362,-0.00128 -0.05159,-0.03577 -0.03844,-0.08733c-0.14781,0.2622 -0.28557,0.53063 -0.43487,0.7919c-1.31384,2.1879 -3.30062,4.21174 -4.4253,6.48389c-0.61946,1.25148 -0.96571,2.63155 -1.63611,3.8565c-1.06744,1.95041 -2.74537,3.65646 -3.70783,5.71712c-0.12717,0.27228 -0.24637,0.54153 -0.36178,0.80795c1.02471,-0.5992 2.1262,-1.17251 2.53185,-1.38506c5.93816,-3.11134 12.40061,-7.22223 18.977,-8.59245c2.23839,-0.37307 4.37525,-1.29029 6.6365,-1.57983c0.97069,-0.12429 1.98981,0.16956 2.93459,-0.08554c0.09469,-0.02557 -0.23752,-0.19129 -0.15777,-0.24839c0.37073,-0.26544 0.82399,-0.39685 1.25727,-0.53883c0.08084,-0.02649 0.16142,-0.05272 0.24174,-0.07871c-2.52386,-1.18585 -5.25118,-2.18212 -7.95603,-2.76239c-1.43648,-0.30817 -2.85676,-0.38649 -4.2387,-0.93926c-2.53363,-1.01643 -5.08226,-1.97736 -7.62786,-2.95235c-0.41701,0.35656 -0.84164,0.7069 -1.27582,1.05395z" data-paper-data="{&quot;origPos&quot;:null}" fill="#9a9a9a"/><path d="M182.9027,215.4894c1.67685,0.18118 2.92293,1.57011 4.72178,3.93646c0.41867,0.55074 -0.06746,2.52362 -0.16439,3.20218c-1.41391,3.62041 -3.5288,6.08226 -7.78979,6.03495c-0.83432,-0.00926 -1.82591,0.33808 -2.49826,-0.15603c-1.49672,-1.09995 -2.94258,-2.30132 -4.173,-3.69277c-0.42841,-0.48448 0.04582,-2.88318 0.15603,-3.5246c0.81617,-4.74995 3.92362,-6.85233 8.56276,-6.18959c0,0 0.54906,0.07844 1.18487,0.38942z" data-paper-data="{&quot;origPos&quot;:null}" fill="#ff0000"/><path d="M219.06627,242.04497c0.35452,-1.24082 1.02744,-1.90853 1.74424,-2.25476c0.05004,-0.19506 0.11484,-0.37661 0.19799,-0.53957c0.11961,-0.23441 1.80952,-3.26624 2.82051,-3.89063c2.48108,-1.53232 7.05092,-3.01556 9.73037,-1.15722c2.17583,1.50905 3.27686,3.37837 3.47379,5.30971c0.22042,0.38517 0.17985,0.82603 -0.00047,1.29046c-0.20648,2.05276 -1.37868,4.10093 -3.31566,5.79344c-0.94736,0.67669 -2.5885,1.87293 -3.79524,1.68554c-0.40076,-0.06224 -0.79858,-0.14193 -1.19376,-0.23452c-0.99234,0.46244 -1.967,0.9259 -3.03991,1.26087c-0.29718,0.09278 -0.61063,0.37624 -0.89805,0.25658c-1.64253,-0.68379 -3.20171,-1.57831 -4.67451,-2.57648c-0.33397,-0.22634 -0.42765,-0.68423 -0.64147,-1.02635l2.05934,0.52378c0,0 -3.454,-0.98686 -2.46714,-4.44086z" data-paper-data="{&quot;origPos&quot;:null}" fill="#ff0000"/><path d="M276.77304,224.60493c-0.08287,-0.99855 -0.14585,-2.00324 -0.07912,-3.0019c0.29774,-4.45565 5.75827,-4.52566 8.81838,-4.48645c0.04362,0.00056 2.16195,-0.01933 2.56071,0.16439c1.20837,0.55674 2.41706,1.14199 3.50895,1.90216c2.05172,1.42841 1.64403,6.4988 1.42989,8.64481c-0.17282,1.73189 -0.74756,3.43836 -1.75399,4.84736c-1.14444,0.97521 -2.23742,2.2993 -3.71968,2.55166c-3.35419,0.57108 -5.90879,-0.04544 -8.66949,-2.16679c-2.28556,-1.75624 -2.6163,-5.33912 -2.09565,-8.45526z" data-paper-data="{&quot;origPos&quot;:null}" fill="#ff0000"/><path d="M242.71994,133.49409l0.08677,-0.34711l-0.01702,-0.35738l0.21131,-1.05653l0.06187,-0.13062l-0.03202,-0.11742l0.323,-0.53834v-0.62219l0.14005,-0.56021l0.04428,-0.57575l0.16768,-0.50304l0.07059,-0.28237v-1.24823l0.10726,-0.42902v-0.44222l0.21131,-0.84523l0.06628,-0.12428l0.01081,-0.14043l0.33349,-1.00045l0.16497,-0.98983l0.21396,-0.4921l0.11641,-0.52382l0.39236,-0.78471l0.12251,-0.73504l0.11361,-0.2613l0.02186,-0.28409l0.44958,-1.34874v-0.05098l0.20019,-0.80075l0.17905,-0.80574l0.04477,-0.08953l0.02502,-0.10009l0.03503,-0.02002l0.0456,-0.09119l0.05796,-0.23185l0.09192,-0.67409l0.42262,-1.05653l0.08924,-0.12357l0.03307,-0.1488l0.42262,-0.84523l1.20486,-1.40568l0.14163,-0.00787l0.07037,-0.12316l1.79611,-0.44903h0.18823l0.03357,-0.02238l0.10072,0.02238h0.10009l0.80075,0.20019l0.80574,0.17905l0.08953,0.04477l0.10009,0.02502l0.02002,0.03503l0.21298,0.10649l0.17235,0.14773l0.21377,0.07635l0.1162,0.07747l0.24158,0.0604l0.54242,0.2893l0.57894,0.20676l1.26784,0.84523l0.24068,0.26475l0.3068,0.18408l0.84523,0.84523l0.2971,0.49516l0.07946,0.0927l0.25737,0.25737l0.2971,0.49516l0.3758,0.43843l0.10649,0.21298l0.03503,0.02002l0.02502,0.10009l0.04477,0.08953l0.04146,0.18656l0.02687,0.04478l-0.00933,0.03418l0.04665,0.20991l0.31696,0.36979l0.11129,0.22258l0.29856,0.44784l0.19128,0.53558l0.86409,-1.55536l0.16989,-0.1816l0.0965,-0.22919l0.43957,-0.5861l0.27776,-0.55551l1.20486,-1.40568l0.14163,-0.00787l0.07037,-0.12316l1.79611,-0.44903h0.63392l1.79611,0.44903l0.07037,0.12316l0.14163,0.00787l1.20486,1.40568l0.21131,0.42262l0.05609,0.2524l0.13881,0.21813l0.38923,1.16769l0.32792,0.81979l0.25577,0.51155l0.29856,0.44784l0.04252,0.11907l0.08748,0.09129l0.84523,1.47914l0.11775,0.41867l0.21734,0.37672l0.37214,1.30248l0.23526,0.58816l0.74725,1.1956l0.48055,-0.18021l0.06779,-0.00774l0.05756,-0.03663l0.63392,-0.21131l0.57575,-0.04428l0.56021,-0.14005h0.26229l0.0809,-0.02696l0.14043,-0.01081l0.12428,-0.06628l1.55661,-0.38915l0.50304,-0.16768l0.57575,-0.04428l0.54176,-0.13544l0.20375,-0.10866l1.17187,-0.29297l0.59817,-0.35891l0.45204,-0.13757l0.40928,-0.23612l2.9583,-0.84523l1.85036,-0.06168l0.47785,0.46647l0.66676,0.03704l1.20486,1.40568l0.10649,0.21298l0.03503,0.02002l0.02502,0.10009l0.04477,0.08953l0.17905,0.80574l0.20019,0.80075v0.10009l0.02238,0.10072l-0.02238,0.03357v1.03346l-0.03505,0.14021l0.05443,0.10886l-0.27215,0.76202l-0.24265,0.97063l0.02395,0.29928l-0.21131,1.26784l-0.11361,0.2613l-0.02186,0.28409l-0.23827,0.71482v0.68491l-0.08677,0.34711l0.01702,0.35738l-0.21131,1.05653l-0.06351,0.13408l-0.00494,0.14828l-0.2844,0.9954v0.95296l0.02238,0.03357l-0.02238,0.10072v0.10009l-0.20019,0.80075l-0.17905,0.80574l-0.03496,0.06992l-0.00065,0.00262l0.01462,0.02193l-0.02238,0.10072v0.10009l-0.20019,0.80075l-0.16006,0.72029l-0.0354,0.46015l-0.02696,0.0809v0.05098l-0.12152,0.48608l-0.01669,0.50077l-0.40617,1.4216l-0.18533,0.74131l-0.41236,1.85563l-0.19777,0.39554l-0.09593,0.43169l-0.42262,0.84523l-0.4612,0.53807l-0.05387,0.26935l-0.38941,0.24781l-0.30038,0.35045l-0.27427,0.01524l-0.59789,0.38047l-0.63392,0.21131l-0.29243,0.02249l-0.13356,0.1195l-0.70997,-0.05462l-0.70997,0.05462l-0.13356,-0.1195l-0.29243,-0.02249l-0.71482,-0.23827h-0.66183l-0.03357,0.02238l-0.10072,-0.02238h-0.10009l-0.80075,-0.20019l-0.72029,-0.16006l-0.46015,-0.0354l-0.63392,-0.21131l-0.21813,-0.13881l-0.2524,-0.05609l-0.08953,-0.04477l-0.79519,-0.1988l-0.80574,-0.17905l-0.08953,-0.04477l-0.10009,-0.02502l-0.02002,-0.03503l-0.09119,-0.0456l-0.37258,-0.09315l-0.80574,-0.17905l-0.07197,-0.03599l-0.02249,0.01499l-0.10072,-0.02238h-0.10009l-0.80075,-0.20019l-0.80574,-0.17905l-0.06992,-0.03496l-0.03366,-0.00841h-0.19169l-0.42902,-0.10726h-0.44222l-1.60752,-0.40188l-0.62392,-0.12479h-1.33475l-0.56021,-0.14005l-0.57575,-0.04428l-0.0809,-0.02696h-0.26229l-0.42902,-0.10726h-0.44222l-0.7623,-0.19057l-0.62392,-0.12479h-0.04384l-0.03357,0.02238l-0.10072,-0.02238h-0.10009l-0.80075,-0.20019l-0.7023,-0.15607l-0.33179,-0.06636h-1.12345l-0.56021,-0.14005l-0.57575,-0.04428l-0.36654,-0.12218l-0.98983,-0.16497l-0.37359,-0.16243h-0.06931l-0.03357,0.02238l-0.10072,-0.02238h-0.10009l-0.80075,-0.20019l-0.80574,-0.17905l-0.08953,-0.04477l-0.10009,-0.02502l-0.02002,-0.03503l-0.20531,-0.10266l-0.58481,-0.11696l-0.43362,-0.2054l-0.46838,-0.10408l-0.19427,-0.09714l-0.39173,-0.13058l-0.04237,-0.02696h-0.51212l-0.56021,-0.14005l-0.57575,-0.04428l-0.0809,-0.02696h-0.05098l-0.14021,-0.03505l-0.10886,0.05443l-0.76202,-0.27215l-0.78501,-0.19625l-0.06039,-0.10568l-0.13611,-0.04861l-0.5628,-0.3752l-0.98323,-0.58994l-0.28666,-0.28666c-0.58915,-0.18516 -1.11287,-0.51803 -1.52775,-0.9552l-0.09185,-0.05845l-0.0109,-0.05451c-0.17477,-0.20048 -0.32764,-0.42054 -0.4549,-0.65646l-0.55586,0.03088l-1.16535,-1.74803l-0.16004,-0.09145l-0.05944,-0.23778l-0.62327,-0.93491l0.23369,-1.0516v-0.18267l-0.02238,-0.03357l0.02238,-0.10072v-0.10009l0.20019,-0.80075l0.17905,-0.80574l0.04337,-0.08674zM250.25753,135.81202l0.70777,0.42466l0.07077,0.07077l0.08705,0.05539l0.00284,0.0142l0.62659,0.37595l0.05666,0.05666l0.49897,0.03838l0.0809,0.02696h0.45052l0.03357,-0.02238l0.10072,0.02238h0.10009l0.80075,0.20019l0.80574,0.17905l0.08953,0.04477l0.10009,0.02502l0.01821,0.03187l0.37817,0.12606l0.21813,0.13881l0.14896,0.03311l0.68059,0.13612l0.43362,0.2054l0.46838,0.10408l0.08953,0.04477l0.79519,0.1988l0.44265,0.09837l1.0376,0.17294l0.2613,0.11361l0.28409,0.02186l0.0809,0.02696h0.89621l0.34711,0.08677l0.35738,-0.01702l1.05653,0.21131l0.29882,0.14155h0.05322l0.34711,0.08677l0.35738,-0.01702l1.05653,0.21131l0.07916,0.0375h0.08759l0.41621,0.10405h0.403l0.56021,0.14005l0.57575,0.04428l0.0809,0.02696h1.10752l0.34711,0.08677l0.35738,-0.01702l1.05653,0.21131l0.07916,0.0375h0.08759l1.26143,0.31536h0.19169l0.42902,0.10726h0.44222l0.84523,0.21131l0.1951,0.10405h0.17843l0.03357,-0.02238l0.10072,0.02238h0.10009l0.80075,0.20019l0.80574,0.17905l0.08953,0.04477l0.10009,0.02502l0.02002,0.03503l0.09119,0.0456l0.37258,0.09315l0.80574,0.17905l0.08953,0.04477l0.79519,0.1988l0.80574,0.17905l0.08953,0.04477l0.10009,0.02502l0.02002,0.03503l0.40725,0.20362l0.31968,0.10656l0.15946,0.03987l0.05004,0.01112h0.35932l0.16498,-0.65993l0.02891,-0.05421l0.00205,-0.06141l0.2844,-0.9954v-0.13081l0.14005,-0.56021l0.04428,-0.57575l0.18729,-0.56187l0.03987,-0.15946l0.01112,-0.05004v-0.20575l0.10726,-0.42902v-0.44222l0.21131,-0.84523l0.10405,-0.1951v-1.04673l0.12152,-0.48608l0.01669,-0.50077l0.38267,-1.33935l0.11303,-0.56517v-0.91214l0.14005,-0.56021l0.00814,-0.10586l-0.16225,0.04056l-0.06992,0.03496l-0.80574,0.17905l-0.80075,0.20019h-0.05098l-0.0809,0.02696l-0.14043,0.01081l-0.12428,0.06628l-1.55661,0.38915l-0.50304,0.16768l-0.57575,0.04428l-0.56021,0.14005h-0.26229l-0.01781,0.00593l-1.62819,0.61057l-0.06779,0.00774l-0.05756,0.03663l-0.63392,0.21131l-0.57575,0.04428l-0.56021,0.14005h-1.05653l-1.79611,-0.44903l-0.07037,-0.12316l-0.14163,-0.00787l-1.20486,-1.40568l-0.25242,-0.50484l-0.60749,-0.75937l-0.0884,-0.19289l-0.15273,-0.14728l-1.05653,-1.69045l-0.09976,-0.3076l-0.18933,-0.26215l-0.42262,-1.05653l-0.02527,-0.18529l-0.09345,-0.16197l-0.3032,-1.06118l-0.11453,-0.20042l-0.1783,0.24962l-0.41992,0.35771l-0.34786,0.42813l-0.16682,0.12512l-0.04337,0.08674l-0.19087,0.22268l-0.00994,0.17894l-0.54064,0.46341l-0.46341,0.54064l-0.17894,0.00994l-0.22268,0.19087l-0.17947,0.08973l-0.47544,0.55468l-0.14163,0.00787l-0.07037,0.12316l-1.79611,0.44903h-0.42262l-0.68752,-0.17188l-0.265,0.07228l-0.39579,-0.23747l-0.44778,-0.11195l-0.13628,-0.23849l-0.60769,-0.36462l-0.63392,-0.63392l-0.25778,-0.42964l-0.34229,-0.3659l-1.05653,-1.90176l-0.05987,-0.22313l-0.13526,-0.18728l-0.42262,-1.05653l-0.03339,-0.24484l-0.11629,-0.21803l-0.0604,-0.24158l-0.07747,-0.1162l-0.06258,-0.17524l-0.12251,-0.12251l-0.36462,-0.60769l-0.23849,-0.13628l-0.11195,-0.44778l-0.01846,-0.03078l-0.41383,1.24148l-0.16497,0.98983l-0.21396,0.4921l-0.11641,0.52382l-0.39236,0.78471l-0.12251,0.73504l-0.11361,0.2613l-0.02186,0.28409l-0.37899,1.13696l-0.07059,0.28237v1.24823l-0.10726,0.42902v0.44222l-0.21131,0.84523l-0.06628,0.12428l-0.01081,0.14043l-0.02696,0.0809v1.10752l-0.17188,0.68752l0.07228,0.265l-0.23747,0.39579l-0.11195,0.44778l-0.18489,0.10565v0.84523l-0.14005,0.56021l-0.01291,0.1678z" data-paper-data="{&quot;origPos&quot;:null}" fill="#a18300"/><path d="M249.71641,135.49801l0.01283,-0.16814l0.13982,-0.56131l-0.00029,-0.84704l0.18487,-0.10583l0.11183,-0.44875l0.2374,-0.39663l-0.07232,-0.26562l0.17182,-0.68908l0.00004,-1.11008l0.02698,-0.08109l0.01082,-0.14076l0.06631,-0.12458l0.21152,-0.84722l0.00015,-0.44324l0.10744,-0.43003l0.00063,-1.25097l0.07077,-0.28301l0.37986,-1.13957l0.02208,-0.28468l0.11386,-0.26191l0.12317,-0.73653l0.39325,-0.78648l0.11697,-0.52483l0.21457,-0.49312l0.16609,-0.99149l0.41544,-1.24357l0.07379,0.07661l0.11232,0.44732l0.23844,0.13635l0.36496,0.60725l0.12254,0.12247l0.06273,0.17506l0.07753,0.11611l0.06062,0.24129l0.11644,0.21783l0.03364,0.24449l0.42352,1.05521l0.13538,0.1871l0.06009,0.22277l1.05816,1.89888l0.34255,0.36539l0.25818,0.4288l0.63438,0.63285l0.60785,0.36423l0.13653,0.23785l0.4477,0.11216l0.32863,0.21197l0.26528,-0.07298l0.68771,0.17143l0.42296,-0.00081l1.80004,-0.4558l0.07095,-0.12392l0.14203,-0.00838l0.4789,-0.55838l0.18047,-0.09063l0.22427,-0.19216l0.17978,-0.01057l0.46743,-0.54316l0.54482,-0.46532l0.01038,-0.17911l0.19238,-0.2232l0.04377,-0.08687l0.16796,-0.12545l0.35036,-0.42871l0.42253,-0.35812l0.17939,-0.24972l0.11505,0.20038l0.30466,1.0611l0.09404,0.16196l0.02543,0.18528l0.42622,1.05667l0.19129,0.26238l0.10119,0.30784l1.07456,1.6996l0.15487,0.14946l0.0903,0.19518l0.61344,0.77134l0.25366,0.51183l1.20348,1.41862l0.14171,0.00761l0.00157,0.10248l1.79593,0.44962l1.05615,0.00142l0.55993,-0.13883l0.57561,-0.0436l0.6337,-0.21002l0.05753,-0.03645l0.06778,-0.00768l1.62788,-0.60774l0.01781,-0.00591l0.26229,0.00006l0.56018,-0.1395l0.57574,-0.04407l0.50302,-0.16714l1.5566,-0.38805l0.12428,-0.06612l0.14043,-0.01078l0.0809,-0.0269h0.05098l0.80075,-0.19973l0.80575,-0.17869l0.06992,-0.03489l0.23405,-0.04306l-0.00813,0.10609l-0.14004,0.56144l-0.00006,0.91416l-0.11313,0.56644l-0.3831,1.34241l-0.01691,0.50186l-0.12178,0.48718l-0.00061,1.04888l-0.1042,0.19555l-0.21195,0.84702l-0.00034,0.44305l-0.10764,0.42989l-0.00017,0.20611l-0.01116,0.05013l-0.04001,0.15977l-0.18785,0.56299l-0.04482,0.57673l-0.14064,0.56121l-0.00012,0.13101l-0.28552,0.9971l-0.00211,0.06149l-0.02898,0.05431l-0.16574,0.66096l-0.35959,0.00035l-0.05007,-0.01109l-0.15954,-0.03976l-0.31983,-0.10637l-0.40738,-0.20346l-0.02,-0.03506l-0.10015,-0.02495l-0.08955,-0.04472l-0.80629,-0.1784l-0.79577,-0.19813l-0.08957,-0.04472l-0.80644,-0.1783l-0.37292,-0.09279l-0.09125,-0.04553l-0.02,-0.03505l-0.10019,-0.02492l-0.08958,-0.0447l-0.80663,-0.17819l-0.80174,-0.1993l-0.10027,0.00014l-0.10086,-0.02226l-0.03367,0.02246l-0.17874,0.00027l-0.1953,-0.10389l-0.84659,-0.21026l-0.4432,0.00069l-0.42987,-0.1067l-0.19218,0.0003l-1.26447,-0.31368l-0.08786,0.00013l-0.07935,-0.0374l-1.05984,-0.20994l-0.35874,0.01747l-0.34836,-0.08641l-1.11212,0.00094l-0.08123,-0.02692l-0.57826,-0.04405l-0.56272,-0.14l-0.40484,-0.00007l-0.41813,-0.10422l-0.08799,-0.00005l-0.07954,-0.03755l-1.06136,-0.21233l-0.35885,0.01657l-0.34862,-0.08731l-0.05342,-0.00008l-0.30019,-0.14212l-1.06059,-0.2134l-0.35845,0.01635l-0.34828,-0.08756l-0.89849,-0.00175l-0.08113,-0.02716l-0.28476,-0.02244l-0.26207,-0.1143l-1.03978,-0.17516l-0.44349,-0.09933l-0.79654,-0.20052l-0.0897,-0.045l-0.46904,-0.10502l-0.43432,-0.20648l-0.68131,-0.13734l-0.14911,-0.03336l-0.21845,-0.1394l-0.37855,-0.1268l-0.01826,-0.03196l-0.10018,-0.0252l-0.08963,-0.04497l-0.80632,-0.18031l-0.80125,-0.20139l-0.10013,-0.00009l-0.10077,-0.02252l-0.03357,0.0224l-0.45066,-0.00037l-0.08095,-0.02709l-0.49913,-0.03885l-0.05671,-0.05681l-0.62699,-0.37718l-0.00285,-0.01423l-0.0871,-0.05556l-0.07084,-0.07097l-0.70813,-0.42595z" data-paper-data="{&quot;noHover&quot;:false,&quot;origItem&quot;:[&quot;Path&quot;,{&quot;applyMatrix&quot;:true,&quot;segments&quot;:[[277.58826,101.47347],[278.5734,102.06455],[278.67192,102.16307],[278.79308,102.24017],[278.79703,102.25992],[279.66917,102.78321],[279.74803,102.86207],[280.44254,102.91549],[280.55514,102.95303],[281.18222,102.95303],[281.22895,102.92187],[281.36914,102.95303],[281.50846,102.95303],[282.62302,103.23167],[283.74453,103.48089],[283.86914,103.5432],[284.00846,103.57803],[284.03381,103.62239],[284.56019,103.79785],[284.8638,103.99106],[285.07114,104.03713],[286.01845,104.22659],[286.622,104.51249],[287.27394,104.65736],[287.39855,104.71967],[288.50537,104.99637],[289.1215,105.13329],[290.56575,105.374],[290.92946,105.53213],[291.32489,105.56255],[291.43749,105.60009],[292.68493,105.60009],[293.16807,105.72087],[293.66551,105.69718],[295.1361,105.9913],[295.55203,106.18832],[295.62611,106.18832],[296.10924,106.30911],[296.60669,106.28542],[298.07728,106.57954],[298.18746,106.63173],[298.30937,106.63173],[298.88869,106.77656],[299.44964,106.77656],[300.22939,106.9715],[301.03077,107.03314],[301.14338,107.07067],[302.68493,107.07067],[303.16807,107.19146],[303.66551,107.16777],[305.1361,107.46189],[305.24628,107.51408],[305.3682,107.51408],[307.12399,107.95303],[307.39081,107.95303],[307.98796,108.10231],[308.60349,108.10231],[309.77996,108.39643],[310.05152,108.54126],[310.29987,108.54126],[310.3466,108.51011],[310.48679,108.54126],[310.62611,108.54126],[311.74067,108.8199],[312.86217,109.06913],[312.98679,109.13143],[313.12611,109.16626],[313.15397,109.21502],[313.2809,109.27849],[313.79949,109.40814],[314.921,109.65736],[315.04561,109.71967],[316.15243,109.99637],[317.27394,110.2456],[317.39855,110.3079],[317.53787,110.34273],[317.56573,110.3915],[318.13258,110.67492],[318.57754,110.82324],[318.79949,110.87873],[318.86914,110.8942],[319.36928,110.8942],[319.59892,109.97564],[319.63917,109.90019],[319.64202,109.81472],[320.03787,108.42922],[320.03787,108.24715],[320.23281,107.46739],[320.29445,106.66601],[320.55514,105.88394],[320.61063,105.66199],[320.62611,105.59235],[320.62611,105.30597],[320.77539,104.70882],[320.77539,104.09329],[321.06951,102.91682],[321.21434,102.64526],[321.21434,101.18832],[321.38349,100.51174],[321.40672,99.81472],[321.93936,97.95048],[322.09669,97.16381],[322.09669,95.8942],[322.29163,95.11445],[322.30297,94.96711],[322.07714,95.02356],[321.97982,95.07222],[320.85831,95.32145],[319.74375,95.60009],[319.67279,95.60009],[319.56019,95.63762],[319.36471,95.65266],[319.19173,95.74492],[317.02507,96.28658],[316.32489,96.51997],[315.52351,96.58162],[314.74375,96.77656],[314.37867,96.77656],[314.35388,96.78482],[312.08761,97.63467],[311.99325,97.64546],[311.91313,97.69644],[311.03077,97.99056],[310.22939,98.05221],[309.44964,98.24715],[307.97905,98.24715],[305.47905,97.62215],[305.38109,97.45072],[305.18396,97.43977],[303.50691,95.48321],[303.15557,94.78052],[302.31,93.72356],[302.18694,93.45508],[301.97435,93.25008],[300.50376,90.89714],[300.3649,90.46899],[300.10137,90.1041],[299.51313,88.63351],[299.47797,88.37561],[299.3479,88.15016],[298.92588,86.6731],[298.76647,86.39414],[298.5183,86.74157],[297.93381,87.23947],[297.44964,87.83538],[297.21744,88.00953],[297.15707,88.13027],[296.89139,88.44022],[296.87756,88.68929],[296.12503,89.33431],[295.48001,90.08683],[295.23095,90.10067],[294.921,90.36634],[294.67119,90.49124],[294.00943,91.2633],[293.8123,91.27425],[293.71434,91.44567],[291.21434,92.07067],[290.62611,92.07067],[289.66915,91.83143],[289.30028,91.93203],[288.74938,91.60149],[288.12611,91.44567],[287.93641,91.11371],[287.09057,90.60621],[286.20822,89.72386],[285.84941,89.12583],[285.37297,88.61654],[283.90238,85.96948],[283.81905,85.6589],[283.63078,85.39822],[283.04255,83.92763],[282.99607,83.58683],[282.83422,83.28335],[282.75015,82.94709],[282.64233,82.78535],[282.55521,82.54144],[282.38469,82.37091],[281.87718,81.52507],[281.54522,81.33538],[281.38941,80.71211],[281.3637,80.66927],[280.7877,82.39729],[280.55808,83.77502],[280.26027,84.45998],[280.09824,85.1891],[279.55212,86.28134],[279.38161,87.30443],[279.22347,87.66815],[279.19305,88.06358],[278.66554,89.64611],[278.56728,90.03914],[278.56728,91.77656],[278.418,92.37371],[278.418,92.98923],[278.12388,94.16571],[278.03162,94.33869],[278.01658,94.53417],[277.97905,94.64677],[277.97905,96.18832],[277.73981,97.14528],[277.84041,97.51415],[277.50987,98.06505],[277.35405,98.68832],[277.09669,98.83538],[277.09669,100.01185],[276.90176,100.79161],[276.88379,101.02517]],&quot;closed&quot;:true}],&quot;origPos&quot;:null}" fill="#ffd000"/><path d="M231.50372,169.61515c-0.32282,2.67475 -2.99757,2.35194 -2.99757,2.35194l1.10531,0.57739c-3.22905,3.22905 -6.69272,3.93229 -11.11011,3.93229c-7.17506,-0.12114 -16.7328,-1.67438 -18.35778,-9.79924c0,0 -0.10497,-0.52486 0.0126,-1.15347c-0.22542,-0.67241 -0.21498,-1.54355 0.58368,-2.47532c1.75334,-2.04556 3.7989,-0.29222 3.7989,-0.29222c2.21628,1.89967 5.35087,4.13449 8.3977,4.46223c0.2549,0.02742 -0.78908,-0.07472 -0.70136,-0.31561c0.10558,-0.28993 0.61906,-0.09271 0.89805,-0.22451c0.29003,-0.13702 0.33936,-0.72709 0.65908,-0.70118c1.41352,0.11454 2.80155,0.50525 4.14454,0.96081c0.55152,0.18708 0.84677,0.78636 1.2383,1.23079c2.45201,-0.03193 4.32696,-1.10354 6.91181,-2.07287l1.8065,-0.13993c0,0 0.83135,0.12848 1.49316,0.70639c0.64524,0.15236 2.38082,0.76813 2.11719,2.95251z" data-paper-data="{&quot;origPos&quot;:null}" fill="#b20000"/><path d="M225.1927,171.53914c-1.78851,0.45231 -3.85789,0.18008 -5.68638,0.18008c-4.27616,0 -8.57313,0.12736 -12.68568,-1.24349c-2.05181,-0.77803 -3.83932,-2.32272 -5.07853,-4.2058c-0.019,0.75447 0.08833,1.47544 0.39852,2.0435c0.42201,0.77285 1.69713,1.392 2.34892,2.04378c2.64143,2.64143 6.41413,3.60333 10.1182,4.11116c3.34816,0.55803 8.24521,0.54711 11.40735,-0.71775c2.04604,-0.81841 2.01591,-1.45986 3.03697,-3.33107c0.16663,-0.30537 0.43862,-0.71234 0.67809,-1.13738c-1.52453,0.76888 -2.88827,1.8399 -4.53746,2.25697zM200.0635,162.09049c-0.00985,-0.05327 -0.015,-0.1082 -0.015,-0.16433c0,-0.06098 0.00608,-0.12055 0.01767,-0.17812c0.04273,-0.26345 0.19794,-0.60587 0.70203,-0.70222c0.01813,-0.00365 0.03646,-0.00676 0.05497,-0.0093c0.34455,-0.05087 0.57478,0.05674 0.72708,0.20456l0.47687,0.28612l-0.10204,-0.30229c0,0 0.70126,-0.56101 1.26227,0.14025c0.10009,0.1251 0.16,0.24574 0.19088,0.35954l0.08307,-0.22648c1.67899,1.00739 3.19086,2.18303 4.82572,3.27294c1.1598,0.85024 3.23724,1.96981 4.69171,1.60583c1.30606,-0.32684 2.34012,-1.26039 3.76465,-1.14868c0.99631,0.07813 1.46252,1.21654 2.19864,1.65822c-0.03429,0.1282 2.50124,0.16998 2.91764,0.13763c2.63995,-0.20507 5.4167,-2.93595 7.98064,-1.22666c0.5918,0.39605 1.22698,0.71793 1.70413,1.26899c0.22726,0.26245 0.34212,1.49824 0.34212,1.52234c0,1.35349 -2.01308,4.81478 -2.93764,5.73934c-0.55347,0.55347 -1.55436,0.80514 -2.26674,1.09009c-3.46104,1.38442 -8.69791,1.43374 -12.36969,0.82178c-4.12615,-0.75847 -8.07042,-1.59024 -11.09296,-4.61279c-0.92793,-0.92793 -2.141,-1.56847 -2.78282,-2.74584c-0.7142,-1.31015 -0.57277,-3.27915 -0.16769,-4.93863l-0.62032,-0.62032l0.53155,-0.53155zM207.38862,168.77179c3.924,1.308 8.03808,1.15132 12.1177,1.15132c1.75376,0 3.71549,0.2597 5.43238,-0.16203c1.46733,-0.36044 2.83583,-1.48339 4.27152,-2.21219c-0.11225,-0.08266 -0.23392,-0.16904 -0.36622,-0.25694c-1.27136,-0.84758 -2.84789,0.41364 -4.30005,0.94189c-1.90034,0.69129 -4.6423,1.00707 -6.52601,0.19284c-0.7411,-0.44466 -1.16339,-1.49311 -2.0778,-1.59188c-0.12347,-0.01333 -2.54541,1.45105 -3.55613,1.45105c-1.68389,0 -3.68787,-1.1313 -5.09329,-2.02025c-1.6129,-1.07526 -3.10078,-2.23561 -4.75351,-3.22725l-0.05244,-0.15536c-0.01126,0.03868 -0.02015,0.06092 -0.02015,0.06092c-0.05824,0.14559 -0.11603,0.30126 -0.17207,0.46498c0.8967,2.32617 2.832,4.86076 5.09609,5.36289z" data-paper-data="{&quot;origPos&quot;:null}" fill="#5e0000"/><path d="M243.74255,136.68686c0.33919,1.76379 -1.42459,2.10298 -1.42459,2.10298l-0.67155,0.30745c-4.93769,0.70539 -9.68786,1.40565 -14.47754,2.60308c0,0 -1.0124,0.2531 -1.68674,-0.39824c-1.1031,0.09548 -2.19404,0.05367 -2.73856,0.0898c-2.78739,0.18498 -5.58369,0.23267 -8.37722,0.23748c-3.15097,0.00543 -7.10599,1.9472 -10.27451,2.87636c-5.45483,1.59962 -13.45847,1.82095 -18.7022,3.6717c-0.59718,0.21078 -0.70118,0.61092 -0.79524,0.98601c0.03734,0.10205 0.06784,0.20699 0.09116,0.31359c0.86058,3.93439 5.49974,10.26673 5.55427,13.62951c0.05865,3.61671 -0.49599,5.83898 -1.06867,9.19706c-0.06357,0.37281 0.01526,0.82658 0.22826,1.15911c0.03007,0.00564 0.06051,0.01154 0.09129,0.0177c0.62446,0.12489 1.47766,1.45433 2.1543,1.80523c2.27151,1.17799 5.96143,1.69155 7.38632,3.82888c0.86262,1.29393 -0.52617,3.78986 -1.62788,4.73419c-1.74214,1.49326 -4.77428,2.10605 -6.41065,3.74242c-1.1341,1.1341 -4.57011,2.52319 -5.09071,3.92378c-0.05966,0.16051 -0.53067,0.80861 -0.94268,1.33862c0.00405,0.09442 0.006,0.19299 0.006,0.29585c0,0.78139 -1.51504,2.11689 -1.93255,2.72502c-1.11549,1.62477 -2.26457,3.56796 -2.69183,5.50476c-0.75151,3.40676 -1.71664,7.18058 -1.8566,10.64925c-0.05861,1.45271 1.01414,3.63327 -0.24819,4.3546c-0.31244,0.52938 -0.88871,0.88453 -1.54791,0.88453c-0.85426,0 -1.56924,-0.59639 -1.75128,-1.39552c-0.51662,-0.8242 -0.30255,-1.87824 -0.02908,-4.2002c0.57159,-4.85316 0.98794,-12.04069 4.16148,-16.10269c0.56334,-0.72104 1.4941,-2.95997 2.55918,-4.04322c0.06824,-0.21088 0.17443,-0.40469 0.31051,-0.57338c1.58945,-3.41666 6.07213,-5.11386 8.79676,-7.38636c0.67849,-0.5659 1.59958,-1.20769 2.36666,-1.6426c0.6269,-0.35543 1.32341,-0.52264 1.93242,-0.87607c0.04006,-0.02324 0.1451,-0.0559 0.10951,-0.08552c-0.87119,-0.72489 -5.70686,-2.38531 -7.56362,-4.19463c-0.7841,-0.50675 -1.45282,-1.30805 -1.77743,-1.95727c-1.70955,-3.4191 2.79784,-8.13768 0.79101,-11.57146c-1.00679,-1.72268 -5.27001,-9.96905 -5.15394,-11.46109c0.04627,-0.59485 -0.25347,-1.27376 -0.37485,-1.90989c-0.15041,-0.26264 -0.23637,-0.56691 -0.23637,-0.89126c0,-0.27012 0.05963,-0.52632 0.16644,-0.75613c0.18393,-1.69062 2.25622,-3.35762 4.2677,-3.79759c5.8769,-1.28547 11.97161,-1.98493 17.86116,-3.38099c3.4101,-0.80833 7.32541,-3.00979 10.84693,-3.00446c2.77948,0.0042 5.57775,0.15575 8.33641,-0.18385c1.04895,-0.12913 3.98123,-0.67318 5.48299,0.00359c4.40726,-1.01558 8.81747,-1.6686 13.34746,-2.31574l0.50118,-0.27891c0,0 1.76379,-0.33919 2.10298,1.4246z" data-paper-data="{&quot;origPos&quot;:null}" fill="#808080"/><path d="M286.85947,218.03112c-1.55246,0.90325 -2.45571,-0.64921 -2.45571,-0.64921l-0.23518,-0.49332c-1.33089,-1.99632 -1.76288,-5.18207 -3.14577,-6.92335c-0.60223,-0.75831 -1.65168,-1.3362 -2.34689,-2.03817c-2.06718,-2.08727 -3.40446,-4.25672 -3.85558,-7.15825c-1.20195,-0.58054 -0.87547,-1.99256 -0.87547,-1.99256l-0.04617,-1.06131c0,-4.75904 0.1877,-9.46867 0.87955,-14.07279c0.30813,-2.05054 -0.05244,-4.25616 0.15551,-6.33557c1.06666,-4.83718 4.69093,-8.40303 8.7533,-11.10281c3.21246,-2.13495 6.84422,-3.16319 9.64802,-5.96699c0.92219,-0.83274 1.95014,-2.28064 2.27304,-3.49708c0.22909,-0.86304 -0.05003,-2.37041 0.27932,-3.14883c0.05262,-0.12436 0.43269,0.22512 0.39358,0.09588c-0.09062,-0.29948 -0.51235,-0.42896 -0.58636,-0.73296c-0.03129,-0.12852 0.49828,-0.05221 0.38054,-0.1125c-2.55934,-1.31063 -6.38784,-1.82637 -9.16916,-2.66077c0,0 -1.72036,-0.51611 -1.20425,-2.23646c0.51611,-1.72035 2.23646,-1.20425 2.23646,-1.20425c2.24149,0.67245 4.45922,1.44269 6.72053,2.04564c0.04406,0.01175 2.28135,0.56708 2.28766,0.57089c4.95363,2.99217 2.00092,10.19004 -1.07127,13.42052c-4.17343,4.17343 -10.3152,5.45666 -14.36597,9.67504c-0.8461,0.88111 -3.45077,4.2249 -3.00104,5.21211c-0.19591,1.95911 0.16289,4.04869 -0.13768,5.97813c-0.12437,0.79836 -0.55847,1.52806 -0.67854,2.32708c-0.16201,1.07813 0.17233,2.41369 0.09217,3.53658c-0.19652,2.75278 -0.29318,5.43579 -0.29318,8.20913l-0.02546,1.03147c0.75316,0.41656 0.88696,1.35317 0.88696,1.35317c0.51078,3.57549 2.8373,4.47208 4.91444,7.06061c1.83913,2.29191 2.2892,5.33366 3.89063,7.7358l0.3512,0.67942c0,0 0.90325,1.55246 -0.64921,2.45571z" data-paper-data="{&quot;origPos&quot;:null}" fill="#808080"/><path d="M230.88119,233.13504c-0.26354,-0.85101 0.02574,-1.41063 0.38428,-1.75855l-0.15343,0.09367c0.26641,-1.86491 0.9133,-3.82726 1.15468,-5.60965c0.40497,-2.99037 -0.01156,-5.5591 1.69879,-8.30643c0.74354,-1.19435 2.23204,-1.51406 3.09253,-2.19744c1.77047,-1.40607 2.49093,-2.85791 4.86707,-3.53681c4.87723,-1.38445 9.82005,-2.48315 14.73119,-3.78831c3.35017,-0.89033 6.63904,-2.81915 10.0643,-3.16168c3.29842,-0.31188 6.89581,-0.22101 9.01122,2.81334c0.04049,0.05809 -0.0258,1.65186 -0.01387,1.8295c0.12692,1.88971 0.92329,3.57105 1.02903,5.44832c0.03084,0.54757 0.69093,1.12433 0.40773,1.59398c-0.15796,0.26195 -1.19139,-0.22137 -0.9127,-0.09527c0.62959,0.28488 1.36819,0.19546 2.05228,0.29318c0,0 1.77805,0.25401 1.52405,2.03206c-0.25401,1.77805 -2.03206,1.52405 -2.03206,1.52405c-0.68409,-0.09772 -1.48881,0.10686 -2.05227,-0.29318c-2.50672,-1.77968 -2.62055,-4.64363 -3.20902,-7.36692c-0.0405,-0.18741 -0.34794,-2.33528 -0.37149,-2.69066c-0.01543,-0.2329 -0.01712,-0.46635 -0.01607,-0.6999c-0.39556,-0.07686 -0.98544,-0.60982 -1.40831,-0.75078c-1.20079,-0.40027 -2.3791,-0.19938 -3.65105,-0.06334c-3.11792,0.31179 -6.20054,2.17005 -9.28578,2.99517c-4.95761,1.32586 -9.96393,2.42189 -14.88029,3.83444c-1.58835,0.45381 -1.8885,1.39571 -3.04888,2.32685c-1.11802,0.89715 -2.58404,1.20648 -3.3575,2.49348c-0.97629,1.6245 -0.38504,3.98744 -0.64666,5.76635c-0.30005,2.04024 -0.89494,4.04675 -1.19078,6.11767l-1.53992,2.34126c0,0 -1.71572,0.53132 -2.24704,-1.1844z" data-paper-data="{&quot;origPos&quot;:null}" fill="#808080"/><path d="M180.85182,214.72535c-0.02538,-0.51086 0.10195,-0.88347 0.29706,-1.15513c0.96349,-3.82084 0.60669,-8.93437 4.50481,-10.80837c0.02315,-0.01113 1.59942,0.44809 1.70799,0.47276c1.78911,0.40669 3.38736,0.80384 5.07015,1.56874c2.97784,1.37581 6.17483,2.36156 9.12692,3.77472c0.9989,0.47817 1.7423,1.5001 2.65997,2.00382c1.05385,0.57846 2.20222,0.78852 3.36862,0.86426c0.8537,-0.5725 1.56942,-0.27263 1.99313,0.04197c0.09297,-0.00011 0.18578,-0.00022 0.2784,-0.00022c0,0 0.41015,0 0.83846,0.196l0.12775,-0.03674c4.05799,2.02899 9.03965,2.32095 13.19324,4.39775c2.65673,1.40776 5.45759,3.35526 5.95892,6.55142c0.23256,1.48268 -0.73745,3.0953 -1.24685,4.41854c-0.83054,2.15745 -1.56447,3.99487 -1.84209,6.11362l0.15711,0.02244l-0.28945,2.02614c-0.01833,0.14485 -0.05393,0.2843 -0.10464,0.41627c-0.17506,0.51524 -0.60773,1.15198 -1.67715,1.15198c-1.06942,0 -1.50209,-0.63674 -1.67715,-1.15198c-0.07684,-0.19995 -0.11895,-0.41712 -0.11895,-0.64413v-2.63865h0.20623c0.34479,-2.2014 1.08509,-4.21176 1.93822,-6.43164c0.43994,-1.14472 1.28551,-2.48669 1.09861,-3.79059c-0.06339,-0.44225 -3.12381,-2.43391 -4.00931,-2.83043c-4.00841,-2.0042 -8.71192,-2.31568 -12.73587,-4.17774c-2.22646,0.00006 -4.67152,-0.01376 -6.68484,-1.12231c-1.20819,-0.66524 -2.17254,-1.79961 -3.42495,-2.39086c-2.7607,-1.30329 -5.81059,-2.23189 -8.62079,-3.49339c-1.41496,-0.64316 -2.73016,-0.96472 -4.22627,-1.3047c-0.15321,-0.03481 -0.30529,-0.07419 -0.45693,-0.11535c-0.14144,0.2094 -0.42926,0.44321 -0.48872,0.67269c-0.10366,0.40001 0.2256,0.81341 0.18962,1.22507c-0.18415,2.10664 -0.86177,4.18916 -1.41549,6.21946l-1.8127,1.65936c0,0 -1.79389,0.08914 -1.88303,-1.70476z" data-paper-data="{&quot;origPos&quot;:null}" fill="#808080"/><path d="M194.12055,200.90177c-0.55002,-0.03656 -0.97739,-0.32147 -0.97739,-0.32147l0.0779,-0.09002c-0.53022,-0.11923 -1.38478,-0.50358 -1.38478,-1.74248c0,-1.79611 1.79611,-1.79611 1.79611,-1.79611c7.08162,0 13.46452,0.2892 20.08265,-2.72821c2.94709,-1.26304 6.00107,-1.94832 9.02427,-2.95538c1.40053,-0.46653 2.81974,-1.08269 4.36018,-0.73939c2.32457,0.51804 3.52119,2.72496 5.65681,3.29842c0.80714,0.21673 1.69126,-0.12332 2.50645,0.06087c4.30012,1.17276 0.98825,5.30119 0.05954,7.38724c-1.38743,3.11642 -2.71146,6.07197 -4.48532,9.04527c-0.35408,0.59351 -1.13241,2.35237 -1.75898,2.64129c-1.8739,0.86409 -3.10187,0.71377 -4.9197,0.39909c-3.45565,-0.6283 -7.26575,-1.67284 -10.4028,-3.31098c-3.59258,-1.876 -6.66458,-4.1726 -10.69789,-5.17198c-3.17578,-0.84687 -5.99304,-2.45881 -8.98528,-3.81891zM201.92159,200.73438c0.6667,0.25482 1.35046,0.48299 2.06159,0.67262c4.14864,1.15929 7.37872,3.34654 11.10643,5.30762c2.9313,1.5421 6.48236,2.52492 9.71127,3.112c0.60825,0.11849 1.51351,-0.29385 1.84477,0.22985c0.17596,0.2782 -0.83969,0.84452 -0.51052,0.84533c0.29085,0.00072 1.46212,-2.16552 1.62153,-2.42948c1.52824,-2.5305 2.81695,-4.87389 3.79696,-7.60377c0.45359,-1.26351 1.60157,-2.40272 2.06099,-3.45622c0.02881,-0.06605 0.03691,-0.15249 0.03602,-0.24609c-0.88471,-0.15192 -1.85098,-0.01442 -2.74251,-0.25882c-1.41961,-0.38917 -2.61405,-2.54253 -3.80863,-2.7865c-1.36692,-0.27918 -2.144,0.18891 -3.415,0.61281c-2.86483,0.95545 -5.76128,1.59445 -8.5544,2.7915c-1.91853,0.78935 -3.94393,1.00144 -5.88019,1.6745c-1.50231,0.52221 -2.72505,1.14571 -4.33383,1.33961c-0.99642,0.12009 -1.99491,0.17669 -2.99446,0.19504z" data-paper-data="{&quot;origPos&quot;:null}" fill="#808080"/><path d="M235.93322,209.02001c0.09632,0.02027 0.18626,0.04472 0.27021,0.07282l-0.50008,-0.91961c0.6572,-0.39432 1.34023,-0.79777 2.04384,-1.17968c1.54799,-4.36326 2.09735,-9.14664 5.40265,-12.63496c1.17788,-1.047 2.99887,-1.63921 4.60661,-1.50404c2.3969,0.20151 4.99717,1.48129 7.25292,2.23431c2.28577,0.76304 4.68022,0.81839 6.96621,1.46369c1.50443,0.42469 2.9131,1.12093 4.39747,1.61277c0.44369,0.14701 1.17582,0.00228 1.33029,0.44343c0.40924,1.16873 0.08337,2.47521 0.12505,3.71281c-1.83291,2.29114 -5.23372,2.05842 -7.88864,2.60712c-5.39006,1.114 -10.62189,3.09619 -16.14353,3.64679c-1.17312,0.10665 -2.33595,0.54012 -3.45026,1.09218c-0.58332,1.21889 -1.27543,2.37555 -2.13915,3.48611l0.17099,0.18523l-0.87922,0.81159l0.15884,0.22691l-1.75569,1.22898c-0.11797,0.0849 -0.24665,0.15584 -0.38363,0.21041c-0.49599,0.22028 -1.25465,0.33431 -1.97831,-0.44462c-0.00455,-0.00488 -0.00907,-0.00979 -0.01356,-0.01471c-0.7174,-0.78382 -0.54187,-1.53098 -0.28236,-2.0073c0.09892,-0.19932 0.23377,-0.37766 0.39608,-0.52654l1.85442,-1.71177c0.08455,-0.08754 0.16752,-0.17638 0.24861,-0.26685l-1.93736,-0.43751c0,0 0.37002,-1.75758 2.1276,-1.38756zM242.00602,205.24517c0.48455,-0.11747 0.97333,-0.20247 1.46499,-0.24717c5.44254,-0.4237 10.65954,-2.51417 15.96074,-3.62545c0.55541,-0.11643 2.09165,-0.56302 3.35691,-0.79402c-0.78649,-0.33015 -1.58024,-0.63145 -2.37866,-0.78297c-3.39028,-0.64343 -6.51956,-1.5935 -9.85108,-2.44077c-1.82823,-0.46495 -3.52158,-1.64556 -5.02255,-0.31137c-0.42942,0.13292 -0.61172,0.67753 -0.79976,1.08584c-0.79943,1.73589 -1.6055,3.05209 -2.10978,4.92485c-0.20276,0.75299 -0.40688,1.48263 -0.62082,2.19106z" data-paper-data="{&quot;origPos&quot;:null}" fill="#808080"/><path d="M252.65912,190.20181c-0.35572,-0.07138 -0.6046,-0.21359 -0.6046,-0.21359l0.54897,-0.66359l-0.34335,0.103c-0.1751,0.05696 -0.362,0.08774 -0.5561,0.08774c-0.04181,0 -0.08329,-0.00142 -0.12439,-0.00424c-0.53217,-0.0166 -1.2523,-0.23427 -1.57371,-1.20519c-0.01556,-0.04507 -0.02939,-0.09094 -0.04139,-0.13755c-0.26851,-0.98973 0.21319,-1.569 0.64885,-1.87631c0.06188,-0.04736 0.12693,-0.09079 0.19478,-0.12991l1.74549,-1.0473l0.21927,0.36545c3.54092,-1.2502 6.94845,-3.03679 10.32151,-4.62114c1.44071,-0.67671 2.89496,-1.05619 4.41167,-1.51173c0.29559,-0.08878 0.62344,-0.42689 0.88686,-0.26606c0.98106,0.59899 1.6831,1.56598 2.52464,2.34897c0.61617,2.46465 -0.03505,5.89 -0.03505,8.50603c0,0.50905 0.19485,2.75256 -0.18475,3.08925c-0.81983,0.72714 -1.84154,1.21173 -2.85296,1.63349c-0.77197,0.32191 -2.24787,-0.42148 -2.75434,-0.63305c-2.68338,-1.12094 -4.5909,-1.58826 -7.47376,-2.05197c-1.86863,-0.31144 -3.33646,-0.69011 -5.01128,-1.62056zM256.14285,187.98111c0.63206,0.19263 1.2882,0.32031 2.06447,0.44969c1.97803,0.34518 3.92064,0.32469 5.82911,1.05204c0.78094,0.29764 2.12602,1.44741 2.74419,1.58409c0.13239,0.02927 0.3085,-0.01456 0.4796,-0.06052c0.0338,-0.68056 0.03013,-1.35697 0.03013,-2.04556c0,-1.83237 0.4641,-4.08466 0.2755,-5.88208c-1.56988,0.45278 -2.91336,1.07662 -4.42834,1.71678c-2.36391,0.99887 -4.64268,2.17156 -6.99466,3.18554z" data-paper-data="{&quot;origPos&quot;:null}" fill="#808080"/><path d="M197.39217,192.35272c-0.41582,0.06639 -0.75822,-0.00971 -0.75822,-0.00971l0.07335,-0.34347c-0.34444,0.17736 -0.79977,0.24538 -1.3867,0.03824c-1.69371,-0.59778 -1.09593,-2.29149 -1.09593,-2.29149c0.2456,-0.69587 0.28371,-1.50515 0.7368,-2.08761c1.51619,-1.94908 4.78004,-3.78704 7.08155,-4.60596c0.81354,-0.28947 2.25596,-0.8819 3.12278,-0.73681c1.04292,0.17457 1.93386,0.86707 2.94133,1.18829c1.63789,0.52221 3.24935,0.54534 4.90084,1.50339c0.2794,0.17194 0.56895,0.3391 0.87253,0.46616l1.35503,0.45168c0.73393,0.22572 1.26742,0.90907 1.26742,1.71703c0,0.71701 -0.42015,1.33589 -1.02767,1.62389l-0.8248,0.4124c-0.21318,0.59907 -3.21488,1.54344 -3.70591,1.70427c-4.31193,1.41222 -9.08025,1.00276 -13.55257,1.00276zM199.37655,188.8128c3.18122,0.04967 6.41388,0.13421 9.51411,-0.55147c0.58325,-0.129 1.13396,-0.30605 1.66796,-0.53472c-1.34836,-0.69088 -2.73158,-0.61626 -4.23375,-1.10348c-0.31392,-0.10182 -0.68167,-0.21326 -0.8596,-0.49121c-0.08291,-0.12951 0.51429,-0.26056 0.36252,-0.28532c-1.90449,-0.31065 -4.20705,1.3411 -5.65892,2.30792c-0.27492,0.18307 -0.52822,0.43658 -0.79231,0.65828z" data-paper-data="{&quot;origPos&quot;:null}" fill="#808080"/><path d="M199.5487,172.02659c0.02308,-0.00385 0.04553,-0.00682 0.06738,-0.00896l-0.02027,-0.01601c0.47273,-0.15758 0.91771,-0.33048 1.42459,-0.29717c3.37967,0.22208 1.9288,6.10153 -1.17045,3.30353c-0.27866,-0.25157 -0.4165,-0.62473 -0.62474,-0.9371c0,0 -0.39852,-0.59778 0.19926,-0.9963c0.00083,-0.00055 0.00167,-0.00111 0.00249,-0.00166l-0.46883,-0.21955c0,0 -0.11811,-0.70866 0.59056,-0.82678zM201.5976,173.00911c-0.19152,0.22917 -0.69271,0.20126 -1.17245,0.27131c0.20581,0.31101 0.34383,0.68052 0.62036,0.93052c0.07986,0.0722 0.22295,0.10419 0.38367,0.11771c0.03903,-0.48788 0.13775,-1.16889 0.1437,-1.19496c0.00703,-0.03086 0.01558,-0.07542 0.02472,-0.12457z" data-paper-data="{&quot;origPos&quot;:null}" fill="#808080"/><path d="M219.19389,178.02958c-0.00721,0.09449 -0.03745,0.19762 -0.10142,0.30806c0.11397,0.85332 0.19825,1.71391 0.13707,2.57033c-0.01736,0.24296 -0.06955,0.48591 -0.05206,0.72885c0.00014,0.00195 0.06283,0.15421 0.11458,0.29832c0.2624,-0.1857 1.55386,0.0299 2.20539,0.12171c-0.12413,-0.55416 -0.30944,-2.36304 -0.34321,-2.81484c-0.0312,-0.41746 -0.01441,-0.83091 -0.02785,-1.24859c-0.00027,-0.0085 -0.00663,-0.09652 -0.01476,-0.20882c-0.27399,0.34502 -1.16572,0.50381 -1.65267,0.74729zM218.77208,177.32566l0.04428,-0.07896c1.30764,-0.65382 2.42148,-1.26092 3.69326,-0.082c0.14013,0.12989 0.0541,1.05473 0.05365,1.2452c-0.00303,1.29914 0.52186,2.59659 0.48375,3.87146c-0.02036,0.68111 -0.69817,1.29141 -1.3575,1.24431c-1.28056,-0.09214 -2.82611,-0.05054 -3.77497,-1.06066c-0.53852,-0.57327 -0.19742,-3.60841 -0.32109,-4.47412c0,0 -0.1016,-0.71122 0.60962,-0.81282c0.26618,-0.03803 0.44697,0.0378 0.56901,0.14758z" data-paper-data="{&quot;origPos&quot;:null}" fill="#808080"/><path d="M228.98269,174.94296c-0.09875,-0.14183 -0.15564,-0.34143 -0.06343,-0.61006c0.0061,-0.01856 0.01293,-0.03678 0.02047,-0.05464c0.10795,-0.26541 0.28396,-0.37824 0.45289,-0.41946l0.61686,-0.30843l0.24158,0.48315l0.43611,0.16354l-0.09483,0.25288c1.31337,1.57809 1.83916,5.63929 1.86254,7.34394c0,0.35131 0.35296,1.63336 0.15436,1.87507c-1.06143,1.29183 -3.76423,1.70977 -4.77705,0.40996c-0.50623,-0.64967 0.11259,-2.59531 0.25831,-3.33701c0.36615,-1.83076 0.27572,-3.77343 0.65077,-5.64863zM230.11551,175.5559c0.05363,0.01428 0.08869,0.01988 0.06713,-0.01344l-0.06043,-0.02266c-0.00225,0.01203 -0.00449,0.02407 -0.0067,0.0361zM229.96784,176.55514c-0.17491,1.49971 -0.17615,3.00746 -0.46837,4.46857c-0.11083,0.54201 -0.09162,1.85821 -0.37743,2.42348c0.0535,-0.0041 0.10134,-0.00937 0.13923,-0.0167c0.11601,-0.02245 1.43098,-0.29961 1.8684,-0.32249c-0.00109,-0.01568 -0.0018,-0.02544 -0.00202,-0.0276c-0.04332,-0.43286 -0.10967,-0.85037 -0.10967,-1.28652c0.03352,-1.43348 -0.62979,-2.80739 -0.83115,-4.21783c-0.02914,-0.2041 -0.13357,-0.61558 -0.219,-1.02091z" data-paper-data="{&quot;origPos&quot;:null}" fill="#808080"/><path d="M238.14852,172.15532c0.01182,0.01713 0.02343,0.03516 0.03481,0.05412c0.36964,0.61606 -0.24642,0.9857 -0.24642,0.9857l-0.53691,-0.5649c0.02358,0.06315 0.04667,0.12642 0.06793,0.1902c0,0 0.22719,0.68158 -0.45438,0.90877c-0.68158,0.22719 -0.90877,-0.45439 -0.90877,-0.45439c-0.13918,-0.41753 -0.5353,-1.25169 -0.34741,-1.68578c0.75957,-1.75485 2.68453,-1.21372 2.68453,0.62561zM237.1993,171.51918c-0.00173,0.05912 -0.00529,0.1491 -0.00626,0.24043c0.0725,-0.06434 0.17212,-0.11461 0.30856,-0.13427c0.10037,-0.01446 -0.24112,-0.02432 -0.3023,-0.10616z" data-paper-data="{&quot;origPos&quot;:null}" fill="#808080"/><path d="M242.38582,184.50509l-0.19394,0.0574c-0.31967,-1.38524 0.15462,-2.58797 0.40839,-3.94143c0.41785,-2.09662 0.28559,-4.2608 0.69119,-6.38512c0.15702,-0.82236 0.21598,-2.07741 0.80565,-2.66708c4.80067,-1.66625 3.28756,4.97666 2.93245,7.46246c-0.21032,1.24871 0.21759,2.63714 -0.18545,3.85792c-0.40173,1.21676 -2.38688,2.33752 -3.519,2.49925c0,0 -0.62955,0.08993 -0.78866,-0.49173l-0.02125,0.01323c0,0 -0.11881,-0.17821 -0.12938,-0.4049zM243.53341,183.88929c2.51528,-0.59135 1.8006,-2.92627 2.07371,-5.06118c0.19883,-1.39179 1.23372,-4.28555 0.65596,-5.64594c-0.11122,-0.26189 -0.56785,-0.10731 -0.81868,-0.24164c-0.10231,-0.05479 -0.26989,-0.10905 -0.43742,-0.16398c-0.13194,0.36772 -0.18378,1.09555 -0.304,1.72824c-0.40521,2.13271 -0.31054,4.2613 -0.69043,6.38106c-0.19068,1.01698 -0.586,1.99986 -0.47913,3.00344z" data-paper-data="{&quot;origPos&quot;:null}" fill="#808080"/><path d="M253.8092,178.39156c-0.08171,0.17319 -0.24637,0.34358 -0.57684,0.3698c-0.00743,0.00063 -0.01489,0.00114 -0.02239,0.00154c-0.42084,0.0245 -0.60836,-0.21653 -0.69124,-0.41619c-0.02246,-0.04856 -0.03966,-0.10005 -0.05086,-0.15375l-0.16255,-0.70437l0.10703,-0.0247l-0.01331,-0.19959l0.10135,-0.00676c0.17648,-1.41886 0.84005,-3.73003 2.32871,-2.80428c2.10653,1.30999 0.77688,3.02248 -0.83926,3.84795zM254.53657,175.73065c-0.31772,0.15812 -0.49067,0.4875 -0.58031,0.86855c0.23222,-0.16191 0.4509,-0.30644 0.5008,-0.29795c0.10187,0.01735 -0.0231,0.38883 0.04046,0.30735c0.20104,-0.25773 -0.18687,-0.6271 -0.10755,-0.73705c0.05289,-0.07332 0.10729,-0.11672 0.1466,-0.1409z" data-paper-data="{&quot;origPos&quot;:null}" fill="#808080"/><path d="M192.67561,157.86676l0.03215,0.05697c0.12738,0.05095 0.25477,0.1019 0.38215,0.15286c2.65619,1.07283 6.85287,0.95724 7.75861,3.9764c0,0 0.20644,0.68814 -0.4817,0.89458c-0.68815,0.20644 -0.89458,-0.48169 -0.89458,-0.48169c-0.05259,-0.17531 -0.2848,-1.37175 -0.45201,-1.43143c-0.09467,-0.03378 0.0915,0.27078 -0.0042,0.30152c-0.24645,0.07917 -1.23506,-0.3833 -1.49878,-0.44936c-1.42395,-0.3567 -2.85117,-0.71247 -4.23716,-1.20435c0.49048,1.9549 0.7507,4.15584 2.22928,5.47029c0.12769,0.12769 0.66068,1.00371 0.75087,1.00619c0.62985,0.01728 2.52347,-0.19885 3.52995,-0.40014l0.63866,-0.3486c0,0 0.51807,0.49775 0.02032,1.01583c-0.49775,0.51807 -1.01583,0.02032 -1.01583,0.02032l0.63865,0.72142c-1.99364,0.39873 -4.15056,0.4291 -5.57866,-0.99899c-1.9978,-2.10813 -1.95388,-4.89255 -3.02129,-7.45434c0,0 -0.27632,-0.66318 0.38686,-0.9395c0.28618,-0.11924 0.50032,-0.06354 0.6513,0.03834c0.09966,0.02209 0.16541,0.05367 0.16541,0.05367z" data-paper-data="{&quot;origPos&quot;:null}" fill="#808080"/><path d="M206.56493,161.69327c0.6426,-0.32129 0.96389,0.32129 0.96389,0.32129l0.25656,-0.28895c0.16559,0.05095 0.3312,0.10191 0.4968,0.15286c0.8842,0.31286 1.68405,0.15626 2.49978,0.76448c1.08301,0.80751 0.05496,1.99193 -0.68567,2.39853c-1.42619,0.78297 -3.48546,-0.68509 -3.61922,-2.0227c0,0 -0.0117,-0.11693 0.02167,-0.26093l-0.2551,-0.1007c0,0 -0.32129,-0.6426 0.32129,-0.96389zM209.72154,163.53918c-0.30389,0.06694 -0.84213,-0.0292 -1.31664,-0.14353c0.57037,0.20072 1.48485,0.57202 1.69139,0.20894c0.06086,-0.10699 -0.32494,0.09111 -0.36849,-0.02401c-0.00456,-0.01206 -0.0065,-0.02605 -0.00626,-0.0414zM207.9816,163.28587c-0.01765,-0.00486 -0.03501,-0.00967 -0.05204,-0.01441c0.00094,0.01566 0.00196,0.0313 0.0031,0.04693c0.00528,-0.01096 0.01255,-0.01953 0.02221,-0.02494c0.00693,-0.00389 0.01589,-0.00637 0.02673,-0.00757z" data-paper-data="{&quot;origPos&quot;:null}" fill="#808080"/><path d="M196.02319,152.68473c0,-0.49166 0.19754,-0.93717 0.51759,-1.26151l-0.04518,-0.16564l0.47626,-0.79378l0.12844,-0.12844l0.00396,-0.01979l0.04352,-0.0277l0.03539,-0.03539l0.35388,-0.21233l0.34817,-0.22157l0.04748,-0.01583l0.04424,-0.02655l0.01946,0.00531l0.20578,-0.06859l0.11316,-0.00871l0.10256,-0.04859l0.36657,-0.07332l0.27978,-0.11191l0.07534,-0.08789l0.07082,-0.00394l0.03519,-0.06158l0.47266,-0.11817l0.36736,-0.18368l0.22392,-0.14928l0.06806,-0.0243l0.03019,-0.05283l0.3925,-0.09812l0.38101,-0.13608l0.05443,0.02721l0.07011,-0.01752h0.31417l0.02502,-0.00556l0.40037,-0.10009h0.05005l0.05036,-0.01119l0.01679,0.01119h0.22526l0.04045,-0.01349l0.28788,-0.02214l0.2801,-0.07003h0.97637l0.67437,-0.22479l0.14205,-0.01093l0.13066,-0.0568l0.25983,-0.04331l0.07764,-0.02772l0.06125,-0.06125l0.30384,-0.1823l0.06814,-0.11925l0.22389,-0.05597l0.1979,-0.11874l0.1325,0.03614l0.34376,-0.08594h0.58784l0.20421,-0.23824l0.07082,-0.00394l0.03518,-0.06158l0.89805,-0.22451h1.5848l0.89805,0.22451l0.03519,0.06158l0.07082,0.00394l0.60243,0.70284l0.1613,0.3226l0.14929,0.22392l0.0243,0.06805l0.05283,0.0302l0.09812,0.3925l0.13607,0.38101l-0.00922,0.01844l0.02122,0.04243l0.08953,0.40287l0.10009,0.40037v0.05005l0.01119,0.05036l-0.01119,0.01678v3.92313l0.01349,0.04045l0.02214,0.28787l0.07003,0.28011v1.5848l-0.22451,0.89805l-0.06158,0.03519l-0.00393,0.07081l-0.70284,0.60244l-0.21131,0.10565l-0.0744,0.01653l-0.06179,0.04462l-0.52826,0.21131l-0.33705,0.04596l-0.33001,0.0825h-0.10287l-0.02502,0.00556l-0.40037,0.10009h-0.05005l-0.05036,0.01119l-0.0132,-0.00881l-0.01428,0.00317l-0.40037,0.10009h-0.05005l-0.05036,0.01119l-0.01678,-0.01119h-1.045l-0.28011,-0.07003l-0.28787,-0.02214l-0.95088,-0.31696l-0.10907,-0.06941l-0.1262,-0.02804l-0.63392,-0.31696l-0.08618,-0.07386l-0.10688,-0.03817l-0.25416,-0.16944l-0.20645,-0.05161l-0.40287,-0.08953l-0.04477,-0.02238l-0.05005,-0.01251l-0.0091,-0.01594l-0.18909,-0.06303l-0.0643,-0.04092l-0.07524,-0.01214l-0.70149,-0.30064l-0.80644,-0.30241l-0.13571,-0.0936l-0.15772,-0.048l-1.05653,-0.63392l-0.15635,-0.15635l-0.1896,-0.11376l-0.53993,-0.53993l-0.06273,-0.01254l-1.62533,-0.20316l-0.2836,-0.10979l-0.29687,-0.06597l-0.81042,-0.40521c-0.27945,-0.13247 -0.51925,-0.33495 -0.69675,-0.58478l-0.04089,-0.03505l-0.00152,-0.02738c-0.18251,-0.28114 -0.28851,-0.61652 -0.28851,-0.97667zM202.117,152.11137l0.24758,0.14855l0.68887,0.68888l0.72667,0.43599l0.69206,0.25952l0.03495,0.0241l0.04191,0.00676l0.6709,0.28754l0.24609,0.08203l0.02119,0.01349h0.04475l0.07011,0.01752l0.05443,-0.02722l0.38101,0.13607l0.39251,0.09813l0.03019,0.05283l0.06805,0.0243l0.54088,0.36059l0.41974,0.20986l0.55327,0.18442h0.65664l0.02502,-0.00556l0.18066,-0.04516l-0.00507,-0.01522l-0.02214,-0.28787l-0.07003,-0.2801v-3.83991l-0.13839,0.04942l-0.27121,0.14465l-0.42261,0.10565h-0.22111l-0.21451,0.05362h-0.33364l-0.0253,0.02169l-0.11129,0.05565l-0.07272,0.04848l-0.00329,0.00892l-0.02899,0.0126l-0.11892,0.07927l-0.35516,0.12684l-0.34586,0.15038l-0.14097,0.0235l-0.02977,0.01063l-0.00851,-0.00425l-0.31567,0.05261l-0.81719,0.2724l-0.28787,0.02214l-0.28011,0.07003h-0.97637l-0.04045,0.01349l-0.28788,0.02214l-0.2801,0.07003h-0.41984l-0.02502,0.00556l-0.14064,0.03516z" data-paper-data="{&quot;origPos&quot;:null}" fill="#808080"/><path d="M215.14644,156.35711l-0.01349,-0.04045l-0.02214,-0.28788l-0.07003,-0.2801v-2.0188l-0.20144,-1.91367l0.01339,-0.09497l-0.02326,-0.09305v-1.79611l0.04339,-0.17355l-0.00851,-0.17869l0.09037,-0.45184l0.09705,-0.87341l0.06653,-0.17911l0.01466,-0.19051l0.10565,-0.31696l0.06713,-0.10549l-0.00384,-0.0141l0.01343,-0.02239l0.02073,-0.09328l0.10565,-0.2113l0.1879,-0.21922l0.14855,-0.24758l0.21131,-0.21131l0.24758,-0.14855l0.21922,-0.1879l0.10649,-0.05324l0.01002,-0.01752l0.05005,-0.01251l0.04476,-0.02238l0.09328,-0.02073l0.02239,-0.01343l0.01709,0.00466l0.27011,-0.06003l0.40037,-0.10009h0.05005l0.05036,-0.01119l0.01679,0.01119h0.11961l0.04045,-0.01349l0.28788,-0.02214l0.2801,-0.07003h0.13114l0.04045,-0.01349l0.28787,-0.02214l0.2801,-0.07002h3.59221l0.89805,0.22451l0.24492,0.42862l0.42862,0.24492l0.22451,0.89805v4.84851l0.01119,0.01678l-0.01119,0.05036v0.05005l-0.10009,0.40037l-0.08953,0.40287l-0.02168,0.04338v0.10426l-0.07003,0.28011l-0.02214,0.28787l-0.10565,0.31696l-0.01349,0.02119v0.04475l-0.10009,0.40037l-0.08953,0.40287l-0.02239,0.04476l-0.01251,0.05005l-0.01752,0.01002l-0.07493,0.14986v2.31145l0.01119,0.01679l-0.01119,0.05036v0.05005l-0.10009,0.40037l-0.00556,0.02502v0.30264l0.01119,0.01679l-0.01119,0.05036v0.05005l-0.10009,0.40037l-0.08953,0.40287l-0.02239,0.04477l-0.01251,0.05005l-0.01752,0.01001l-0.05324,0.10649l-0.60244,0.70284l-0.07081,0.00393l-0.03519,0.06158l-0.89805,0.22451h-0.84523l-0.34376,-0.08594l-0.1325,0.03614l-0.1979,-0.11874l-0.2239,-0.05597l-0.06814,-0.11925l-0.13142,-0.07886h-0.79261l-0.01679,0.01119l-0.05036,-0.01119h-0.05005l-0.40037,-0.10009l-0.40287,-0.08953l-0.01354,-0.00677l-0.73503,-0.16335l-0.19777,-0.09888l-0.21584,-0.04797l-0.17651,-0.08825c-0.27945,-0.13247 -0.51925,-0.33495 -0.69675,-0.58478l-0.04089,-0.03505l-0.00152,-0.02738c-0.12003,-0.18489 -0.20697,-0.39325 -0.25242,-0.61669l-0.16342,-0.19066l-0.1589,-0.31779l-0.01752,-0.01002l-0.01251,-0.05005l-0.02239,-0.04477l-0.08953,-0.40287l-0.10009,-0.40037v-0.05005l-0.01119,-0.05036l0.01119,-0.01678zM219.02263,156.42536l0.12577,0.06288h0.96375v-1.57326l-0.01119,-0.01678l0.01119,-0.05036v-0.05005l0.10009,-0.40037l0.08953,-0.40287l0.02239,-0.04476l0.01251,-0.05005l0.01752,-0.01002l0.07563,-0.15125l0.0994,-0.39759l0.08953,-0.40287l0.02169,-0.04337v-0.10427l0.07003,-0.28011l0.02214,-0.28787l0.10565,-0.31696l0.01348,-0.02119v-2.79174h-1.50463l-0.04045,0.01349l-0.28788,0.02214l-0.2801,0.07003h-0.13114l-0.04045,0.01349l-0.01858,0.00143l-0.03212,0.28909l-0.02767,0.0745l0.00378,0.0794l-0.07077,0.35388v1.52398l0.20144,1.91366l-0.01339,0.09497l0.02326,0.09305v1.8216l0.01349,0.04045l0.02214,0.28788l0.07003,0.2801v0.29662z" data-paper-data="{&quot;origPos&quot;:null}" fill="#808080"/><path d="M227.61353,161.55961c0,-0.08437 0.00581,-0.16738 0.01707,-0.24866l-0.12272,-0.49091v-0.31418l-0.00555,-0.02502l-0.10009,-0.40037v-0.05005l-0.01119,-0.05036l0.01119,-0.01678v-1.99309l-0.00556,-0.02502l-0.10009,-0.40037v-0.05005l-0.01119,-0.05036l0.01119,-0.01679v-2.10152l0.05363,-0.21451v-0.22112l0.05203,-0.2081v-0.09585l0.05362,-0.21451v-0.22111l0.10565,-0.42262l0.09308,-0.17453l0.04291,-0.1931l0.04857,-0.09713l0.02993,-0.08978l0.1545,-0.77248v-0.56173l0.05362,-0.21451v-0.22111l0.05202,-0.2081v-0.72977l0.08594,-0.34377l-0.03614,-0.1325l0.11874,-0.1979l0.05597,-0.22389l0.07515,-0.04295l0.00381,-0.04959l0.01349,-0.04046v-0.76506l0.07002,-0.28011l0.02215,-0.28787l0.01349,-0.04046v-2.58666l-0.01349,-0.04045l-0.02718,-0.35329l-0.07618,-0.11428l0.05007,-0.22529l-0.0177,-0.2301l0.09158,-0.10236l0.07687,-0.3459l0.10565,-0.2113l0.60244,-0.70284l0.07082,-0.00394l0.03519,-0.06158l0.89805,-0.22451h2.20718l0.01679,-0.01119l0.05036,0.01119h0.05005l0.40037,0.10009l0.02502,0.00556h1.15941l0.21451,0.05362h0.22111l0.42261,0.10565l0.27121,0.14465l0.28947,0.10338l0.31696,0.2113l0.50639,0.55702l0.06891,0.03938l0.01256,0.05023l0.03484,0.03832l-0.00546,0.07918l0.18027,0.72109l0.05434,0.10188l0.10565,0.42261v0.22111l0.05362,0.21451v6.65616l-0.05362,0.21451v0.22111l-0.05203,0.2081v2.93696l0.01119,0.01678l-0.01119,0.05036v0.05005l-0.10009,0.40037l-0.08953,0.40287l-0.02113,0.04226l-0.00055,0.0025v2.11029l-0.07003,0.2801l-0.02214,0.28788l-0.01349,0.04045v0.64787l0.01119,0.01679l-0.01119,0.05036v0.05005l-0.10009,0.40037l-0.06003,0.27011l0.00466,0.01709l-0.01343,0.02239l-0.02073,0.09328l-0.02239,0.04477l-0.01251,0.05005l-0.01752,0.01001l-0.05324,0.10649l-0.18789,0.21922l-0.14855,0.24758l-0.12844,0.12844l-0.00396,0.01979l-0.04352,0.0277l-0.03539,0.03539l-0.35388,0.21234l-0.34817,0.22156l-0.04748,0.01583l-0.04423,0.02655l-0.01152,-0.00314l-0.10237,0.06824l-0.28947,0.10338l-0.27122,0.14465l-0.42261,0.10565h-0.22111l-0.21451,0.05363h-3.90918c-0.30614,0 -0.59439,-0.07659 -0.84663,-0.21166l-0.05142,-0.01285l-0.01353,-0.02368c-0.52938,-0.31244 -0.88453,-0.88871 -0.88453,-1.54791zM232.89619,159.7635v-0.10565l0.07003,-0.2801l0.02214,-0.28788l0.01349,-0.04045v-1.91571l-0.01119,-0.01678l0.01119,-0.05036v-0.05005l0.10009,-0.40037l0.08953,-0.40287l0.02113,-0.04227l0.00056,-0.0025v-3.06116l0.05362,-0.21451v-0.22112l0.05203,-0.2081v-5.90678h-0.41108l-0.01678,0.01119l-0.05036,-0.01119h-0.05005l-0.40038,-0.10009l-0.02502,-0.00556h-0.31418v1.90176l-0.07003,0.28011l-0.02214,0.28787l-0.01349,0.04045v0.76507l-0.07003,0.28011l-0.02214,0.28787l-0.09365,0.28093l-0.00578,0.02312l0.03614,0.1325l-0.11874,0.1979l-0.04277,0.17106v0.31696l-0.05362,0.21451v0.22112l-0.05203,0.2081v0.51846l-0.04339,0.17355l0.00851,0.17869l-0.21131,1.05653l-0.04858,0.10256l-0.0087,0.11316l-0.10565,0.31696l-0.06941,0.10906l-0.02804,0.1262l-0.01748,0.03495l-0.0042,0.01683v0.09585l-0.05363,0.21451v0.22111l-0.05203,0.2081v1.78353l0.00556,0.02502l0.10009,0.40037v0.05005l0.01119,0.05036l-0.01119,0.01679v1.89022z" data-paper-data="{&quot;origPos&quot;:null}" fill="#808080"/><path d="M238.48235,157.71638l0.33044,-0.99133v-0.44811l0.01752,-0.07011l-0.02721,-0.05443l0.13607,-0.38101l0.08492,-0.33968v-2.11307l0.07003,-0.28011l0.02214,-0.28787l0.10565,-0.31696l0.06941,-0.10907l0.02805,-0.1262l0.04857,-0.09713l0.02073,-0.06217l0.08248,-0.49491l0.02919,-0.06713v-0.0732l0.10565,-0.42262l0.03314,-0.06214l0.0054,-0.07022l0.08384,-0.25152l0.0353,-0.14119v-1.34169l-0.0876,-0.61321l0.0133,-0.12859l-0.03135,-0.12542v-0.52826l0.22451,-0.89805l0.42862,-0.24492l0.24492,-0.42862l0.89805,-0.22451h1.69045l0.33001,0.0825l0.33704,0.04596l0.348,0.1392l0.44241,0.07373l0.02726,0.01185l0.0297,-0.00142l0.49986,0.09997l0.60535,0.10089l0.02727,0.01185l0.0297,-0.00142l0.35387,0.07077h0.02192l0.01679,-0.01119l0.05036,0.01119h0.05005l0.40037,0.10009l0.26634,0.05919h0.19152l0.42261,0.10565l0.00866,0.00462l0.1108,0.0277l0.13251,-0.03614l0.1979,0.11874l0.2239,0.05597l0.06814,0.11925l0.30385,0.1823l0.2113,0.21131l0.18231,0.30384l0.11925,0.06814l0.05597,0.2239l0.11874,0.1979l-0.03614,0.1325l0.08594,0.34376v0.62238l0.01119,0.01678l-0.01119,0.05036v0.05005l-0.10009,0.40037l-0.00556,0.02502v0.10287l-0.05362,0.21451v0.22112l-0.10565,0.42261l-0.00461,0.00866l-0.04185,0.16741l-0.08003,0.36014l-0.0177,0.23007l-0.10565,0.31696l-0.03856,0.06059l-0.07502,0.30006l-0.08953,0.40287l-0.02239,0.04477l-0.01252,0.05005l-0.01752,0.01001l-0.1589,0.31779l-0.07386,0.08618l-0.03817,0.10688l-0.21131,0.31696l-0.13237,0.12034l-0.09204,0.1534l-0.05283,0.05283l-0.02572,0.04286l-0.01583,0.04748l-0.20338,0.3196l-0.00792,0.10301l-0.01349,0.04045v0.65941l-0.07003,0.2801l-0.02214,0.28788l-0.08384,0.25152l-0.08893,0.35569l-0.09308,0.17453l-0.01341,0.06033l0.00466,0.01709l-0.01343,0.02239l-0.02073,0.09328l-0.10565,0.21131l-0.17766,0.20727l-0.01632,0.03058l-0.00615,0.00173l-0.00356,0.00593l-0.01583,0.04748l-0.0694,0.10907l-0.02805,0.12619l-0.09504,0.19009l0.00189,0.02747l-0.31255,0.34381l-0.2499,0.29155v1.09083l-0.06077,0.24304l-0.00835,0.25038l-0.19904,0.69662l0.00703,0.02578l-0.24446,0.40743l-0.23744,0.41156l-0.02596,0.00637l-0.17972,0.17973l-0.40416,0.2425l-0.06263,0.09395l-0.08599,-0.00478l-0.24099,0.14459l-0.72745,-0.1984l-0.31408,-0.01745l-0.01665,0.00454l-0.01004,-0.00603l-0.4121,-0.0229l-0.18289,-0.21338l-0.08309,-0.02266l-0.02971,-0.10894l-0.06393,-0.07457l-0.01351,-0.0045l-0.07973,-0.01993l-0.40287,-0.08953l-0.04477,-0.02238l-0.05005,-0.01251l-0.01001,-0.01752l-0.41493,-0.20746l-0.08469,-0.02823l-0.01946,0.00531l-0.04423,-0.02655l-0.04747,-0.01583l-0.18721,-0.11914c-0.3024,0 -0.6183,0 -0.6183,0c-0.30614,0 -0.5944,-0.07659 -0.84663,-0.21165l-0.05142,-0.01286l-0.01353,-0.02368c-0.40286,-0.23776 -0.70481,-0.62831 -0.82614,-1.09193l-0.15084,-0.08619l-0.22451,-0.89805v-0.31696l0.07003,-0.2801zM242.33958,157.50201l0.19592,0.04898l0.07524,-0.30093l0.06002,-0.27011l-0.00466,-0.01709l0.01343,-0.02239l0.02073,-0.09328l0.02239,-0.04477l0.01252,-0.05005l0.01752,-0.01002l0.05324,-0.10649l0.1879,-0.21922l0.14855,-0.24758l0.31696,-0.31696l0.11404,-0.06842l0.2019,-0.31726l0.12229,-0.2038l0.04023,-0.16089l0.03314,-0.06214l0.0054,-0.07022l0.01349,-0.04045v-0.65941l0.07003,-0.28011l0.02214,-0.28787l0.09365,-0.28093l0.00578,-0.02311l-0.03614,-0.1325l0.11874,-0.1979l0.05597,-0.2239l0.11925,-0.06814l0.04954,-0.08257l0.01583,-0.04748l0.06713,-0.10549l-0.00384,-0.0141l0.01343,-0.02239l0.02073,-0.09328l0.10565,-0.21131l0.18789,-0.21922l0.14855,-0.24758l0.19121,-0.1912l0.05062,-0.07594l0.0252,-0.0504l0.04657,-0.18629l0.08953,-0.40287l0.02239,-0.04476l0.01251,-0.05005l0.01594,-0.00911l0.05102,-0.15306l0.01993,-0.07973l0.05919,-0.26634v-0.11109l-0.48312,-0.09663l-0.60535,-0.10089l-0.02726,-0.01186l-0.0297,0.00142l-0.49986,-0.09997l-0.60535,-0.10089l-0.02168,-0.00943v0.98475l-0.05363,0.21451v0.22112l-0.10565,0.42261l-0.03314,0.06214l-0.0054,0.07022l-0.08384,0.25152l-0.07153,0.28611l-0.09386,0.56317l-0.05681,0.13065l-0.01093,0.14205l-0.10565,0.31696l-0.06941,0.10907l-0.02805,0.1262l-0.02169,0.04337v2.32298l-0.01752,0.07011l0.02721,0.05443l-0.13607,0.38101l-0.08492,0.33968v0.21131l-0.07003,0.2801l-0.01489,0.19369z" data-paper-data="{&quot;origPos&quot;:null}" fill="#808080"/><path d="M251.27988,157.54478c0,-0.16432 0.02206,-0.32349 0.0634,-0.4747l0.07341,-0.29365l0.09255,-0.64785l0.0813,-0.19955l0.02912,-0.2135l0.1392,-0.348l0.07373,-0.44241l0.02919,-0.06714v-0.0732l0.05203,-0.2081v-0.2015l0.07003,-0.28011l0.02214,-0.28787l0.01349,-0.04045v-0.02549l0.07003,-0.28011l0.02214,-0.28787l0.04941,-0.14824l0.05976,-0.47805l-0.00361,-0.00642l0.00747,-0.02456l0.01997,-0.15972l0.13401,-0.34618l0.10808,-0.35513l0.08281,-0.13803l0.00926,-0.02394l0.0068,-0.00283l0.03949,-0.06583l0.00514,-0.02053l0.04596,-0.33705l0.13921,-0.348l0.07373,-0.44241l0.08121,-0.1868v-0.0462l0.22451,-0.89805l0.42862,-0.24492l0.24492,-0.42862l0.89805,-0.22451h1.24585l0.56386,-0.08054l0.43747,-0.0875l0.38115,-0.09529h0.22112l0.21451,-0.05362h0.83369l0.01679,-0.01119l0.05036,0.01119h0.05005l0.40037,0.10009l0.40287,0.08953l0.04476,0.02238l0.05005,0.01251l0.01001,0.01752l0.10649,0.05324l0.70284,0.60243l0.00393,0.07082l0.06158,0.03519l0.22451,0.89805v1.92725l0.01349,0.04045l0.02214,0.28787l0.07003,0.28011v1.5848l-0.07003,0.28011l-0.02214,0.28787l-0.10565,0.31696l-0.06941,0.10907l-0.01855,0.08348l-0.0177,0.23007l-0.01349,0.04045v0.0255l-0.08594,0.34376l0.03614,0.1325l-0.11874,0.1979l-0.05597,0.2239l-0.09244,0.05283v0.73957l-0.08594,0.34376l0.03614,0.1325l-0.11874,0.1979l-0.05597,0.22389l-0.11925,0.06814l-0.1823,0.30384l-0.21131,0.21131l-0.30384,0.1823l-0.06814,0.11925l-0.22389,0.05597l-0.1979,0.11874l-0.1325,-0.03614l-0.02311,0.00578l-0.28093,0.09365l-0.07022,0.0054l-0.06215,0.03313l-0.35569,0.08893l-0.25152,0.08384l-0.28787,0.02214l-0.28011,0.07003h-0.11183l-1.72542,0.19171l-0.98011,0.19602l-0.17869,-0.00851l-0.17355,0.04339h-0.21131l-0.30494,-0.07624l-0.05615,-0.00267l-0.01265,-0.01453l-0.52431,-0.13108l-0.15827,-0.27698c-0.57374,-0.17622 -1.02508,-0.63207 -1.195,-1.20854l-0.01943,-0.01861v-0.0527c-0.03503,-0.14 -0.05362,-0.28651 -0.05362,-0.43737zM256.7235,155.73873l0.04479,-0.17913l0.0859,-0.38654l-0.03054,-0.11196l0.11874,-0.1979l0.05597,-0.2239l0.06665,-0.03808l0.01231,-0.1601l0.09365,-0.28094l0.01993,-0.07973l0.08953,-0.40287l0.02169,-0.04337v-0.97498l-0.01349,-0.04045l-0.02214,-0.28787l-0.07003,-0.28011v-0.35352l-0.01569,-0.00075l-0.04726,0.01925l-0.73957,0.10565l-0.12859,-0.01331l-0.03497,0.00874l-0.0076,0.05575l-0.07943,0.19858l0.01016,0.0181l-0.12989,0.42677l-0.1082,0.43278l-0.02847,0.01627l-0.00297,0.00977l-0.1219,0.20316l-0.05862,0.46902l-0.06458,0.16683l-0.01372,0.17837l-0.01349,0.04045v0.0255l-0.07003,0.2801l-0.02214,0.28787l-0.01349,0.04046v0.13114l-0.05363,0.21451v0.22111l-0.08825,0.35303l-0.05227,0.31362l1.26365,-0.14041l0.06064,0.00819z" data-paper-data="{&quot;origPos&quot;:null}" fill="#808080"/><path d="M265.35738,156.76938c-0.10884,0.08258 -0.20012,0.12169 -0.20012,0.12169l-0.15929,-0.47682c-0.02668,0.08406 -0.05403,0.16816 -0.08208,0.25233c0,0 -0.28399,0.85197 -1.13596,0.56798c-0.85197,-0.28399 -0.56798,-1.13596 -0.56798,-1.13596c0.29963,-0.8989 0.29399,-3.05706 0.80463,-3.72436c1.35582,-1.77177 4.56194,-1.11583 6.54502,-1.11583c1.98968,0 5.05292,-0.58923 6.92029,0c1.17212,0.36985 2.28613,1.9622 0.63502,2.80091c-0.90027,0.45731 -1.93431,0.4129 -2.85537,0.78695c-3.13656,1.17621 -6.83706,0.51858 -9.84512,2.02261zM265.40832,154.915c2.93674,-1.11264 6.28152,-0.64758 9.22258,-1.75049c0.09845,-0.03521 0.20038,-0.07233 0.30466,-0.11c-1.45798,0 -2.91597,0 -4.37395,0c-1.28545,0 -2.5709,0 -3.85635,0c-0.31282,0 -0.75066,0.31251 -0.97907,0.17955c-0.03884,0.29977 -0.08841,0.5983 -0.14773,0.89463c-0.05306,0.26503 -0.10944,0.52673 -0.17015,0.78631z" data-paper-data="{&quot;origPos&quot;:null}" fill="#808080"/><path d="M276.6511,165.8271c-0.07142,0.26562 -0.27565,0.64538 -0.85965,0.64538c-0.89805,0 -0.89805,-0.89805 -0.89805,-0.89805c0,-0.79924 -0.17312,-2.48599 0.33834,-3.15311c1.30486,-1.70199 4.93146,-2.81295 6.96823,-3.32319c2.01868,-0.4486 3.29891,1.0943 1.67449,2.74757c-1.42517,1.45048 -3.29984,1.53088 -5.03555,2.28102c-0.47337,0.20458 -1.16245,1.02428 -1.59805,1.36419c-0.15848,0.12326 -0.31696,0.24652 -0.47544,0.36978zM276.70016,163.60983c0.32639,-0.27871 0.65382,-0.56315 1.00403,-0.80833c-0.27957,0.13424 -0.55459,0.26311 -0.60547,0.26776c-0.09367,0.00856 -0.0468,-0.32448 -0.11364,-0.25829c-0.15682,0.15528 -0.24153,0.45143 -0.28492,0.79887zM281.78618,161.04364c-0.91279,0.27906 -1.86268,0.74774 -2.7425,1.14841c0.62392,-0.13436 1.33702,-0.17498 1.80856,-0.40001c0.12591,-0.06008 0.52007,-0.40615 0.93393,-0.7484z" data-paper-data="{&quot;origPos&quot;:null}" fill="#808080"/><path d="M183.62181,213.81559c0.36015,0 0.69554,0.106 0.97667,0.28851l0.02738,0.00152l0.03505,0.04089c0.24984,0.1775 0.45232,0.4173 0.58478,0.69675l0.07274,0.14546l0.16945,0.21181l0.1925,0.1925l0.14855,0.24758l0.1879,0.21922l0.27803,0.55607l0.08909,0.11877l0.08497,0.08498l0.14855,0.24758l0.18789,0.21921l0.19384,0.38769l0.1322,0.12018l0.17523,0.26285l0.03817,0.10688l0.07386,0.08617l0.10622,0.21245l0.13219,0.12018l0.35046,0.52569l0.03817,0.10688l0.07386,0.08618l0.21043,0.42087l0.01752,0.01001l0.01251,0.05005l0.02239,0.04476l0.08953,0.40287l0.10009,0.40037v0.05005l0.01119,0.05036l-0.00581,0.00872l0.08223,0.32895v0.05005l0.01119,0.05036l-0.01119,0.01679v0.90461l0.01119,0.01678l-0.01119,0.05036v0.05005l-0.10009,0.40037l-0.08953,0.40287l-0.02239,0.04477l-0.01251,0.05005l-0.01752,0.01001l-0.12282,0.24564l-0.07386,0.08617l-0.03817,0.10689l-0.11321,0.1698l-0.0042,0.00839l-0.06978,0.17444l0.00095,0.00348l-0.00703,0.01172l-0.07163,0.17907l-0.21163,0.29303l-0.18597,0.30995l-0.13637,0.13638l-0.008,0.01108l-0.00358,0.0005l-1.07866,1.07866l-0.08672,0.05204l-0.0613,0.08045l-0.43808,0.35046l-0.11133,0.05102l-0.0866,0.08659l-0.24847,0.14908l-0.28173,0.28172l-0.1534,0.09204l-0.12034,0.13237l-0.52569,0.35046l-0.05956,0.02127l-0.01716,0.01716l-0.10155,0.06093l-0.01479,0.01267l-0.03801,0.019l-0.1495,0.0897l-0.06814,0.11925l-0.22389,0.05597l-0.1979,0.11874l-0.1325,-0.03614l-0.34376,0.08594h-0.08761l-0.19537,0.04884l-0.38101,0.13607l-0.03519,-0.01759l-0.51272,0.25635l-0.1931,0.04291l-0.17453,0.09308l-0.04864,0.01216l-0.00399,0.00266l-0.10689,0.03817l-0.08618,0.07386l-0.07041,0.0352l-0.01002,0.01752l-0.05005,0.01251l-0.04477,0.02238l-0.40287,0.08953l-0.40037,0.10009h-0.05005l-0.05036,0.01119l-0.01678,-0.01119h-0.01216l-0.13595,0.03398h-0.0438l-0.03958,0.01874l-0.83424,0.16685l-0.24207,0.06052l-0.19741,0.0658l-0.28788,0.02214l-0.2801,0.07003h-1.05138l-0.07011,-0.01752l-0.05443,0.02721l-0.38101,-0.13608l-0.3925,-0.09812l-0.0302,-0.05284l-0.06805,-0.0243l-0.14643,-0.09762l-0.01379,0.00172l-0.04004,-0.03253l-0.04476,-0.02238l-0.31334,-0.26858l-0.3203,-0.26024l-0.03003,-0.04004l-0.03917,-0.03357l-0.00111,-0.02015l-0.03858,-0.05144l-0.14519,-0.10889l-0.16102,-0.19819l-0.1982,-0.16103l-0.18626,-0.24834l-0.43543,-0.43543l-0.14855,-0.24758l-0.1879,-0.21922l-0.0376,-0.07521l-0.28843,-0.43265l-0.03817,-0.10688l-0.07386,-0.08618l-0.0352,-0.07041l-0.01752,-0.01001l-0.01251,-0.05005l-0.02238,-0.04477l-0.07009,-0.31541l-0.40319,-0.80637l-0.01752,-0.01002l-0.01251,-0.05005l-0.02239,-0.04477l-0.08953,-0.40287l-0.10009,-0.40037v-0.05005l-0.01119,-0.05036l0.01119,-0.01678v-1.03873l-0.01759,-0.22866l-0.07003,-0.28011v-1.7523l0.07003,-0.28011l0.02214,-0.28787l0.0658,-0.19741l0.07089,-0.28354l0.22863,-0.42869l0.00777,-0.13974l0.12299,-0.10542l0.07623,-0.14293l0.13473,-0.03789l0.07598,-0.06513l0.00134,-0.00223l0.10649,-0.10649l0.14908,-0.24847l0.15635,-0.15635l0.11376,-0.1896l0.04947,-0.04947l0.25181,-0.37771l0.1322,-0.12018l0.10622,-0.21246l0.172,-0.20067l0.01699,-0.12175l0.22933,-0.16563l0.18411,-0.21479l0.12274,-0.00683l0.21426,-0.15474l0.36871,-0.14749l0.13878,-0.06939l0.11878,-0.08908l0.08497,-0.08497l0.24758,-0.14855l0.21922,-0.1879l0.07521,-0.03761l0.02182,-0.01455l0.05422,-0.05421l0.00396,-0.01979l0.04352,-0.0277l0.03539,-0.03539l0.35388,-0.21233l0.34817,-0.22157l0.04748,-0.01583l0.04423,-0.02654l0.01946,0.0053l0.41451,-0.13817l0.28787,-0.02214l0.28011,-0.07003h0.43808l0.35046,-0.08761h0.05005l0.05036,-0.01119l0.01679,0.01119h0.27501l0.13595,-0.03399h0.22112l0.21451,-0.05362h0.26284l0.35046,-0.08761h0.05005l0.05036,-0.01119l0.01679,0.01119h0.60065l0.18465,-0.0142l0.27419,-0.06093l0.40037,-0.10009h0.05005l0.05036,-0.01119l0.01678,0.01119h0.32089l0.35952,0.08988c0.23576,-0.11374 0.50017,-0.1775 0.77947,-0.1775zM179.93953,217.79225h-0.22111l-0.21451,0.05363h-0.43808l-0.35046,0.08761h-0.05005l-0.05036,0.01119l-0.01679,-0.01119h-0.16126l-0.00675,0.00405l-0.12034,0.13237l-0.26285,0.17523l-0.05956,0.02127l-0.01716,0.01716l-0.10156,0.06093l-0.01478,0.01267l-0.00047,0.00024l-0.07557,0.09301l-0.35046,0.26284l-0.15047,0.06336l-0.12395,0.10625l-0.35046,0.17523l-0.03803,0.00845l-0.10848,0.18079l-0.04947,0.04947l-0.25181,0.37771l-0.13237,0.12034l-0.09204,0.1534l-0.01888,0.01888l-0.14908,0.24847l-0.15635,0.15635l-0.11376,0.1896l-0.08723,0.08723v1.11287l0.01759,0.22865l0.07003,0.2801v0.97784l0.28366,0.56733l0.01752,0.01001l0.01251,0.05005l0.02238,0.04477l0.06467,0.29105l0.26136,0.39204l0.02127,0.05956l0.36762,0.36762l0.06651,0.11086l0.10033,0.08151l0.10889,0.14519l0.14519,0.10889l0.16103,0.1982l0.06879,0.05589h0.19889l0.011,-0.00085l0.06215,-0.03314l0.35046,-0.08761h0.0438l0.03958,-0.01874l0.83423,-0.16685l0.309,-0.07725h0.20563l0.02222,-0.01481l0.28947,-0.10338l0.27122,-0.14464l0.15918,-0.0398l0.24933,-0.12466l0.1698,-0.11321l0.06806,-0.0243l0.03019,-0.05283l0.3925,-0.09812l0.38102,-0.13607l0.05443,0.02721l0.26547,-0.06637l0.38102,-0.13607l0.03519,0.01759l0.06225,-0.03112l0.28467,-0.18978l0.31231,-0.31231l0.1896,-0.11376l0.15635,-0.15635l0.33448,-0.20069l0.26606,-0.21285l0.89558,-0.89558l0.03831,-0.09578l0.04462,-0.06179l0.01653,-0.0744l0.08761,-0.17523l0.07386,-0.08617l0.03817,-0.10689l0.0488,-0.0732v-0.50757l-0.00703,-0.02815l-0.10379,-0.20759l-0.18978,-0.28467l-0.04947,-0.04947l-0.14855,-0.24758l-0.1879,-0.21922l-0.12522,-0.25044l-0.01455,-0.02182l-0.04947,-0.04947l-0.14855,-0.24758l-0.1879,-0.21922l-0.17547,-0.35093l-0.09301,-0.07557l-0.26285,-0.35046l-0.06335,-0.15047l-0.10625,-0.12395l-0.22012,-0.44023l-0.05674,-0.05674l-0.05204,-0.08672l-0.08045,-0.0613l-0.06158,-0.07697l-0.20057,0.05015h-0.23423l-0.24918,0.08306l-0.28788,0.02215l-0.2801,0.07002h-0.78853l-0.35046,0.08761h-0.05005l-0.05036,0.01119l-0.01679,-0.01119h-0.09977z" data-paper-data="{&quot;origPos&quot;:null}" fill="#b30000"/><path d="M177.53257,221.83236c0,-0.99196 0.80415,-1.79611 1.79611,-1.79611c0.99196,0 1.79611,0.80415 1.79611,1.79611c0,0.99196 -0.80415,1.79611 -1.79611,1.79611c-0.99196,0 -1.79611,-0.80415 -1.79611,-1.79611z" data-paper-data="{&quot;origPos&quot;:null}" fill="#b30000"/><path d="M219.64698,248.28938l-0.66924,-0.66923l-0.05204,-0.08673l-0.08045,-0.06129l-0.36047,-0.45059l-0.0581,-0.05809l-0.01979,-0.00396l-0.0277,-0.04352l-0.03539,-0.03539l-0.21233,-0.35388l-0.22157,-0.34817l-0.01583,-0.04748l-0.02655,-0.04423l0.00531,-0.01946l-0.0686,-0.20578l-0.0054,-0.07022l-0.03314,-0.06214l-0.21131,-0.84523v-0.22111l-0.05362,-0.21451v-2.62979l-0.01119,-0.01678l0.01119,-0.05036v-0.05005l0.10009,-0.40037l0.08953,-0.40287l0.02239,-0.04476l0.01251,-0.05005l0.01594,-0.0091l0.02597,-0.07792l-0.00531,-0.01946l0.02655,-0.04423l0.01582,-0.04747l0.18039,-0.28348l0.06513,-0.18236l0.09812,-0.3925l0.05283,-0.03019l0.0243,-0.06806l0.36059,-0.54088l0.05564,-0.11129l0.1879,-0.21922l0.14855,-0.24758l0.23874,-0.23874l0.25313,-0.27844l0.12984,-0.15149l0.00092,-0.00277l0.1288,-0.20239l0.08069,-0.22593l0.21131,-0.31696l0.13237,-0.12034l0.09204,-0.1534l0.21131,-0.21131l0.08672,-0.05204l0.0613,-0.08045l0.39474,-0.31579l0.00313,-0.01116l0.03242,-0.01729l0.09797,-0.07837l0.34832,-0.15965l0.33808,-0.18031l0.08085,-0.02021l0.03561,-0.03561l0.11086,-0.06651l0.08152,-0.10033l0.42262,-0.31696l0.04703,-0.01981l0.03433,-0.03776l0.16898,-0.11265l0.08554,-0.08555l0.24758,-0.14855l0.21922,-0.1879l0.11129,-0.05564l0.22392,-0.14929l0.10689,-0.03817l0.08618,-0.07386l0.21131,-0.10565l0.12619,-0.02804l0.10907,-0.06941l0.31696,-0.10565l0.28787,-0.02214l0.2801,-0.07003h0.31206l0.09755,-0.05203l0.42261,-0.10565h0.22111l0.21451,-0.05363h0.27396l0.48729,-0.08121l0.14964,0.01197l0.14564,-0.0364h0.07672l0.03347,-0.01339l0.16136,-0.10757l0.17693,-0.06319l0.15231,-0.11l0.52827,-0.21131l0.05351,-0.0073l0.04556,-0.029l0.31696,-0.10565l0.28787,-0.02214l0.28011,-0.07003h2.73545l0.01678,-0.01119l0.05036,0.01119h0.05005l0.40037,0.10009l0.40287,0.08953l0.04477,0.02238l0.05005,0.01251l0.01002,0.01752l0.14875,0.07438l0.24759,0.05502l0.01709,-0.00466l0.02239,0.01343l0.09328,0.02073l0.04476,0.02239l0.05005,0.01251l0.01001,0.01752l0.10649,0.05324l0.21922,0.1879l0.24758,0.14855l0.86801,0.86802l0.01979,0.00395l0.0277,0.04352l0.03539,0.03538l0.21233,0.35388l0.22157,0.34818l0.01583,0.04747l0.02654,0.04423l-0.00531,0.01946l0.0686,0.20578l0.01966,0.25554l0.02033,0.05694l0.07386,0.08618l0.05324,0.10648l0.01752,0.01002l0.01252,0.05005l0.02238,0.04477l0.05778,0.26001l0.11864,0.06779l0.05597,0.22389l0.11874,0.1979l-0.02894,0.10609l0.04801,0.09603l0.01752,0.01001l0.01252,0.05005l0.02238,0.04476l0.08953,0.40287l0.10009,0.40037v0.05005l0.01119,0.05036l-0.01119,0.01678v0.22526l0.01349,0.04045l0.02214,0.28788l0.04268,0.1707l0.04265,0.06398l0.02431,0.06806l0.05283,0.03019l0.09813,0.3925l0.13607,0.38101l-0.02721,0.05444l0.01752,0.07011v0.20853l0.00556,0.02502l0.10009,0.40037v0.05005l0.01119,0.05036l-0.01119,0.01678v1.15065l-0.02753,0.11011l0.01366,0.11267l-0.10565,0.84523l-0.03976,0.10271v0.11014l-0.21131,0.84523l-0.03314,0.06215l-0.0054,0.07022l-0.10565,0.31696l-0.06941,0.10907l-0.02805,0.1262l-0.12313,0.24627l-0.05783,0.23134l-0.22864,0.42869l-0.00776,0.13974l-0.123,0.10542l-0.07623,0.14293l-0.13474,0.03789l-0.10703,0.09175l-0.04414,0.0515l-0.26024,0.3203l-0.04003,0.03003l-0.03357,0.03917l-0.02015,0.00111l-0.32886,0.24665l-0.15046,0.06336l-0.12395,0.10624l-0.42262,0.21131l-0.0744,0.01653l-0.06179,0.04462l-0.52827,0.21131l-0.07055,0.00962l-0.06077,0.03708l-1.69045,0.52827l-0.08393,0.00486l-0.07547,0.03703l-1.47915,0.31696l-0.05712,-0.00193l-0.05278,0.02193l-2.08557,0.31283l-1.13482,0.20633l-0.07337,-0.00478l-0.06921,0.02484l-0.79088,0.07909l-1.0214,0.42558l-0.17689,0.0267l-0.16167,0.07658l-0.34488,0.06898l-1.11493,0.47782l-0.00179,0.00314l-0.01326,0.00332l-0.17728,0.07598l-0.35685,0.05755l-0.35066,0.08767h-0.19287l-0.01349,0.00218l-0.00288,-0.00218h-0.74164l-0.89805,-0.22451l-0.89805,-1.57159l0.06292,-0.11012zM225.56304,245.51379l0.98485,-0.09848l1.0913,-0.19841l0.02849,0.00186l0.02637,-0.01096l2.05781,-0.30867l1.34385,-0.28797l1.54515,-0.48287l0.39414,-0.15766l0.18047,-0.09024l0.00075,-0.01349l0.17762,-0.15225l0.03893,-0.17521l0.15422,-0.30844l0.04348,-0.13043l0.16827,-0.67309l0.07833,-0.62665v-0.94193l-0.00556,-0.02502l-0.09366,-0.37465l-0.12557,-0.19732l-0.10565,-0.31696l-0.02214,-0.28788l-0.07003,-0.2801v-0.02549l-0.01349,-0.04045l-0.02214,-0.28787l-0.07003,-0.2801v-0.20992l-0.02168,-0.04337l-0.05778,-0.26001l-0.11863,-0.06779l-0.05597,-0.22389l-0.11874,-0.1979l0.02359,-0.08649l-0.0887,-0.13305l-0.0243,-0.06805l-0.05283,-0.0302l-0.09812,-0.3925l-0.09081,-0.25427l-0.28193,-0.28193l-0.23993,-0.05332l-0.04337,-0.02168h-2.13556l-0.29761,0.11904l-0.16136,0.10757l-0.17694,0.06319l-0.15231,0.11l-0.52826,0.21131l-0.33705,0.04596l-0.33001,0.0825h-0.27396l-0.48729,0.08121l-0.14964,-0.01197l-0.14564,0.03641h-0.2015l-0.01683,0.00421l-0.03496,0.01747l-0.40287,0.08953l-0.40037,0.10009h-0.05005l-0.05036,0.01119l-0.01679,-0.01119h-0.18422l-0.18144,0.12096l-0.08762,0.03129l-0.06125,0.06125l-0.1534,0.09204l-0.12034,0.13237l-0.27548,0.18366l-0.28061,0.21046l-0.12105,0.12105l-0.1534,0.09204l-0.12034,0.13237l-0.31696,0.21131l-0.28947,0.10338l-0.27121,0.14464l-0.04232,0.01058l-0.14415,0.11532l-0.02437,0.07309l-0.06941,0.10907l-0.02804,0.1262l-0.09504,0.19009l0.00189,0.02747l-0.31254,0.3438l-0.30239,0.35278l-0.02749,0.00153l-0.03019,0.02013l-0.09895,0.16492l-0.27256,0.27256l-0.03129,0.08762l-0.20458,0.30686l0.03382,0.12399l-0.11874,0.1979l-0.05597,0.2239l-0.11925,0.06814l-0.04954,0.08258l-0.01583,0.04747l-0.01349,0.02119v2.14801l0.11425,0.45702l0.02043,0.01557l0.36046,0.45059l0.66923,0.66923l0.05204,0.08672l0.08045,0.0613l0.17788,0.22235c0.13247,0.05951 0.25643,0.1346 0.36953,0.22295l0.30083,-0.12893l0.18548,-0.02992l0.1698,-0.08043l0.35387,-0.07077l1.10367,-0.45986l0.26236,-0.03961z" data-paper-data="{&quot;origPos&quot;:null}" fill="#b30000"/><path d="M228.80571,240.0109c0.21601,0 0.53268,0.16703 0.84936,0.42443c0.37014,0.19902 0.66245,0.52406 0.81951,0.91772c0.37063,0.5933 0.48039,1.23322 -0.12096,1.57685c-0.31244,0.52938 -0.88871,0.88453 -1.54791,0.88453c-0.99196,0 -1.79611,-0.80415 -1.79611,-1.79611c0,-0.1725 0.02432,-0.33932 0.06972,-0.49722c-0.19504,-0.80951 0.15223,-1.5102 1.72639,-1.5102z" data-paper-data="{&quot;origPos&quot;:null}" fill="#b30000"/><path d="M276.4777,220.07041c-0.32403,-0.86836 0.04807,-1.47083 0.41485,-1.82235c0.06298,-0.06511 0.13084,-0.12546 0.20299,-0.18048l0.93627,-0.72821l0.13745,0.17672l2.21296,-1.04824l0.05788,0.1222c2.49427,-0.92404 4.99892,-1.49738 7.81424,-1.68499c2.01161,-0.13405 4.2942,0.06983 5.50634,2.01317c1.663,2.6662 1.35699,5.7689 1.12926,8.72928c-0.18398,2.39176 -1.26238,6.07457 -3.27769,7.62205c-1.43257,1.10002 -4.72631,3.1143 -6.5895,3.11939c-4.47118,0.01222 -8.27389,-2.08688 -9.73363,-6.31163c-1.03569,-3.52135 -0.52573,-6.88201 1.18856,-10.00692zM280.84848,220.29251c-0.43188,0.69954 -1.31756,0.82607 -1.31756,0.82607l0.34905,0.23931c-1.47677,2.46128 -1.97834,4.87105 -1.14458,7.70583c0.78303,4.41294 7.06016,4.21489 10.07183,1.96181c1.54285,-1.15423 2.36138,-3.83724 2.50109,-5.65352c0.10501,-1.36521 0.70213,-4.73552 0.03599,-5.79575c-0.20588,-0.32766 -0.69564,-0.43012 -0.85901,-0.78091c-0.06607,-0.14186 0.49539,-0.25802 0.34918,-0.31382c-0.76748,-0.29295 -2.49236,0.03591 -3.27675,0.14043c-2.52576,0.33653 -4.53373,0.80903 -6.70924,1.67056z" data-paper-data="{&quot;origPos&quot;:null}" fill="#b30000"/><path d="M282.60729,225.52354c0,-0.99196 0.80415,-1.79611 1.79611,-1.79611c0.99196,0 1.79611,0.80415 1.79611,1.79611c0,0.99196 -0.80415,1.79611 -1.79611,1.79611c-0.99196,0 -1.79611,-0.80415 -1.79611,-1.79611z" data-paper-data="{&quot;origPos&quot;:null}" fill="#b30000"/><path d="M215.70109,152.51727c0.0186,0.25109 -0.0006,0.46958 -0.04738,0.6597c0.13629,0.69851 0.05547,1.53749 -0.3105,2.53913c-0.36164,0.98982 -1.58945,1.46264 -2.5763,1.83232c-1.87286,0.7016 -6.12366,-0.00001 -7.68147,-1.10031c-0.70292,-0.49648 -0.9797,-1.41512 -1.46954,-2.12267c0,0 -1.02236,-1.47674 0.45439,-2.49911c0.3537,-0.24487 0.68134,-0.34638 0.9751,-0.35914c0.27671,-0.5387 0.71199,-0.96414 1.28914,-1.12155c2.13305,-0.42836 5.34075,-0.4956 7.39768,0.52469l0.045,-0.01158c0,0 1.7912,-0.13268 1.92388,1.65852z" data-paper-data="{&quot;origPos&quot;:null}" fill="#ffffff"/><path d="M231.05826,158.3083c0.41884,0.2378 0.81269,0.68501 0.81269,1.52609c0,0.92244 -0.47375,1.37114 -0.93463,1.5894l-1.4643,1.02501l-0.57281,-0.8183h-0.78376v-0.09138c-2.64706,-0.25273 -5.08715,-1.03313 -7.49783,-2.3842c-0.6728,-0.37707 -1.90022,-0.465 -1.95715,-1.23416c-0.08747,-1.18174 0.22849,-2.37812 0.59635,-3.50456c0.31358,-0.96022 1.83574,-0.89174 2.82471,-1.09736c2.27985,-0.47402 4.59688,-0.90624 6.93129,-0.74315c0.78922,0.07175 3.44717,0.91472 3.39825,1.83421c-0.05267,0.99013 -0.28077,3.00257 -1.35283,3.8984z" data-paper-data="{&quot;origPos&quot;:null}" fill="#ffffff"/><path d="M206.29675,155.06399c0,-1.28955 1.04538,-2.33494 2.33494,-2.33494c1.28955,0 2.33494,1.04538 2.33494,2.33494c0,1.28955 -1.04538,2.33494 -2.33494,2.33494c-1.28955,0 -2.33494,-1.04538 -2.33494,-2.33494z" data-paper-data="{&quot;origPos&quot;:null}" fill="#3a7fa2"/><path d="M221.90906,158.10355c0,-1.28955 1.04538,-2.33494 2.33494,-2.33494c1.28955,0 2.33494,1.04538 2.33494,2.33494c0,1.28955 -1.04538,2.33494 -2.33494,2.33494c-1.28955,0 -2.33494,-1.04538 -2.33494,-2.33494z" data-paper-data="{&quot;origPos&quot;:null}" fill="#3a7fa2"/><path d="M207.23625,155.7548c0,-0.69437 0.5629,-1.25727 1.25727,-1.25727c0.69437,0 1.25727,0.5629 1.25727,1.25727c0,0.69437 -0.5629,1.25727 -1.25727,1.25727c-0.69437,0 -1.25727,-0.5629 -1.25727,-1.25727z" data-paper-data="{&quot;origPos&quot;:null}" fill="#000000"/><path d="M222.84856,158.51804c0,-0.69437 0.5629,-1.25727 1.25727,-1.25727c0.69437,0 1.25727,0.5629 1.25727,1.25727c0,0.69437 -0.5629,1.25727 -1.25727,1.25727c-0.69437,0 -1.25727,-0.5629 -1.25727,-1.25727z" data-paper-data="{&quot;origPos&quot;:null}" fill="#000000"/></g></g></svg>