<svg version="1.1" xmlns="http://www.w3.org/2000/svg" xmlns:xlink="http://www.w3.org/1999/xlink" width="937" height="415"><g transform="translate(242,23)"><g data-paper-data="{&quot;isPaintingLayer&quot;:true}" fill="none" fill-rule="nonzero" stroke="none" stroke-width="none" stroke-linecap="none" stroke-linejoin="miter" stroke-miterlimit="10" stroke-dasharray="" stroke-dashoffset="0" font-family="none" font-weight="none" font-size="none" text-anchor="none" style="mix-blend-mode: normal"><path d="M-242,392v-415h937v415z" data-paper-data="{&quot;origPos&quot;:null}" fill="#00ffb9" stroke="none" stroke-width="0" stroke-linecap="butt"/><path d="M436.28125,295v-250h46v250z" data-paper-data="{&quot;origPos&quot;:null}" fill="#3effcc" stroke="none" stroke-width="0" stroke-linecap="butt"/><path d="M-65,364v-70h546v70z" data-paper-data="{&quot;origPos&quot;:null}" fill="#61cd42" stroke="none" stroke-width="0" stroke-linecap="butt"/><path d="M422,48l-1,42l-38,-27z" data-paper-data="{&quot;origPos&quot;:null}" fill="#ff0000" stroke="#d90000" stroke-width="5" stroke-linecap="round"/><path d="M414.19526,73.19654c0.23286,-0.00078 0.40066,0.00015 0.40066,0.00015l-1.0129,0.4341c-2.88553,1.23604 -5.05384,2.06231 -8.2215,1.3023c-6.00497,-1.44077 -4.84665,-10.20381 -1.85207,-13.77595c2.28327,-2.72364 8.20263,-2.52726 11.29618,-2.24603c0,0 2.16158,0.19651 1.96508,2.35809c-0.19651,2.16158 -2.35809,1.96508 -2.35809,1.96508c-2.44764,-0.22251 -7.18365,-0.48014 -8.96181,1.80557c-0.14349,0.18445 0.51692,0.24784 0.50964,0.48142c-0.06227,1.99674 -1.18065,3.86642 0.26259,5.78651c0.16334,0.2173 -0.41415,-0.69145 -0.1644,-0.79879c0.09558,-0.04108 3.01687,0.59795 3.26787,0.55878c0.29451,-0.04596 1.98121,-1.18458 2.54652,-1.42698l1.0129,-0.4341c0,0 2.08822,3.2021 1.30934,3.98986z" data-paper-data="{&quot;origPos&quot;:null}" fill="#ff0000" stroke="none" stroke-width="0.5" stroke-linecap="butt"/><path d="M395.66667,66.59091c0,-6.90356 5.59644,-12.5 12.5,-12.5c6.90356,0 12.5,5.59644 12.5,12.5c0,6.90356 -5.59644,12.5 -12.5,12.5c-6.90356,0 -12.5,-5.59644 -12.5,-12.5z" data-paper-data="{&quot;origPos&quot;:null}" fill="#ffffff" stroke="none" stroke-width="0" stroke-linecap="butt"/><path d="M414.19526,73.19654c0.23286,-0.00078 0.40066,0.00015 0.40066,0.00015l-1.0129,0.4341c-2.88553,1.23604 -5.05384,2.06231 -8.2215,1.3023c-6.00497,-1.44077 -4.84665,-10.20381 -1.85207,-13.77595c2.28327,-2.72364 8.20263,-2.52726 11.29618,-2.24603c0,0 2.16158,0.19651 1.96508,2.35809c-0.19651,2.16158 -2.35809,1.96508 -2.35809,1.96508c-2.44764,-0.22251 -7.18365,-0.48014 -8.96181,1.80557c-0.14349,0.18445 0.51692,0.24784 0.50964,0.48142c-0.06227,1.99674 -1.18065,3.86642 0.26259,5.78651c0.16334,0.2173 -0.41415,-0.69145 -0.1644,-0.79879c0.09558,-0.04108 3.01687,0.59795 3.26787,0.55878c0.29451,-0.04596 1.98121,-1.18458 2.54652,-1.42698l1.0129,-0.4341c0,0 2.08822,3.2021 1.30934,3.98986z" data-paper-data="{&quot;origPos&quot;:null}" fill="#ff0000" stroke="none" stroke-width="0.5" stroke-linecap="butt"/><path d="M425.28125,273v-228h12v228z" data-paper-data="{&quot;origPos&quot;:null}" fill="#ffeca9" stroke="none" stroke-width="0" stroke-linecap="butt"/><path d="M404.28125,295v-21h64v21z" data-paper-data="{&quot;origPos&quot;:null}" fill="#ff0000" stroke="none" stroke-width="0" stroke-linecap="butt"/><text transform="translate(243.28125,37) scale(0.5,0.5)" font-size="40" xml:space="preserve" data-paper-data="{&quot;origPos&quot;:null}" fill="#000000" fill-rule="nonzero" stroke="none" stroke-width="1" stroke-linecap="butt" stroke-linejoin="miter" stroke-miterlimit="10" stroke-dasharray="" stroke-dashoffset="0" font-family="Marker" font-weight="normal" text-anchor="start" style="mix-blend-mode: normal"><tspan x="0" dy="0">LEVEL 14</tspan></text><path d="M142,296v-55h55v55z" data-paper-data="{&quot;origPos&quot;:null}" fill="#78461c" stroke="none" stroke-width="0" stroke-linecap="butt"/><path d="M196,295v-251h61v251z" data-paper-data="{&quot;origPos&quot;:null}" fill="#78461c" stroke="none" stroke-width="0" stroke-linecap="butt"/><path d="M256,295v-53h54v53z" fill="#78461c" stroke="none" stroke-width="0" stroke-linecap="butt"/><path d="M136,296v-56h6v56z" fill="#787878" stroke="none" stroke-width="0" stroke-linecap="butt"/><path d="M190,242v-198h6v198z" fill="#787878" stroke="none" stroke-width="0" stroke-linecap="butt"/><path d="M255,242v-197h7v197z" fill="#787878" stroke="none" stroke-width="0" stroke-linecap="butt"/><path d="M310,293v-51h7v51z" fill="#787878" stroke="none" stroke-width="0" stroke-linecap="butt"/></g></g></svg>