<svg version="1.1" xmlns="http://www.w3.org/2000/svg" xmlns:xlink="http://www.w3.org/1999/xlink" width="158" height="75"><g transform="translate(-164.5,-139.5)"><g data-paper-data="{&quot;isPaintingLayer&quot;:true}" fill="none" fill-rule="nonzero" stroke="none" stroke-width="none" stroke-linecap="butt" stroke-linejoin="miter" stroke-miterlimit="10" stroke-dasharray="" stroke-dashoffset="0" font-family="none" font-weight="none" font-size="none" text-anchor="none" style="mix-blend-mode: normal"><path d="M167,212v-70h153v70z" fill="#ffffff" stroke="#000101" stroke-width="5"/><path d="M257.69068,151.30271c0.06156,-0.01783 0.13159,-0.02797 0.21123,-0.02797c0.6595,0 0.6595,0.69539 0.6595,0.69539l-1.04392,0.28883c-0.08794,-0.0309 -0.17586,-0.06181 -0.2638,-0.09272c-0.25005,-0.12499 -0.85197,-0.44016 -1.03661,-0.73014c-0.02249,-0.03531 0.13945,-0.05276 0.10202,-0.06864c-0.18195,-0.0772 -0.59308,0 -0.7914,0c-0.5276,0 -1.0552,0 -1.5828,0c-0.18335,0 -0.80441,-0.04748 -0.85267,-0.01825c-0.31204,0.189 -0.50605,0.50251 -0.87331,0.63159c-0.25033,0.08798 -0.977,0.2446 -1.06122,0.2956c-0.20446,0.12384 -0.3162,0.44747 -0.5276,0.55631c-0.02504,0.01289 -0.00267,-0.11185 -0.01655,-0.08638c-0.32629,0.59894 -0.14202,1.60147 -0.14202,2.28349c0,0.37574 -0.05679,0.72741 0.05409,1.07816c0.16545,0.52334 0.38795,1.06527 0.47351,1.61068c0.01746,0.11125 -0.05172,0.22522 -0.03384,0.3364c0.04341,0.26999 0.37789,0.79537 0.20971,1.05437c-0.02836,0.04368 -0.1295,-0.15669 -0.11076,-0.10759c0.22401,0.58693 0.86238,0.80045 1.32453,1.19208c0.35572,0.30145 0.40439,0.55924 0.70949,0.66647c0.10347,0.04271 0.58734,0.20607 0.68488,0.35926c0.02248,0.03531 -0.13945,0.05277 -0.10202,0.06865c0.16315,0.06922 0.35174,0 0.5276,0c0.46898,0 0.93796,0 1.40693,0c0.35027,0 0.61576,0.03874 0.93458,-0.05703c0.15638,-0.04697 0.31194,-0.10043 0.47235,-0.12841c0.05327,-0.00929 0.14295,-0.04204 0.20279,-0.04453c0.0426,-0.06737 0.0852,-0.13476 0.1278,-0.20213c0,0 0.36582,-0.5786 0.91456,-0.19286c0.54874,0.38574 0.18291,0.96433 0.18291,0.96433c-0.11725,0.18544 -0.16763,0.44682 -0.35173,0.55631c-0.91478,0.54403 -2.07635,0.49509 -3.09881,0.49509c-0.37509,0 -0.96468,0.11986 -1.319,0c-0.22916,-0.07752 -0.71902,-0.46865 -0.99995,-0.49927c-0.54839,-0.19275 -0.79914,-0.64583 -1.22505,-1.00245c-0.28826,-0.24138 -0.69268,-0.37859 -0.95469,-0.65487c-0.20959,-0.22099 -0.4441,-0.45158 -0.53464,-0.74918c-0.20202,-0.66397 -0.17755,-1.37621 -0.28663,-2.05466c-0.05645,-0.35111 -0.29279,-0.81334 -0.40582,-1.17088c-0.15581,-0.49287 -0.12178,-1.00424 -0.12178,-1.51796c0,-1.32348 -0.19317,-2.92723 1.0725,-3.73686c0.47495,-0.30381 1.0531,-0.44751 1.57679,-0.63157c0.31592,-0.11103 0.58464,-0.55161 1.14314,-0.64903c0.9931,-0.17322 2.10485,-0.03569 3.11035,-0.03569c0.43079,0 0.82221,0.20377 1.15722,0.48766c0.02957,0.02506 0.44393,0.56188 0.45826,0.38249c0.08794,0.0309 0.17586,0.06181 0.2638,0.09271z" data-paper-data="{&quot;origPos&quot;:null}" fill="#ffffff" stroke="none" stroke-width="0.5"/><path d="M268.26836,164.53339c-0.65943,-0.01022 -0.64973,-0.70553 -0.64973,-0.70553l-0.00007,-0.17521c0,-0.27816 0,-0.55631 0,-0.83447c0,-0.52626 -0.04779,-1.09032 0.03384,-1.61067c0.019,-0.12111 0.12257,-0.2154 0.14202,-0.33642c0.06984,-0.43437 0,-0.94929 0,-1.39077c0,-0.41682 0,-0.83363 0,-1.25045c-0.0276,0.00039 -0.04397,-0.00125 -0.04397,-0.00125h-0.2638c-0.30803,-0.05713 -0.63319,-0.11929 -0.89342,-0.30222c0.03401,-0.02288 0.13945,-0.05276 0.10202,-0.06865c-0.22788,-0.0967 -0.49381,0.00659 -0.73615,-0.03569c-0.32501,-0.05669 -0.4881,-0.14975 -0.84664,-0.14975c-0.89399,0 -1.78798,0 -2.68197,0c0,0.54086 0,1.08171 0,1.62257c0,0.44148 -0.06984,0.95641 0,1.39078c0.07612,0.47345 0.3163,0.86939 0.35174,1.39077c0,0.55131 0.31211,1.08578 0.35174,1.66894v0.27815c0,0 0.05181,0.6361 -0.60548,0.69306c-0.65729,0.05696 -0.71353,-0.69306 -0.71353,-0.69306v-0.27815c0.05635,-0.09698 -0.01998,-0.22851 -0.05409,-0.33641c-0.13917,-0.44024 -0.29764,-0.86285 -0.29764,-1.33253c0.11393,-0.1961 -0.31694,-1.169 -0.35174,-1.39077c-0.06835,-0.43569 0,-0.9483 0,-1.39078c0,-1.11262 0,-2.22524 0,-3.33786c0.05293,-0.29432 -0.13874,-0.73788 -0.17586,-1.01991c-0.06068,-0.46105 0.10343,-1.01626 0.03385,-1.44903c-0.04265,-0.26525 -0.16807,-0.51078 -0.20971,-0.77621c-0.10949,-0.69794 0,-1.5164 0,-2.22525c0,0 0,-0.69539 0.6595,-0.69539c0.6595,0 0.6595,0.69539 0.6595,0.69539c0,0.70729 -0.11188,1.52938 0,2.22525c0.04917,0.30579 0.15933,0.45539 0.17586,0.83446c0.01976,0.45319 -0.06365,0.94275 0,1.39077c0.05061,0.35625 0.15929,0.64389 0.17586,1.01991c0,0.10622 0,0.21244 0,0.31866c1.63722,-0.03584 3.44501,-0.20221 4.8944,0.49352c0.30557,0.2148 0.3354,0.2674 0.16177,0.06864h0.2638c0,0 0.01638,0.00151 0.04397,0.00645c0,-0.04851 0,-0.09702 0,-0.14553c0,-1.82346 0,-3.64692 0,-5.47038c0,0 0,-0.69539 0.6595,-0.69539c0.6595,0 0.6595,0.69539 0.6595,0.69539c0,1.82346 0,3.64692 0,5.47038c0,0.92718 0,1.85437 0,2.78155c0,0.44248 0.06835,0.95508 0,1.39077c-0.04164,0.26542 -0.16706,0.51096 -0.20971,0.77622c-0.05123,0.31862 0.03384,0.82321 0.03384,1.17087c0,0.27816 0,0.55631 0,0.83447l-0.00007,0.19566c0,0 -0.0097,0.69532 -0.66913,0.6851z" data-paper-data="{&quot;origPos&quot;:null}" fill="#ffffff" stroke="none" stroke-width="0.5"/><path d="M278.65419,158.41404h-0.2638c-0.87615,0 -1.7629,0.04242 -2.638,0c-0.34445,-0.0167 -0.61659,-0.10116 -0.91522,-0.15014c-0.01355,0.04655 -0.02751,0.09265 -0.04192,0.13825c-0.2604,0.82372 -0.31362,1.60206 -0.42551,2.45216c-0.05034,0.38243 -0.27564,0.77859 -0.33204,1.1294c-0.05572,0.34657 -0.0374,0.73526 -0.01883,1.11262h0.01883v0.55631c0,0.08789 -0.01547,0.17198 -0.04368,0.24939c-0.06428,0.19948 -0.22315,0.446 -0.61582,0.446c-0.39267,0 -0.55154,-0.24652 -0.61582,-0.446c-0.02821,-0.07742 -0.04368,-0.1615 -0.04368,-0.24939c0,-0.53137 -0.08209,-1.14571 0,-1.66893c0.0783,-0.49905 0.30014,-0.96502 0.37142,-1.46672c0.12428,-0.8748 0.18086,-1.69119 0.45382,-2.55464c0.33731,-1.06698 0.40665,-2.45619 0.96726,-3.43057c0.13752,-0.23902 0.37899,-0.40027 0.51105,-0.64269c0.01189,-0.02184 -0.07285,0.01878 -0.07139,-0.00635c0.00567,-0.09755 0.03738,-0.19624 0.08793,-0.27815c0.18969,-0.30738 0.46078,-0.54951 0.68692,-0.82812c0.24682,-0.30409 0.50611,-0.95233 0.87933,-1.11262c0.23316,-0.10013 0.48676,-0.13578 0.73014,-0.20367c0.4247,0 0.69843,0.54496 0.90782,0.94409c0.06637,-0.04682 0.1213,0.12035 0.17405,0.18676c0.41769,0.52597 0.62587,0.81118 0.72077,1.51162c0.01243,0.09179 -0.03283,0.19214 0,0.27815c0.01506,0.03947 0.03161,-0.13128 0.0651,-0.10757c0.23053,0.16319 0.38552,0.72539 0.42865,1.00029c0.08853,0.5643 -0.02457,1.13977 0.03385,1.7034c0.03436,0.33152 0.2987,0.83201 0.40582,1.17087c0.22303,0.70551 0.5324,1.44466 0.62968,2.18377c0.1369,1.04012 0.01969,2.17865 0.01969,3.22837v0.27815c0,0 0.01712,-0.67686 -0.00023,0.01829c-0.01735,0.69515 -1.31877,-0.01829 -1.31877,-0.01829v-0.27815c0,-0.91845 0.14759,-1.9907 0.01969,-2.89105c-0.10047,-0.70723 -0.38779,-1.40563 -0.60138,-2.08129c-0.01891,-0.05982 -0.03889,-0.12018 -0.05953,-0.18098c-0.06358,0.00935 -0.10621,0.00743 -0.10621,0.00743zM275.69714,157.05896c0.21407,0.03827 0.60597,-0.03569 0.84665,-0.03569c0.60298,0 1.20594,0 1.80892,0c-0.00223,-0.01547 -0.00433,-0.03092 -0.00628,-0.04636c-0.06475,-0.51134 0.15915,-1.1855 -0.06511,-1.65407c-0.12601,-0.26331 -0.71777,-0.95103 -0.46249,-1.2202c0.0195,-0.02056 0.05394,0.01553 0.08345,0.05717c-0.23473,-0.38241 -0.53634,-0.68232 -0.76643,-1.05616c-0.05167,0.06961 -0.10175,0.14069 -0.15239,0.21088c-0.27141,0.3762 -0.6277,0.62856 -0.78128,1.008c-0.04744,0.11719 -0.2126,0.62703 -0.42312,0.73541c-0.02504,0.01289 -0.00267,-0.11185 -0.01655,-0.08638c-0.31376,0.57592 -0.47414,1.27134 -0.6192,1.96361c0.17881,0.04173 0.35823,0.08882 0.55383,0.12378z" data-paper-data="{&quot;origPos&quot;:null}" fill="#ffffff" stroke="none" stroke-width="0.5"/><path d="M291.9761,162.72546c0,0.69539 -1.12584,0.49171 -1.12584,0.49171l-0.17586,-0.18544c-0.308,-0.42017 -0.38933,-0.9021 -0.70347,-1.29807c-0.46491,-0.58601 -1.09392,-1.29501 -1.65815,-1.76747c-0.44038,-0.36875 -0.98261,-0.54828 -1.41398,-0.93462c-0.09751,-0.08733 -0.07836,-0.26806 -0.16883,-0.36345c-0.23424,-0.24698 -0.5636,-0.38974 -0.80397,-0.64319c-0.1551,-0.16353 -0.31703,-0.32469 -0.47962,-0.48659c-0.03663,0.73472 -0.09657,1.5083 -0.01119,2.18565c0.03361,0.26668 0.16807,0.51079 0.20971,0.77622c0.11093,0.70709 -0.07387,1.3224 0.14202,2.00534c0,0 0.20855,0.65971 -0.4171,0.87961c-0.62565,0.21991 -0.8342,-0.43981 -0.8342,-0.43981c-0.26517,-0.83878 -0.07498,-1.60719 -0.20971,-2.44514c-0.01946,-0.12101 -0.125,-0.21499 -0.14202,-0.33641c-0.15217,-1.08581 -0.03384,-2.27704 -0.03384,-3.37233c0,-0.67411 -0.24189,-1.37167 -0.33204,-2.05658c-0.11689,-0.88803 -0.19556,-1.75169 -0.19556,-2.67205c0,-0.53697 -0.06502,-1.46279 0.46249,-1.77651c0.25085,-0.14918 0.5417,-0.20644 0.81254,-0.30966c0.45932,0 0.84314,-0.25789 1.28632,-0.33519c1.12997,-0.19709 2.40753,-0.03568 3.55002,-0.03568c0.41343,0 1.04012,-0.04644 1.39102,0.2062c0.21466,0.15455 0.37643,0.37803 0.56465,0.56704c0.35841,0.56686 0.40155,1.50624 0.09108,2.1306c-0.22117,0.44477 -0.65492,0.65728 -0.87694,1.06481c-0.01189,0.02184 0.07285,-0.01879 0.07139,0.00634c-0.00567,0.09755 -0.03073,0.20125 -0.08793,0.27815c-0.78761,1.059 -2.07947,1.86288 -3.35159,1.95898c-0.58024,0 -1.2539,-0.1009 -1.82708,-0.0034c0.03058,0.03976 0.06153,0.07899 0.09508,0.11436c0.35174,0.37088 0.70346,0.74174 1.0552,1.11262c0.18409,0.19411 0.42277,0.27943 0.60296,0.46943c0.20959,0.22099 0.30178,0.55582 0.53464,0.74918c0.02859,0.02373 0.06294,-0.06128 0.09794,-0.0508c0.31709,0.09494 0.69431,0.38283 0.95022,0.59969c0.48059,0.40726 0.89593,0.92557 1.33158,1.38493c0.35204,0.3712 0.73591,0.73998 0.96173,1.2186c0.09805,0.20781 0.22575,0.86328 0.26934,0.63577l0.17586,0.18544c0,0 0.19317,-0.20368 0.19317,0.49171zM285.17365,154.57011c0.01418,-0.00528 0.02844,-0.01021 0.04285,-0.01455c0.73987,-0.22224 1.553,-0.1284 2.31896,-0.1284c0.12667,0.08182 0.4502,-0.10313 0.58285,-0.14975c0.38434,-0.13509 0.6742,-0.27103 0.97328,-0.57376c0.04458,-0.04513 0.43047,-0.45278 0.54018,-0.45776c0.05473,-0.00249 -0.03321,0.2157 0.00396,0.17326c0.19315,-0.22045 0.18755,-0.57152 0.33519,-0.82812c0.05595,-0.09724 0.4265,-0.52919 0.5276,-0.55631c0.04217,-0.01131 -0.01405,0.1801 0.0024,0.13763c0.0471,-0.12161 0.09379,-0.75518 0.15618,-0.85126c0.02836,-0.04368 0.1295,0.15669 0.11076,0.10759c-0.03945,-0.10338 -0.11725,-0.18544 -0.17587,-0.27816c0.07097,0.00358 0.27491,0.04735 0.21292,0.01074c-0.53295,-0.31474 -1.3662,-0.16468 -1.95045,-0.16468c-0.6947,0 -1.59125,-0.15408 -2.25358,-0.03569c-0.57461,0.10271 -1.07109,0.39615 -1.67157,0.40629c0.00417,0.04648 0.01211,0.09372 0.01211,0.13934c0,0.52741 -0.11357,1.23131 -0.03384,1.72718c0.04265,0.26525 0.16807,0.51079 0.20971,0.77622c0.02797,0.1783 0.04406,0.36793 0.05635,0.56018zM284.92707,151.332c0.01376,-0.0179 0.0269,-0.03687 0.03987,-0.05617c-0.01015,-0.03464 -0.01801,-0.06712 -0.02551,-0.04746c-0.01258,0.03295 -0.01551,0.06787 -0.01436,0.10363z" data-paper-data="{&quot;origPos&quot;:null}" fill="#ffffff" stroke="none" stroke-width="0.5"/><path d="M310.09649,164.1194c-0.03706,0.41619 -0.45707,0.56381 -0.45707,0.56381c-0.4373,0.15369 -0.81606,0.15042 -1.26375,0.22113c-0.67426,0.10649 -1.58641,0.38441 -2.28627,0.18544c-0.84659,-0.24069 -1.61289,-0.67087 -2.22501,-1.31629c-0.40668,-0.42881 -1.09241,-0.56597 -1.40693,-1.11262c-0.14764,-0.2566 -0.19341,-0.56788 -0.33519,-0.82812c-0.01387,-0.02547 0.00849,0.09926 -0.01655,0.08637c-0.0745,-0.03835 -0.14459,-0.10448 -0.17587,-0.18544c-0.22176,-0.57407 -0.29273,-1.52602 -0.19316,-2.16064c0.07225,-0.4605 0.31258,-0.87851 0.38558,-1.33252c0.0445,-0.27677 0.0061,-0.49977 0.08794,-0.83446c0.34211,-1.08218 0.65547,-2.50724 1.65418,-3.14609c0.07082,-0.04531 0.59655,-0.32048 0.78539,-0.35342c0.24235,-0.04227 0.50827,0.06101 0.73615,-0.03569c0.03742,-0.01588 -0.12451,-0.03333 -0.10203,-0.06865c0.0589,-0.09252 0.16317,-0.1514 0.2638,-0.18544c0.53387,-0.1806 1.13232,-0.11679 1.68482,-0.11679c0.79969,0 2.05705,0.33173 2.48881,1.13086c0.17631,0.32633 0.21096,0.71873 0.34934,1.0648c0.05363,0.1341 0.19918,0.20893 0.26066,0.33924c0.19218,0.40731 0.25909,0.86355 0.42865,1.27845c0.05592,0.13683 0.28587,0.53301 0.31595,0.65067c0.13588,0.53139 0.06963,1.15494 0.06963,1.70176c0,1.53538 0.04151,3.27858 -1.04909,4.45366zM308.79111,163.49318c0.04239,-0.19853 0.17582,-0.51427 0.59582,-0.53487c0.51209,-1.02284 0.43965,-2.17212 0.43965,-3.29257c0,-0.32022 -0.0865,-0.80784 0,-1.11261c0.00729,-0.02568 0.07762,0.05827 0.06963,0.03283c-0.28118,-0.89469 -0.7568,-1.70285 -1.10514,-2.55301c-0.13291,-0.32438 0.0381,-0.57367 -0.27221,-0.80701c-0.30215,-0.2272 -0.92645,-0.33519 -1.28632,-0.33519c-0.20844,0 -0.89048,0.11891 -1.0552,0c-0.04142,-0.02991 0.14859,-0.13655 0.10202,-0.11679c-0.3111,0.13201 -0.57411,0.37965 -0.89342,0.48767c-0.18579,0.06285 -0.3881,0.04443 -0.58285,0.05703c-0.02384,0.00154 0.01469,-0.08781 -0.00601,-0.07527c-0.83612,0.50644 -1.05302,1.70877 -1.33555,2.60246c-0.18041,0.1943 -0.08229,0.81664 -0.17586,1.11262c-0.14186,0.44876 -0.22996,0.69884 -0.22996,1.17088c0,0.06134 0.0272,0.77563 0.00268,0.83114c0.14117,0.17355 0.3878,0.44682 0.40315,0.7106c0.02104,0.36176 1.00459,0.76998 1.33555,1.11897c0.11725,0.12363 0.27898,0.21376 0.35173,0.37087c0.01223,0.0264 -0.10607,0.00282 -0.08192,0.01745c0.18772,0.1137 0.41488,0.13357 0.61399,0.22317c0.1522,0.0685 0.25144,0.24257 0.40853,0.29746c0.20214,0.07063 0.57693,0 0.7914,0c0.63811,0 1.29397,-0.05013 1.9103,-0.20582z" data-paper-data="{&quot;origPos&quot;:null}" fill="#ffffff" stroke="none" stroke-width="0.5"/><text transform="translate(172.74556,156.65181) scale(0.23217,0.23217)" font-size="40" xml:space="preserve" data-paper-data="{&quot;origPos&quot;:null}" fill="#000000" fill-rule="nonzero" stroke="none" stroke-width="1" stroke-linecap="butt" stroke-linejoin="miter" stroke-miterlimit="10" stroke-dasharray="" stroke-dashoffset="0" font-family="Marker" font-weight="normal" text-anchor="start" style="mix-blend-mode: normal"><tspan x="0" dy="0">NOUVEAU SUCCES !</tspan></text><path d="M309.01479,151.94301c0.00721,0.0045 0.01439,0.00905 0.02154,0.01365c-0.00225,-0.00482 -0.00544,-0.00884 -0.00975,-0.01186c-0.00534,-0.00374 -0.00915,-0.00409 -0.01179,-0.00179zM309.83002,161.27211c-0.22363,0.53078 -0.86623,0.53078 -0.86623,0.53078c-0.51293,0 -0.94409,-0.16171 -1.42807,-0.29949c-0.05501,-0.01566 -0.41369,-0.09212 -0.43291,-0.10537c-0.11028,-0.07602 -0.21536,-0.15927 -0.31722,-0.24656c-0.5975,-0.0788 -1.15003,-0.35092 -1.5938,-0.74526c-0.26071,-0.1206 -0.51433,-0.27902 -0.70623,-0.39405c-0.19099,-0.12733 -0.47232,-0.28761 -0.58308,-0.49442c-0.0049,-0.00914 -0.00979,-0.01834 -0.01468,-0.02759c-0.06418,0.09672 -0.12571,0.18607 -0.16821,0.26078c-0.40656,0.71481 -0.99412,1.84928 -1.86943,2.0781c-0.19919,0.05207 -0.40639,0.06629 -0.60958,0.09943c-0.33703,0 -0.60231,-0.08925 -0.80642,-0.24064c-0.24535,0.01583 -0.43207,-0.06748 -0.57024,-0.17954l-0.36315,-0.18157l0.08296,-0.16592c-0.02394,-0.04722 -0.04402,-0.09672 -0.05982,-0.1481l-0.11871,-0.35614l0.01912,-0.00637c-0.01564,-0.06892 -0.02978,-0.13894 -0.04231,-0.20974c-0.11153,0.09572 -0.22578,0.18812 -0.34275,0.27672c-0.09995,0.07571 -0.69322,0.07957 -0.74983,0.08108c-0.39699,0.01057 -0.79585,0 -1.19302,0c-0.83189,0 -1.56791,-0.22435 -2.10891,-0.8661c0.01903,0.10895 0.03251,0.21617 -0.02596,0.30099c-0.23986,0.34795 -0.53331,0.65772 -0.83239,0.95631c-0.16127,0.16101 -0.44727,0.09484 -0.67458,0.11112c-0.59506,0.04264 -0.7313,-0.08428 -1.35669,-0.40144c-0.04622,-0.04622 -0.33435,-0.22767 -0.35878,-0.25906c-0.06456,-0.08298 -0.12449,-0.16755 -0.17938,-0.25375c-0.45817,-0.15633 -0.58865,-0.67823 -0.58865,-0.67823c-0.06035,-0.24138 -0.08648,-0.47415 -0.10155,-0.70602c-0.02682,0.03217 -0.055,0.06408 -0.08458,0.09574c-0.0806,0.08625 -0.20604,0.25409 -0.30949,0.30949c-0.18237,0.09767 -0.37718,0.17007 -0.56577,0.2551c-0.23557,0.05889 -0.46969,0.03629 -0.70347,0.07468c-0.29344,0.04819 -0.66352,0.1552 -0.96681,-0.0397c-0.36695,-0.23581 -0.57067,-0.429 -0.81175,-0.76907c-0.17525,-0.24721 -0.20937,-0.53444 -0.31317,-0.80892c-0.02833,-0.07492 -0.09245,-0.13386 -0.12849,-0.20466c-0.05111,0.15406 -0.12537,0.31834 -0.14065,0.468c-0.00187,0.0183 0.03547,-0.05625 0.0397,-0.03835c0.0614,0.25977 -0.09773,0.51414 -0.14287,0.76049c-0.00591,0.03223 0.02259,-0.11787 0.0397,-0.08993c0.13487,0.22017 -0.13738,0.49888 -0.23311,0.73867c-0.13472,0.20207 -0.27036,0.48341 -0.50932,0.78848c-0.04537,0.05792 -0.04529,0.15593 -0.10965,0.19157c-0.44847,0.24833 -0.86365,0.42023 -1.36591,0.34454c-0.18863,-0.02843 -0.41927,-0.00798 -0.55416,-0.14287c-0.08626,-0.08626 -0.16824,-0.17676 -0.2471,-0.27003c-0.00793,0.00017 -0.01594,0.00025 -0.02404,0.00025c-0.46068,0 -0.64706,-0.27429 -0.72248,-0.49624c-0.03183,-0.08283 -0.04983,-0.17252 -0.05116,-0.26624c-0.24339,0.23342 -0.52927,0.41715 -0.8902,0.56803c-0.23139,0.07713 -0.46592,0.09129 -0.7089,0.09129c-0.43479,0 -0.51899,-0.01569 -0.99658,-0.23311c-1.2399,-0.56445 -1.11826,-2.04567 -1.11826,-3.17126c0,-0.06192 -0.00752,-0.14547 -0.01668,-0.23353c-0.12326,0.01164 -0.29477,0.0272 -0.34439,0.0272c-0.06774,0 -0.13755,0.00252 -0.20257,0.02127c-0.02286,0.01677 -0.05047,0.03597 -0.06714,0.05229c0.02056,0.13948 0.01181,0.46196 0.01181,0.54541c0,0.5674 0,1.13479 0,1.70218c0,0.16064 0.0601,0.47228 0,0.61898c-0.1098,0.26803 -0.16491,0.64363 -0.43294,0.75343c-0.53304,0.21837 -0.80695,0.22662 -1.32082,0.22662c-0.05158,0 -0.10401,-0.0093 -0.15474,0c-0.02974,0.00545 0.11153,-0.00928 0.08993,0.01188c-0.15495,0.1517 -0.78206,0.13022 -1.01839,0.09129c-0.60514,-0.09968 -1.1513,-0.54853 -1.34094,-1.131c-0.24387,-0.29886 -0.18343,-0.58981 -0.08809,-0.78305c0.02495,-0.0559 0.05633,-0.10829 0.09321,-0.15625c0.01122,-0.0449 0.02286,-0.08969 0.03441,-0.13446c0.00635,-0.02464 0.00741,-0.05479 0.01171,-0.08239c-0.00116,-0.06327 -0.00848,-0.12558 -0.01874,-0.18788c-0.03162,0.02133 -0.06407,0.0422 -0.0975,0.06259c-0.04466,0.02723 -0.14238,0.09995 -0.1538,0.0572c-0.08433,0.07334 -0.16869,0.14703 -0.26066,0.21031c-0.35908,0.24704 -0.85962,0.44732 -1.27749,0.53089c-0.41326,0.08099 -0.81699,0.21605 -1.23495,0.27293c-0.54967,0.07481 -1.25134,0.04179 -1.79211,-0.0397c-0.23488,-0.0354 -0.47898,-0.21059 -0.68379,-0.26978c-0.15937,-0.04606 -0.33277,-0.00073 -0.49714,-0.0231c-0.38331,-0.05217 -0.7578,-0.25814 -0.97193,-0.57934c-0.34105,-0.53583 -0.67672,-1.06667 -1.03163,-1.59902c-0.15007,-0.2251 -0.25485,-0.48068 -0.33627,-0.73867c-0.01321,-0.04185 -0.03802,-0.13972 -0.01614,-0.15505c-0.00173,-0.00498 -0.0035,-0.00991 -0.00533,-0.01474c-0.06891,-0.18151 -0.13574,-0.3645 -0.18485,-0.55234c-0.09673,-0.37001 0,-0.9097 0,-1.28953c0,-0.73822 0.04056,-1.44549 0.11819,-2.16341c0.02042,-0.18887 0.04556,-0.62676 0.17942,-0.76349c0.02115,-0.0216 0.00881,0.12001 0.01188,0.08993c0.02938,-0.28791 -0.12182,-0.90389 0.09129,-1.12155c0.02115,-0.0216 0.00643,0.11967 0.01188,0.08993c0.0093,-0.05074 0,-0.10316 0,-0.15474c0,-0.39639 -0.10693,-1.03521 0.09129,-1.37946c0.10955,-0.19026 0.22161,-0.38057 0.35641,-0.55385c0.16612,-0.21352 0.47794,-0.26407 0.73867,-0.33627c0.1657,-0.04588 0.34388,0 0.51581,0c0.39546,0 0.79091,0 1.18637,0c0.2964,0 0.96172,-0.1157 1.17313,0.09129c0.0216,0.02115 -0.11967,0.00643 -0.08993,0.01188c0.05074,0.0093 0.10316,0 0.15474,0c0.1301,0.00878 0.4437,0.09243 0.56739,0.10316c0.34707,0.03012 0.68318,-0.00594 1.02862,0.06661c0.17012,0.03573 0.38137,0.00623 0.50558,0.12784c0.0216,0.02115 -0.11967,0.00643 -0.08993,0.01188c0.39075,0.0716 0.60732,-0.00917 1.04816,0.12995c0.20205,0.06376 0.37603,0.20354 0.51977,0.37581c0.04481,-0.08517 0.0917,-0.16929 0.13942,-0.25275c-0.00575,0.00599 -0.01144,0.01202 -0.01704,0.01813c0.10982,-0.32946 0.47586,-0.70005 0.75431,-0.86982c0.12933,-0.07886 0.26516,-0.14677 0.40189,-0.21218c-0.01303,-0.02054 0.07418,-0.08102 0.11392,-0.09731c0.22749,-0.09319 0.46418,-0.16374 0.70185,-0.22662c0.20188,-0.05341 0.53554,0.03146 0.7089,0.14287c0.22096,0.14199 0.46993,0.27544 0.61192,0.4964c0.36035,0.56073 0.32978,1.09954 0.32978,1.73347c0,0.60178 0,1.20356 0,1.80535c0,0.14731 -0.02007,0.31717 -0.01459,0.47383c0.01945,-0.01209 0.07514,0.07724 0.09746,0.11386c0.05073,0.0832 0.09694,0.1691 0.14086,0.25619c0.07201,0.03934 0.14103,0.0852 0.20819,0.13366c0.01244,0.00151 0.02364,0.00252 0.03231,0.00252c0.11259,0 0.22519,0 0.33778,0c0.02122,-0.02954 0.11677,-0.06226 0.1615,-0.07638c0.09635,-0.03041 0.19455,-0.05449 0.29354,-0.07535c0.00891,-0.01513 0.01664,-0.02949 0.0206,-0.04136c0.03439,-0.10316 0.08356,-0.20253 0.10316,-0.30949c0.00591,-0.03223 -0.02259,0.11787 -0.0397,0.08993c-0.05389,-0.08797 0,-0.20633 0,-0.30949c0,-0.47399 -0.07713,-1.02761 0,-1.49586c0.03101,-0.18822 0.10849,-0.36652 0.14287,-0.55416c0.00591,-0.03223 -0.02259,0.11787 -0.0397,0.08993c-0.09779,-0.15964 0.04455,-0.37288 0.09129,-0.55416c0.19228,-0.74582 0.96972,-1.09644 1.66248,-1.09644c0.30694,0 0.76589,-0.05358 1.01839,0.14287c1.20126,0.93459 1.25119,2.43652 1.25119,3.82889c0,0.50612 -0.05139,1.04376 0,1.54744c0.00307,0.03008 -0.00928,-0.11153 0.01188,-0.08993c0.05092,0.05201 0.08117,0.13686 0.09815,0.23847c0.02846,-0.0809 0.06484,-0.16249 0.08442,-0.23847c0.11506,-0.4463 0.27954,-0.80396 0.54798,-1.17931c0.11652,-0.11652 0.14806,-0.43614 0.27652,-0.62757c0.00501,-0.02382 0.01048,-0.0472 0.01267,-0.06328c0.02758,-0.20261 0.02516,-0.42257 0.12626,-0.6003c0.22965,-0.40373 0.27002,-0.42595 0.513,-0.66894c0.03439,-0.03439 0.06878,-0.06877 0.10316,-0.10316c0.03439,-0.03439 0.15146,-0.10887 0.10316,-0.10316c-0.06559,0.00775 -0.13192,0.16786 -0.16451,0.11042c-0.0516,-0.09097 0.02838,-0.20751 0.05158,-0.30949c0.07946,-0.34927 0.24538,-1.0074 0.53207,-1.23045c0.17327,-0.13481 0.36923,-0.23761 0.55385,-0.35641c0.44522,-0.14841 0.8612,-0.19445 1.32788,-0.19445c0.10804,0 0.41225,-0.04611 0.51581,0c0.30772,0.137 0.69005,0.24332 0.85659,0.53611c0.36118,0.63497 0.58688,1.5056 0.77091,2.21638c0.05007,0.20027 0.08178,0.42604 0.15474,0.61897c0.03468,0.09169 0.12295,0.15944 0.14774,0.25429c0.03177,0.12151 0.04987,0.24616 0.06564,0.371c0.03176,-0.01199 0.0703,0.11386 0.09242,0.16481c0.05776,0.13306 0.0969,0.26978 0.13094,0.4072c-0.04368,-0.65168 0.00221,-1.3242 0.00221,-1.9774c0,-0.46321 -0.07501,-0.98879 0,-1.44418c0.03774,-0.22913 0.00007,-0.52063 0.17391,-0.67458c0.28454,-0.25199 0.59542,-0.47491 0.91625,-0.67868c0.10828,-0.06877 0.24878,-0.06377 0.37013,-0.10537c0.72692,-0.24922 1.42316,-0.2367 2.18155,-0.2367c0.38315,0 0.81493,-0.05698 1.19302,0c0.22962,0.0346 0.44357,0.15034 0.67458,0.17391c0.02228,0.00227 -0.06848,-0.04318 -0.04668,-0.04833c0.31622,-0.07474 0.62587,0.11897 0.92574,0.17391c0.03924,0.00719 -0.14348,-0.0275 -0.10947,-0.04833c0.18777,-0.11502 0.79249,0.0624 1.00099,0.14387c0.404,0.15787 0.67745,0.34823 0.9836,0.63431c0.14008,0.1309 0.36439,0.47801 0.54715,0.51023c0.06279,0.04186 0.14203,0.06602 0.18837,0.12558c0.28872,0.37111 0.87756,1.36191 0.67057,1.9139c-0.10522,0.28059 -0.23653,0.55143 -0.37674,0.81627c-0.25193,0.47588 -0.57207,1.16767 -1.02935,1.48227c-0.2364,0.16263 -0.49769,0.28573 -0.7471,0.42759c-0.14105,0.08022 -0.2587,0.27492 -0.38312,0.32589c-0.04615,0.0189 -0.09274,0.03662 -0.13965,0.05343c0.09258,0.08629 0.20833,0.19023 0.26523,0.24713c0.13432,0.13432 0.22026,0.12055 0.35878,0.25906c0.5074,0.5074 0.8885,1.11379 1.39935,1.62465c0.32917,0.32917 0.45518,0.61167 0.54023,0.96741c0.08801,-0.15581 0.18231,-0.30908 0.21181,-0.47146c0.00872,-0.04797 -0.0783,0.15119 -0.09943,0.10726c-0.04537,-0.09431 -0.0144,-0.2103 0,-0.31395c0.03194,-0.23001 0.13206,-0.44617 0.17391,-0.67458c0.00719,-0.03924 -0.03222,0.07298 -0.04833,0.10947c0,-1.81605 -0.13771,-3.80844 0.2367,-5.44665c0.01053,-0.03159 0.02334,-0.0626 0.03499,-0.09391c-0.0071,0.01629 -0.01441,0.025 -0.02053,0.015c-0.17784,-0.29031 0.23435,-1.16738 0.28377,-1.27593c0.03127,-0.06868 0.05956,-0.15181 0.12558,-0.18837c0.30872,-0.17094 0.64017,-0.29946 0.97204,-0.41941c0.13822,-0.04996 0.41687,0 0.56511,0c0.57522,0 1.30764,-0.06831 1.67064,0.52702c0.34345,0.56328 0.55121,1.16254 0.63829,1.80606c0.01721,-0.03147 0.03312,-0.06245 0.04692,-0.09276c0.23757,-0.52187 0.90059,-0.97774 1.36711,-1.26183c0.38871,-0.19436 0.83671,-0.51834 1.25581,-0.6279c0.71661,-0.18734 1.69986,-0.17253 2.41439,0.01169c0.16188,0.04173 0.42282,0.10161 0.56511,0.18837c0.17276,0.10533 0.33364,0.22937 0.49373,0.35311c0.12548,0.09699 0.26344,0.35677 0.42157,0.38464c0.33329,0.22219 0.70443,0.4288 0.95982,0.74558c0.55816,0.69232 0.78868,1.59667 1.00123,2.44685c0.10932,0.43727 0.21929,0.88011 0.26647,1.3294c0.01378,0.13123 -0.00356,0.26506 -0.00014,0.39681c0.00913,0.00864 0.01824,0.01731 0.02732,0.026c0.00003,-0.00024 0.00006,-0.00047 0.00009,-0.00071c0.00013,0.00039 0.00026,0.00078 0.00039,0.00117c0.03731,0.0357 0.07423,0.0718 0.11073,0.1083c0.0444,0.0444 0.01606,0.12767 0,0.18837c-0.00428,0.01618 -0.0085,0.03248 -0.01267,0.04885c0.18664,0.7868 0.13825,1.57934 0.13825,2.39997c0,0.3512 0.10631,0.91894 0,1.25581c-0.0664,0.21042 -0.37296,1.07771 -0.66051,1.27593c-0.25399,0.17508 -0.5376,0.30272 -0.8064,0.45408c-0.30981,0.07745 -0.62266,0.24225 -0.93524,0.29374c-0.43844,0.07222 -0.87442,0.11885 -1.31533,0.14546zM300.26762,150.70526c0.00685,-0.02065 0.01272,-0.04154 0.01664,-0.06294c0.00393,-0.02144 -0.00465,0.02341 -0.01664,0.06294zM292.52184,155.41005c0.00715,-0.00423 0.01432,-0.00845 0.02149,-0.01266c-0.00864,-0.00501 -0.01719,-0.01015 -0.02565,-0.01542c0.00142,0.00937 0.00281,0.01872 0.00416,0.02808zM297.89737,158.14656c-0.0028,-0.0011 -0.00559,-0.00221 -0.00837,-0.00334c0.01689,0.02111 0.03476,0.04138 0.05387,0.06049c0.01888,0.01888 -0.01543,-0.01738 -0.04551,-0.05715zM283.41724,154.07635c0.00324,-0.01766 -0.00386,0.01941 -0.01374,0.05195c0,0.00475 0,0.0095 -0.00002,0.01425c0.00514,-0.02219 0.00975,-0.04427 0.01376,-0.0662zM289.77119,157.7275c-0.00275,0.05035 -0.00678,0.10031 -0.0126,0.14962c-0.00041,0.00344 -0.00073,0.00696 -0.00099,0.01056c0.00537,-0.01122 0.0107,-0.02057 0.01602,-0.02669c0,-0.01081 0,-0.02163 0,-0.03244c0,-0.03489 -0.00085,-0.06846 -0.00242,-0.10105zM284.56396,159.53074c-0.00014,-0.00013 -0.00028,-0.00027 -0.00042,-0.0004c-0.00483,-0.00022 -0.00556,-0.00021 0.00036,0.00039c0.00002,0 0.00004,0 0.00006,0.00001zM286.67874,155.59406c0,0.02137 0,0.04274 0,0.06412c0.01318,-0.00416 0.02646,-0.00805 0.03982,-0.01166c-0.01313,-0.01724 -0.02641,-0.03475 -0.03982,-0.05246zM274.0929,152.67042c0,-0.01029 0.00012,-0.0208 0.00035,-0.0315c-0.14919,0.10575 -0.30298,0.20477 -0.46458,0.2894c-0.06092,0.03191 -0.13768,0.00415 -0.20633,0c-0.50074,-0.03025 -0.84163,-0.1642 -1.25448,-0.43943c-0.14655,-0.0977 -0.26084,-0.17094 -0.40201,-0.2827c-0.11839,0 -0.23678,0 -0.35518,0c-0.2593,0 -0.26438,-0.02471 -0.4829,0.02848c-0.04967,0.01209 -0.10014,0.02098 -0.14931,0.03498c-0.04838,0.01377 -0.13578,0.09258 -0.15221,0.0614c-0.02039,0.02039 -0.04078,0.04078 -0.06117,0.06117c-0.10118,0.10118 -0.1886,0.17562 -0.26772,0.31473c-0.03802,0.06684 -0.03535,0.17007 -0.10316,0.20633c-0.04155,0.02221 0.0171,-0.16673 -0.02148,-0.13969c-0.08448,0.0592 0,0.20633 0,0.30949c0,0.25791 0,0.51581 0,0.77372c0,0.05085 0,0.1017 0,0.15255c0.02622,0.02896 0.05186,0.05842 0.07638,0.08882c0.22089,0.27399 0.31235,0.60093 0.46091,0.90847c0.0441,0.09129 0.08988,0.18187 0.13081,0.27462c0.1672,-0.08222 0.38079,-0.09432 0.14115,0.24054c0.07001,0.00616 0.13984,0.01389 0.20914,0.02531c0.05365,0.00884 0.11589,0.01354 0.15474,0.05158c0.0216,0.02115 -0.11967,0.00643 -0.08993,0.01188c0.15464,0.02834 0.36004,0 0.51581,0c0.04142,0.05125 0.37098,-0.06498 0.43132,-0.08006c0.04403,-0.01101 0.12192,-0.05756 0.16864,-0.07139c0.06646,-0.081 0.13481,-0.16042 0.20881,-0.23442c0.20233,-0.20233 0.80085,-0.48354 0.945,-0.5426c0.0966,-0.03957 0.35882,-0.00755 0.46423,0c0.03541,0.00254 0.06978,0.00538 0.10316,0.00857c0,-0.67341 0,-1.34683 0,-2.02024zM277.80703,152.12412c-0.00259,-0.00501 -0.00502,-0.01006 -0.00726,-0.01513c0.00193,0.01544 0.00424,0.03066 0.00698,0.04561c0.00236,0.01288 0.00094,-0.00633 0.00028,-0.03048zM276.28492,148.9039c-0.00064,0.00048 -0.00129,0.00096 -0.00194,0.00144c0.02291,0.00068 0.04032,0.00192 0.0279,-0.00035c-0.00712,-0.0013 -0.01602,-0.00154 -0.02597,-0.00108zM276.27609,148.93595c0.04716,0.02137 0.11052,0.06249 0.09962,0.03249c-0.0122,-0.03356 -0.05836,-0.02888 -0.09962,-0.03249zM276.45879,158.43682c-0.00014,0.0001 -0.00028,0.00019 -0.00042,0.00029c0.00053,0.00005 0.00065,-0.00006 0.00042,-0.00029zM267.71286,152.25901c0.01989,-0.03627 0.04042,-0.07232 0.06148,-0.10815c-0.02854,-0.03471 -0.04845,0.03707 -0.06148,0.10815z" data-paper-data="{&quot;origPos&quot;:null}" fill="#ff0000" stroke="none" stroke-width="0.5"/><path d="M273.27361,150.36259c0.04396,-0.01208 0.09396,-0.01894 0.15083,-0.01894c0.47093,0 0.47093,0.47093 0.47093,0.47093l-0.74543,0.1956c-0.06279,-0.02093 -0.12558,-0.04186 -0.18837,-0.06279c-0.17856,-0.08464 -0.60837,-0.29808 -0.74021,-0.49446c-0.01606,-0.02392 0.09958,-0.03573 0.07285,-0.04649c-0.12992,-0.05229 -0.4235,0 -0.56511,0c-0.37674,0 -0.75348,0 -1.13023,0c-0.13092,0 -0.5744,-0.03214 -0.60886,-0.01235c-0.22282,0.128 -0.36135,0.3403 -0.62361,0.42772c-0.17875,0.05958 -0.69764,0.16564 -0.75778,0.20019c-0.146,0.08387 -0.22579,0.30304 -0.37674,0.37674c-0.01788,0.00873 -0.00191,-0.07574 -0.01182,-0.05849c-0.233,0.40561 -0.10141,1.08454 -0.10141,1.54642c0,0.25446 -0.04055,0.49261 0.03862,0.73014c0.11814,0.35441 0.27702,0.72142 0.33812,1.09078c0.01246,0.07534 -0.03693,0.15253 -0.02417,0.22782c0.031,0.18284 0.26984,0.53863 0.14975,0.71403c-0.02025,0.02958 -0.09247,-0.10611 -0.07909,-0.07285c0.15996,0.39748 0.6158,0.54207 0.94581,0.80729c0.25401,0.20414 0.28877,0.37873 0.50662,0.45135c0.07388,0.02893 0.4194,0.13955 0.48905,0.2433c0.01606,0.02392 -0.09958,0.03573 -0.07285,0.04649c0.1165,0.04688 0.25116,0 0.37674,0c0.33488,0 0.66976,0 1.00465,0c0.25011,0 0.43969,0.02623 0.66735,-0.03862c0.11166,-0.03181 0.22274,-0.06801 0.33729,-0.08696c0.03804,-0.00629 0.10208,-0.02847 0.14481,-0.03015c0.03042,-0.04563 0.06084,-0.09126 0.09126,-0.13688c0,0 0.26122,-0.39184 0.65306,-0.13061c0.39184,0.26122 0.13061,0.65306 0.13061,0.65306c-0.08372,0.12558 -0.1197,0.3026 -0.25116,0.37674c-0.65321,0.36842 -1.48265,0.33528 -2.21276,0.33528c-0.26783,0 -0.68885,0.08117 -0.94186,0c-0.16364,-0.0525 -0.51343,-0.31738 -0.71403,-0.33812c-0.39159,-0.13053 -0.57064,-0.43736 -0.87477,-0.67888c-0.20584,-0.16346 -0.49462,-0.25639 -0.68171,-0.44348c-0.14966,-0.14966 -0.31712,-0.30582 -0.38177,-0.50735c-0.14426,-0.44965 -0.12678,-0.932 -0.20467,-1.39145c-0.04031,-0.23778 -0.20907,-0.5508 -0.28979,-0.79293c-0.11126,-0.33378 -0.08696,-0.68009 -0.08696,-1.02799c0,-0.89628 -0.13794,-1.98237 0.76584,-2.53066c0.33914,-0.20575 0.75198,-0.30307 1.12593,-0.42772c0.22559,-0.0752 0.41748,-0.37356 0.81627,-0.43953c0.70914,-0.11731 1.503,-0.02417 2.221,-0.02417c0.30762,0 0.58711,0.13799 0.82634,0.33025c0.02112,0.01697 0.31699,0.38052 0.32723,0.25903c0.06279,0.02093 0.12558,0.04186 0.18837,0.06279z" data-paper-data="{&quot;origPos&quot;:null}" fill="#ffffff" stroke="none" stroke-width="0.5"/><path d="M280.82678,159.32262c-0.47088,-0.00692 -0.46395,-0.4778 -0.46395,-0.4778l-0.00005,-0.11866c0,-0.18837 0,-0.37674 0,-0.56511c0,-0.3564 -0.03413,-0.73839 0.02417,-1.09078c0.01357,-0.08201 0.08752,-0.14587 0.10141,-0.22782c0.04987,-0.29417 0,-0.64288 0,-0.94186c0,-0.28227 0,-0.56455 0,-0.84682c-0.0197,0.00027 -0.0314,-0.00085 -0.0314,-0.00085h-0.18837c-0.21995,-0.03869 -0.45214,-0.08079 -0.63797,-0.20467c0.02428,-0.0155 0.09958,-0.03573 0.07285,-0.04649c-0.16272,-0.06549 -0.35261,0.00446 -0.52566,-0.02417c-0.23208,-0.03839 -0.34854,-0.10141 -0.60456,-0.10141c-0.63837,0 -1.27674,0 -1.91511,0c0,0.36628 0,0.73256 0,1.09883c0,0.29898 -0.04987,0.64769 0,0.94186c0.05436,0.32063 0.22586,0.58877 0.25116,0.94186c0,0.37336 0.22287,0.7353 0.25116,1.13023v0.18837c0,0 0.03699,0.43077 -0.43235,0.46934c-0.46935,0.03858 -0.5095,-0.46934 -0.5095,-0.46934v-0.18837c0.04023,-0.06568 -0.01427,-0.15475 -0.03862,-0.22782c-0.09938,-0.29813 -0.21254,-0.58433 -0.21254,-0.90241c0.08135,-0.1328 -0.22632,-0.79167 -0.25116,-0.94186c-0.04881,-0.29506 0,-0.6422 0,-0.94186c0,-0.75348 0,-1.50697 0,-2.26045c0.03779,-0.19932 -0.09907,-0.4997 -0.12558,-0.69069c-0.04333,-0.31223 0.07386,-0.68822 0.02417,-0.98131c-0.03045,-0.17963 -0.12001,-0.34591 -0.14975,-0.52566c-0.07819,-0.47265 0,-1.02693 0,-1.50697c0,0 0,-0.47093 0.47093,-0.47093c0.47093,0 0.47093,0.47093 0.47093,0.47093c0,0.47899 -0.07989,1.03572 0,1.50697c0.03511,0.20708 0.11378,0.3084 0.12558,0.56511c0.01411,0.30691 -0.04545,0.63844 0,0.94186c0.03614,0.24126 0.11375,0.43605 0.12558,0.69069c0,0.07194 0,0.14387 0,0.21581c1.16908,-0.02428 2.45996,-0.13694 3.49493,0.33421c0.2182,0.14546 0.2395,0.18109 0.11552,0.04649h0.18837c0,0 0.01169,0.00102 0.0314,0.00437c0,-0.03285 0,-0.0657 0,-0.09855c0,-1.23488 0,-2.46975 0,-3.70463c0,0 0,-0.47093 0.47093,-0.47093c0.47093,0 0.47093,0.47093 0.47093,0.47093c0,1.23488 0,2.46975 0,3.70463c0,0.6279 0,1.25581 0,1.88371c0,0.29965 0.04881,0.6468 0,0.94186c-0.02974,0.17975 -0.11929,0.34603 -0.14975,0.52566c-0.03658,0.21577 0.02417,0.55749 0.02417,0.79293c0,0.18837 0,0.37674 0,0.56511l-0.00005,0.13251c0,0 -0.00692,0.47088 -0.4778,0.46395z" data-paper-data="{&quot;origPos&quot;:null}" fill="#ffffff" stroke="none" stroke-width="0.5"/><path d="M288.24297,155.17851h-0.18837c-0.62563,0 -1.25883,0.02873 -1.88371,0c-0.24596,-0.01131 -0.44029,-0.06851 -0.65353,-0.10168c-0.00967,0.03152 -0.01964,0.06274 -0.02993,0.09362c-0.18595,0.55784 -0.22395,1.08494 -0.30385,1.66064c-0.03594,0.25899 -0.19682,0.52727 -0.2371,0.76485c-0.03979,0.2347 -0.02671,0.49793 -0.01345,0.75348h0.01345v0.37674c0,0.05952 -0.01104,0.11646 -0.03119,0.16889c-0.0459,0.13509 -0.15934,0.30204 -0.43974,0.30204c-0.28039,0 -0.39384,-0.16695 -0.43974,-0.30204c-0.02015,-0.05242 -0.03119,-0.10937 -0.03119,-0.16889c0,-0.35986 -0.05861,-0.7759 0,-1.13023c0.05591,-0.33797 0.21433,-0.65352 0.26522,-0.99328c0.08874,-0.59242 0.12914,-1.1453 0.32406,-1.73004c0.24086,-0.72257 0.29037,-1.66337 0.69069,-2.32324c0.0982,-0.16187 0.27062,-0.27107 0.36493,-0.43524c0.00849,-0.01479 -0.05202,0.01272 -0.05097,-0.0043c0.00405,-0.06606 0.02669,-0.13289 0.06279,-0.18837c0.13545,-0.20816 0.32902,-0.37213 0.49051,-0.56082c0.17625,-0.20593 0.3614,-0.64493 0.6279,-0.75348c0.16649,-0.06781 0.34758,-0.09196 0.52137,-0.13793c0.30327,0 0.49872,0.36906 0.64824,0.63935c0.0474,-0.03171 0.08662,0.0815 0.12428,0.12648c0.29825,0.35619 0.44691,0.54935 0.51467,1.02369c0.00888,0.06216 -0.02344,0.13012 0,0.18837c0.01075,0.02672 0.02257,-0.08891 0.04649,-0.07285c0.16462,0.11051 0.27529,0.49125 0.30609,0.67742c0.06322,0.38216 -0.01755,0.77187 0.02417,1.15357c0.02454,0.22451 0.21329,0.56345 0.28979,0.79293c0.15926,0.47778 0.38017,0.97834 0.44964,1.47888c0.09776,0.70439 0.01406,1.47542 0.01406,2.1863v0.18837c0,0 0.01223,-0.45838 -0.00016,0.01239c-0.01239,0.47076 -0.94169,-0.01239 -0.94169,-0.01239v-0.18837c0,-0.62199 0.10539,-1.34813 0.01406,-1.95786c-0.07174,-0.47895 -0.2769,-0.95191 -0.42943,-1.40948c-0.0135,-0.04051 -0.02777,-0.08139 -0.04251,-0.12256c-0.0454,0.00633 -0.07584,0.00504 -0.07584,0.00504zM286.13144,154.26082c0.15286,0.02592 0.4327,-0.02417 0.60456,-0.02417c0.43056,0 0.86113,0 1.29169,0c-0.00159,-0.01047 -0.00309,-0.02094 -0.00449,-0.0314c-0.04624,-0.34629 0.11364,-0.80284 -0.04649,-1.12016c-0.08998,-0.17831 -0.51254,-0.64405 -0.33025,-0.82634c0.01392,-0.01392 0.03852,0.01052 0.05959,0.03872c-0.16761,-0.25897 -0.38298,-0.46208 -0.54728,-0.71524c-0.0369,0.04714 -0.07265,0.09527 -0.10881,0.14281c-0.1938,0.25477 -0.44822,0.42568 -0.55788,0.68264c-0.03387,0.07936 -0.15181,0.42463 -0.30214,0.49803c-0.01788,0.00873 -0.00191,-0.07574 -0.01182,-0.05849c-0.22404,0.39002 -0.33857,0.86098 -0.44215,1.32979c0.12768,0.02826 0.2558,0.06015 0.39547,0.08382z" data-paper-data="{&quot;origPos&quot;:null}" fill="#ffffff" stroke="none" stroke-width="0.5"/><path d="M297.75571,158.09826c0,0.47093 -0.80392,0.333 -0.80392,0.333l-0.12558,-0.12558c-0.21993,-0.28454 -0.27801,-0.61091 -0.50232,-0.87907c-0.33198,-0.39686 -0.78113,-0.87701 -1.18403,-1.19697c-0.31446,-0.24972 -0.70165,-0.3713 -1.00968,-0.63293c-0.06963,-0.05914 -0.05595,-0.18153 -0.12055,-0.24613c-0.16726,-0.16726 -0.40245,-0.26394 -0.57409,-0.43558c-0.11075,-0.11075 -0.22638,-0.21989 -0.34248,-0.32953c-0.02615,0.49757 -0.06896,1.02145 -0.00799,1.48016c0.024,0.1806 0.12001,0.34591 0.14975,0.52566c0.07921,0.47885 -0.05275,0.89555 0.10141,1.35805c0,0 0.14892,0.44676 -0.29784,0.59568c-0.44676,0.14892 -0.59568,-0.29784 -0.59568,-0.29784c-0.18935,-0.56804 -0.05354,-1.08841 -0.14975,-1.65589c-0.01389,-0.08196 -0.08926,-0.14559 -0.10141,-0.22782c-0.10866,-0.73533 -0.02417,-1.54205 -0.02417,-2.28379c0,-0.45652 -0.17273,-0.92892 -0.2371,-1.39275c-0.08346,-0.60139 -0.13964,-1.18627 -0.13964,-1.80956c0,-0.36364 -0.04642,-0.99063 0.33025,-1.20308c0.17912,-0.10103 0.3868,-0.1398 0.58021,-0.2097c0.32799,0 0.60205,-0.17464 0.91851,-0.22699c0.80687,-0.13348 1.71914,-0.02417 2.53495,-0.02417c0.29522,0 0.74271,-0.03145 0.99328,0.13964c0.15328,0.10466 0.2688,0.25601 0.4032,0.38401c0.25593,0.38389 0.28673,1.02005 0.06503,1.44288c-0.15793,0.30121 -0.46766,0.44512 -0.62619,0.7211c-0.00849,0.01479 0.05202,-0.01272 0.05097,0.0043c-0.00405,0.06606 -0.02195,0.13629 -0.06279,0.18837c-0.56241,0.71717 -1.48488,1.26157 -2.39326,1.32665c-0.41433,0 -0.89537,-0.06833 -1.30466,-0.00231c0.02184,0.02693 0.04394,0.05349 0.0679,0.07745c0.25116,0.25116 0.50232,0.50232 0.75348,0.75348c0.13145,0.13145 0.30189,0.18924 0.43055,0.3179c0.14966,0.14966 0.21549,0.37641 0.38177,0.50735c0.02041,0.01607 0.04494,-0.0415 0.06993,-0.03441c0.22642,0.06429 0.49579,0.25926 0.67852,0.40612c0.34318,0.27581 0.63975,0.62682 0.95084,0.9379c0.25138,0.25138 0.52549,0.50112 0.68674,0.82526c0.07001,0.14073 0.1612,0.58462 0.19232,0.43055l0.12558,0.12558c0,0 0.13793,-0.13793 0.13793,0.333zM292.8983,152.57533c0.01012,-0.00358 0.02031,-0.00692 0.0306,-0.00985c0.52832,-0.1505 1.10894,-0.08696 1.65589,-0.08696c0.09046,0.05541 0.32147,-0.06984 0.41619,-0.10141c0.27444,-0.09148 0.48143,-0.18355 0.69499,-0.38856c0.03183,-0.03056 0.30738,-0.30662 0.38572,-0.31c0.03909,-0.00169 -0.02371,0.14607 0.00283,0.11734c0.13792,-0.1493 0.13392,-0.38704 0.23935,-0.56082c0.03995,-0.06585 0.30455,-0.35838 0.37674,-0.37674c0.03011,-0.00766 -0.01004,0.12196 0.00171,0.0932c0.03363,-0.08236 0.06697,-0.51141 0.11152,-0.57648c0.02025,-0.02958 0.09247,0.10611 0.07909,0.07285c-0.02817,-0.07001 -0.08372,-0.12558 -0.12558,-0.18837c0.05068,0.00242 0.1963,0.03207 0.15204,0.00727c-0.38056,-0.21315 -0.97555,-0.11152 -1.39275,-0.11152c-0.49606,0 -1.13626,-0.10435 -1.60921,-0.02417c-0.41031,0.06956 -0.76483,0.26828 -1.19361,0.27515c0.00297,0.03147 0.00865,0.06347 0.00865,0.09437c0,0.35717 -0.0811,0.83387 -0.02417,1.16968c0.03045,0.17963 0.12001,0.34591 0.14975,0.52566c0.01997,0.12075 0.03147,0.24917 0.04024,0.37937zM292.72223,150.38243c0.00982,-0.01212 0.01921,-0.02497 0.02847,-0.03804c-0.00724,-0.02345 -0.01286,-0.04545 -0.01822,-0.03214c-0.00898,0.02232 -0.01108,0.04597 -0.01025,0.07018z" data-paper-data="{&quot;origPos&quot;:null}" fill="#ffffff" stroke="none" stroke-width="0.5"/><path d="M302.0973,151.97794c0.46919,0.04045 0.42874,0.50963 0.42874,0.50963l0.00174,0.21071c0,1.1093 0,2.21859 0,3.32789c0,0.63982 0.08027,1.3385 -0.02417,1.96984c-0.10339,0.62498 -0.42721,1.28163 -0.6279,1.88371c0,0 -0.14892,0.44676 -0.59568,0.29784c-0.44676,-0.14892 -0.29784,-0.59568 -0.29784,-0.59568c0.20111,-0.60333 0.52179,-1.2578 0.6279,-1.88371c0.08349,-0.49247 -0.02417,-1.15298 -0.02417,-1.672c0,-1.1093 0,-2.21859 0,-3.32789l0.00174,-0.29161c0,0 0.04045,-0.46919 0.50964,-0.42874z" data-paper-data="{&quot;origPos&quot;:null}" fill="#ffffff" stroke="none" stroke-width="0.5"/><path d="M310.69489,159.04226c-0.02646,0.28185 -0.32637,0.38182 -0.32637,0.38182c-0.31226,0.10409 -0.58272,0.10186 -0.90241,0.14975c-0.48146,0.07212 -1.1328,0.26033 -1.63255,0.12558c-0.60452,-0.163 -1.15171,-0.45432 -1.5888,-0.89142c-0.29039,-0.29039 -0.78006,-0.38328 -1.00465,-0.75348c-0.10542,-0.17377 -0.1381,-0.38457 -0.23935,-0.56082c-0.00991,-0.01725 0.00606,0.06722 -0.01182,0.05849c-0.0532,-0.02597 -0.10325,-0.07075 -0.12558,-0.12558c-0.15835,-0.38877 -0.20903,-1.03345 -0.13793,-1.46322c0.05159,-0.31186 0.2232,-0.59494 0.27533,-0.90241c0.03178,-0.18743 0.00436,-0.33846 0.06279,-0.56511c0.24429,-0.73287 0.46806,-1.69794 1.1812,-2.13058c0.05057,-0.03068 0.42598,-0.21704 0.56082,-0.23935c0.17305,-0.02863 0.36294,0.04132 0.52566,-0.02417c0.02672,-0.01075 -0.08891,-0.02257 -0.07285,-0.04649c0.04206,-0.06265 0.11651,-0.10253 0.18837,-0.12558c0.38122,-0.1223 0.80856,-0.07909 1.20308,-0.07909c0.57104,0 1.46887,0.22465 1.77717,0.76584c0.1259,0.221 0.15064,0.48674 0.24945,0.7211c0.03829,0.09081 0.14223,0.14149 0.18613,0.22974c0.13723,0.27584 0.18501,0.58481 0.30609,0.86579c0.03993,0.09267 0.20413,0.36096 0.22561,0.44064c0.09703,0.35987 0.04972,0.78215 0.04972,1.15246c0,1.03979 0.02965,2.2203 -0.74912,3.01608zM309.76276,158.61817c0.03027,-0.13445 0.12554,-0.34827 0.42545,-0.36222c0.36567,-0.69268 0.31394,-1.47099 0.31394,-2.22978c0,-0.21686 -0.06176,-0.54709 0,-0.75348c0.00521,-0.01739 0.05543,0.03947 0.04972,0.02223c-0.20078,-0.60589 -0.5404,-1.15319 -0.78914,-1.72894c-0.09491,-0.21968 0.02721,-0.3885 -0.19438,-0.54652c-0.21576,-0.15386 -0.66155,-0.22699 -0.91851,-0.22699c-0.14884,0 -0.63586,0.08053 -0.75348,0c-0.02958,-0.02025 0.10611,-0.09247 0.07285,-0.07909c-0.22214,0.0894 -0.40995,0.2571 -0.63797,0.33025c-0.13267,0.04256 -0.27713,0.0301 -0.41619,0.03862c-0.01702,0.00104 0.01049,-0.05947 -0.00429,-0.05097c-0.59705,0.34297 -0.75193,1.1572 -0.95367,1.76243c-0.12883,0.13158 -0.05877,0.55304 -0.12558,0.75348c-0.1013,0.3039 -0.1642,0.47326 -0.1642,0.79293c0,0.04153 0.01942,0.52527 0.00191,0.56286c0.10081,0.11753 0.27692,0.30259 0.28788,0.48123c0.01502,0.24499 0.71734,0.52145 0.95367,0.75778c0.08372,0.08372 0.19921,0.14477 0.25116,0.25116c0.00873,0.01788 -0.07574,0.00191 -0.0585,0.01182c0.13404,0.077 0.29625,0.09045 0.43843,0.15113c0.10869,0.04639 0.17955,0.16427 0.29172,0.20144c0.14434,0.04783 0.41197,0 0.56511,0c0.45565,0 0.92399,-0.03395 1.36408,-0.13938z" data-paper-data="{&quot;origPos&quot;:null}" fill="#ffffff" stroke="none" stroke-width="0.5"/><path d="M298.71905,170.07896c-0.17611,1.55985 -1.73596,1.38374 -1.73596,1.38374l-0.26975,-0.00221c-0.22165,-0.02771 -0.97732,-0.12035 -1.15047,-0.15084c-0.26858,-0.04729 -0.51936,-0.17788 -0.7897,-0.21378c-0.33026,-0.04386 -0.6667,0.01168 -0.99946,-0.00462c-0.93553,-0.04583 -1.90624,-0.09334 -2.82466,-0.27702c-0.69145,-0.20545 -1.45302,-0.0623 -2.16755,-0.13248c-0.2714,-0.02666 -0.51868,-0.18351 -0.7897,-0.21378c-0.45353,-0.05065 -0.91436,0.0221 -1.36892,-0.01825c-0.55473,-0.04925 -1.09253,-0.18834 -1.64502,-0.23291c-0.31459,-0.02537 -0.71469,0.08175 -0.93593,-0.14335c-0.00429,-0.00437 -0.00409,-0.00729 -0.00066,-0.00909c-0.89398,-0.11446 -1.78348,-0.23815 -2.67608,-0.36566c0,0 -1.55398,-0.222 -1.33198,-1.77598c0.222,-1.55398 1.77598,-1.33198 1.77598,-1.33198c0.89813,0.1283 1.82368,0.208 2.71413,0.37057c0.15393,0.0281 0.30399,0.07419 0.45446,0.11752c0.00003,-0.00051 0.00006,-0.00102 0.0001,-0.00154c0.00614,-0.08349 0.16794,-0.00916 0.25116,0c0.408,0.04493 0.8122,0.12063 1.21784,0.18424c-0.02482,-0.14814 -0.02482,-0.24703 -0.02482,-0.24703c0,-1.48395 0,-3.11962 0,-4.63469c-0.69712,0.01595 -1.39573,0.05099 -2.07208,0.05099c0,0 -1.56976,0 -1.56976,-1.56976c0,-1.56976 1.56976,-1.56976 1.56976,-1.56976c1.58462,0 3.35716,-0.20113 4.89173,0.20614c0.61015,0.16193 1.2216,0.36562 1.81291,0.58451c0.16771,0.06208 0.33431,0.12714 0.50232,0.18837c0.00592,0.00216 0.03939,0.01299 0.08269,0.02697c0.25198,0.00963 0.50116,0.0699 0.74735,0.12848c0.00001,-0.00138 0.00006,-0.00279 0.00017,-0.00423c0.00614,-0.08349 0.16744,0 0.25116,0c0.14651,0 0.29302,0 0.43953,0c0.77441,0 1.54883,0 2.32324,0l0.28351,0.00797c0,0 1.56179,0.15793 1.40386,1.71973c-0.15793,1.56179 -1.71973,1.40386 -1.71973,1.40386l0.03235,0.00797c-0.3971,0 -0.79421,0 -1.19131,0c0.01482,1.43177 0.11609,2.91934 -0.09498,4.32644l-0.00648,0.0324c0.22858,0.00328 0.45495,0.01106 0.66487,0.03649c0.7826,0.09481 1.5459,0.29091 2.32958,0.38886l0.23257,-0.00221c0,0 1.55985,0.17611 1.38374,1.73596zM289.46256,167.61698c0.38744,0.03494 0.77908,-0.07317 1.16644,-0.03738c0.11529,0.01065 0.22979,0.02745 0.34393,0.04702c-0.00006,-0.02643 0.00051,-0.04092 0.00051,-0.04092l0.06279,-0.31395c0.06255,-0.0118 0.03231,-0.82043 0.03231,-0.88516c0,-1.01223 0,-2.02446 0,-3.0367c-0.5127,-0.11456 -0.9531,-0.29503 -1.49868,-0.47717c-0.00275,-0.00092 -0.00552,-0.00183 -0.00829,-0.00274c0,1.31871 0,2.63743 0,3.95614v0.18837c0,0 0,0.27844 -0.11727,0.60078c0.00608,0.00059 0.01217,0.00116 0.01826,0.00171z" data-paper-data="{&quot;origPos&quot;:null}" fill="#00d2ff" stroke="none" stroke-width="0.5"/><path d="M292.52952,169.16766c-0.03133,-0.21933 -0.05252,-0.27874 -0.18419,-0.50916c0,0 -0.21614,-0.37825 0.13115,-0.61502c0,-0.63763 0,-1.27526 0,-1.91289c0,-0.92396 -0.05394,-1.86576 0.00364,-2.78738c0.02274,-0.36394 0.06863,-0.71083 0.08605,-1.07042c-0.99321,-0.06756 -2.01124,-0.22452 -2.98118,-0.44007c-0.24726,-0.05732 -0.50284,-0.06555 -0.74909,-0.12441c-0.08089,-0.01934 -0.16319,-0.04491 -0.24636,-0.07348c0.00797,1.26148 0.04842,2.57794 -0.07655,3.82325c-0.11317,1.01851 0.10196,2.04594 -0.18429,3.04784l-0.03055,0.08253c0,0 -0.00377,0.09492 -0.05056,0.19781c0.13666,-0.00956 0.27258,-0.01792 0.40111,-0.01123c0.47862,0.02489 0.97945,0.06893 1.45271,0.14778c0.44404,0.07398 1.02609,0.29149 1.46945,0.23862c0.32744,0 0.64599,0.02806 0.96104,0.07125zM293.46191,169.03446l-0.01077,0.18825c0,0 0.01951,0.07415 0.01287,0.17049c0.29029,0.05603 0.58216,0.11405 0.87987,0.16378c0.76386,0.1276 1.53235,0.24492 2.26624,0.50221c0.08855,0.0322 0.1771,0.0644 0.26565,0.0966l-0.04137,-0.02293c0,0 0.4655,0.07127 0.39424,0.53677c-0.07127,0.4655 -0.53677,0.39424 -0.53677,0.39424l-0.13797,-0.02293c-0.08855,-0.0322 -0.1771,-0.0644 -0.26565,-0.0966c-0.6752,-0.25935 -1.41968,-0.34579 -2.12908,-0.46379c-0.87799,-0.14605 -1.69694,-0.37726 -2.58831,-0.37726c-0.6732,-0.02355 -1.33838,-0.21826 -2.00817,-0.29268c-0.9092,-0.10102 -1.80315,-0.09051 -2.70041,-0.24006c-0.75237,-0.12539 -1.5649,-0.12866 -2.30081,-0.32205c-0.1319,-0.03466 -0.24422,-0.12462 -0.3747,-0.16425c-0.68862,-0.20915 -1.53773,-0.28507 -2.25181,-0.28507c0,0 -0.47093,0 -0.47093,-0.47093c0,-0.47093 0.47093,-0.47093 0.47093,-0.47093c0.75707,0 1.65272,0.08325 2.38501,0.29453c0.2023,0.05837 0.38743,0.16954 0.5913,0.22215c0.27595,0.07122 0.56247,0.03134 0.83941,0.06292c0.42361,0.0483 0.84584,0.13448 1.26644,0.20458c0.12245,0.02041 0.24524,0.05723 0.36772,0.09045c-0.03111,-0.09777 -0.02781,-0.1809 -0.02781,-0.1809l0.06605,-0.30388c0.26658,-0.93302 0.04752,-1.93647 0.15381,-2.8931c0.07173,-0.5576 0.02127,-1.14897 0.02127,-1.71095c0,-0.76409 0.04504,-1.5246 0.04813,-2.28559c-0.52062,-0.0456 -1.05376,0.03593 -1.57582,-0.00133c-0.45594,-0.03254 -0.91012,-0.10868 -1.36766,-0.14136c0,0 -0.46973,-0.03355 -0.43618,-0.50328c0.03355,-0.46973 0.50328,-0.43618 0.50328,-0.43618c0.47962,0.03426 0.95577,0.11425 1.43376,0.14844c0.48808,0.03491 0.99191,-0.05774 1.47901,-0.00473c0.48897,0.05321 0.9503,0.27143 1.42386,0.3871c0.21968,0.05366 0.45937,0.05896 0.68276,0.10712c0.95302,0.21178 1.95153,0.36129 2.92672,0.42713c0.61912,0.0418 1.23156,0.00289 1.85315,0.07169c0.07245,0.00805 0.1449,0.0161 0.21735,0.02415l0.19442,0.00014c0,0 0.46791,0.05322 0.41469,0.52113c-0.05322,0.46791 -0.52113,0.41469 -0.52113,0.41469l-0.19198,0.00014c-0.07245,-0.00805 -0.1449,-0.0161 -0.21735,-0.02415c-0.32101,-0.03581 -0.63948,-0.04328 -0.95791,-0.04764c-0.01893,0.38895 -0.06803,0.76734 -0.09255,1.15947c-0.05509,0.8809 0.00364,1.78678 0.00364,2.67055c0,0.79695 0,1.59391 0,2.39086l-0.00005,0.10347c0,0 -0.00071,0.0486 -0.01729,0.11435c0.02568,0.09203 0.04572,0.1889 0.06091,0.29518z" data-paper-data="{&quot;origPos&quot;:null}" fill="#ffffff" stroke="none" stroke-width="0.5"/><text transform="translate(171.78665,185.38176) scale(0.38659,0.38659)" font-size="40" xml:space="preserve" data-paper-data="{&quot;origPos&quot;:null}" fill="#000000" fill-rule="nonzero" stroke="none" stroke-width="1" stroke-linecap="butt" stroke-linejoin="miter" stroke-miterlimit="10" stroke-dasharray="" stroke-dashoffset="0" font-family="Marker" font-weight="normal" text-anchor="start" style="mix-blend-mode: normal"><tspan x="0" dy="0">LE DÉBUT D'UNE</tspan><tspan x="0" dy="48px">HISTOIRE.</tspan></text><text transform="translate(243.60743,196.67798) scale(0.18631,0.18631)" font-size="40" xml:space="preserve" data-paper-data="{&quot;origPos&quot;:null}" fill="#000000" fill-rule="nonzero" stroke="none" stroke-width="1" stroke-linecap="butt" stroke-linejoin="miter" stroke-miterlimit="10" stroke-dasharray="" stroke-dashoffset="0" font-family="Marker" font-weight="normal" text-anchor="start" style="mix-blend-mode: normal"><tspan x="0" dy="0">DÉBUTEZ L'HISTOIRE</tspan><tspan x="0" dy="48px">PRINCIPALE</tspan></text></g></g></svg>