<svg version="1.1" xmlns="http://www.w3.org/2000/svg" xmlns:xlink="http://www.w3.org/1999/xlink" width="43.18516" height="44.21718"><g transform="translate(-219.16599,-136.66416)"><g data-paper-data="{&quot;isPaintingLayer&quot;:true}" fill="none" fill-rule="nonzero" stroke="none" stroke-width="none" stroke-linecap="none" stroke-linejoin="miter" stroke-miterlimit="10" stroke-dasharray="" stroke-dashoffset="0" font-family="none" font-weight="none" font-size="none" text-anchor="none" style="mix-blend-mode: normal"><path d="M221.66599,158.25674c0,-10.54454 8.54804,-19.09258 19.09258,-19.09258c10.54454,0 19.09258,8.54804 19.09258,19.09258c0,10.54454 -8.54804,19.09258 -19.09258,19.09258c-10.54454,0 -19.09258,-8.54804 -19.09258,-19.09258z" data-paper-data="{&quot;origPos&quot;:null}" fill="#ffffff" stroke="#8f8f8f" stroke-width="5" stroke-linecap="butt"/><path d="M240.53175,152.34948c0,-1.19824 0.97137,-2.16961 2.16961,-2.16961c1.19824,0 2.16961,0.97137 2.16961,2.16961c0,1.19824 -0.97137,2.16961 -2.16961,2.16961c-1.19824,0 -2.16961,-0.97137 -2.16961,-2.16961z" data-paper-data="{&quot;origPos&quot;:null}" fill="#8f8f8f" stroke="none" stroke-width="0.5" stroke-linecap="butt"/><path d="M250.295,152.53028c0,-1.19824 0.97137,-2.16961 2.16961,-2.16961c1.19824,0 2.16961,0.97137 2.16961,2.16961c0,1.19824 -0.97137,2.16961 -2.16961,2.16961c-1.19824,0 -2.16961,-0.97137 -2.16961,-2.16961z" data-paper-data="{&quot;origPos&quot;:null}" fill="#8f8f8f" stroke="none" stroke-width="0.5" stroke-linecap="butt"/><path d="M251.49583,166.43576c-0.40728,1.62914 -1.76028,1.68209 -2.35104,1.62281l0.57069,0.09006c-0.1808,0.06027 -0.3616,0.12053 -0.5424,0.1808c-4.20479,0.99991 -9.46815,0.49894 -12.86673,-2.33014c-0.59984,-0.49932 -1.10011,-1.35562 -1.59977,-1.95521c0,0 -1.38895,-1.66674 0.27779,-3.05569c1.66674,-1.38895 3.05569,0.27779 3.05569,0.27779c0.50058,0.60069 1.03333,1.55195 1.65465,2.02242c0.04451,0.0337 -0.03841,-0.18288 0.01505,-0.1668c0.54656,0.16434 1.06476,0.64591 1.61146,0.84719c0.89618,0.32997 1.55549,0.31335 2.46494,0.31335c0.904,0 1.80801,0 2.71201,0c0.43486,0 1.69423,0.1198 1.30272,-0.06946c0.1808,-0.06027 0.3616,-0.12053 0.5424,-0.1808l1.5739,-0.22736c0,0 2.10483,0.52621 1.57862,2.63104z" data-paper-data="{&quot;origPos&quot;:null}" fill="#8f8f8f" stroke="none" stroke-width="0.5" stroke-linecap="butt"/><path d="M250.10516,166.7295l-4.99011,5.96643l-1.30177,-4.01378l-4.33922,2.92898l-0.75936,-4.55618l-4.33922,1.95265l0.10848,-5.64099" data-paper-data="{&quot;origPos&quot;:null}" fill="none" stroke="#8f8f8f" stroke-width="2.5" stroke-linecap="round"/><path d="M233.753,171.46495c1.03755,0.48394 2.93246,0.86215 2.7103,2.25504c-0.72442,4.54195 -6.3062,6.97481 -10.55631,6.46313c-1.09761,-0.13215 -3.92422,-0.4298 -3.6469,-1.95657c0.17312,-0.95311 0.39722,-1.91505 0.8126,-2.79017c0.09618,-0.20264 0.41769,-0.16366 0.62733,-0.24343c0.59038,-0.22462 1.2445,-0.75802 1.82593,-0.91852c0.0635,-0.01753 -0.06573,0.24583 -0.02221,0.19638c0.83289,-0.94635 1.31094,-2.17704 1.81135,-3.35055l-0.03862,-0.01927l0.12139,-0.24328l-0.16705,-0.12972l0.72987,-0.93997c0.06503,-0.08792 0.13896,-0.17053 0.22152,-0.24641c0.37018,-0.36849 1.01082,-0.73388 1.9225,-0.30169c0.03445,0.01589 0.06843,0.03293 0.10189,0.05109c0.88826,0.47038 0.97823,1.2022 0.90527,1.71813c-0.00228,0.02212 -0.00498,0.04419 -0.00811,0.06619l0.82223,0.42273c0.56232,-0.01244 1.6016,-0.13829 1.82703,-0.03313z" data-paper-data="{&quot;origPos&quot;:null,&quot;origRot&quot;:0}" fill="#ffffff" stroke="none" stroke-width="0.5" stroke-linecap="butt"/><path d="M236.17084,176.78754c-0.5466,0.93703 -0.16996,0.22047 -0.16996,0.22047l-0.4068,0.4068c-1.07076,0.9797 -2.29639,1.31276 -3.50621,1.99918c-0.51577,0.29264 -0.94085,0.73567 -1.47258,0.99818c-1.98895,0.98189 -5.11897,0.20231 -7.12517,-0.34484c-2.14676,-0.84459 -3.73364,-2.90311 -2.21899,-5.17507c0.44848,-0.67273 1.96905,-1.17398 2.61876,-1.72361c0.86753,-0.73391 1.63692,-1.63692 2.44081,-2.44081c0,0 0.76707,-0.76707 1.53415,0c0.76707,0.76707 0,1.53415 0,1.53415c-1.13789,1.13789 -2.2143,2.29715 -3.52656,3.23449c-0.47702,0.34073 -1.68955,0.82778 -1.99073,1.27954c-0.09982,0.14974 0.32224,-0.36704 0.47042,-0.26492c0.15003,0.1034 -0.10509,0.36405 -0.0678,0.5424c0.0203,0.09708 0.93687,1.02841 1.31081,0.92067c1.683,0.459 4.36911,1.18484 6.0281,0.33317c0.51615,-0.26498 0.88984,-0.72665 1.50941,-0.98033c0.77799,-0.31853 1.94535,-0.77347 2.46144,-1.44635l0.4068,-0.4068c0,0 2.25071,0.37664 1.7041,1.31367z" data-paper-data="{&quot;origPos&quot;:null}" fill="#8f8f8f" stroke="#000000" stroke-width="0" stroke-linecap="butt"/></g></g></svg>