<svg version="1.1" xmlns="http://www.w3.org/2000/svg" xmlns:xlink="http://www.w3.org/1999/xlink" width="43.18516" height="44.21718"><g transform="translate(-218.17235,-133.6285)"><g data-paper-data="{&quot;isPaintingLayer&quot;:true}" fill="none" fill-rule="nonzero" stroke="none" stroke-width="none" stroke-linecap="none" stroke-linejoin="miter" stroke-miterlimit="10" stroke-dasharray="" stroke-dashoffset="0" font-family="none" font-weight="none" font-size="none" text-anchor="none" style="mix-blend-mode: normal"><path d="M239.76493,174.31366c-10.54454,0 -19.09258,-8.54804 -19.09258,-19.09258c0,-10.54454 8.54804,-19.09258 19.09258,-19.09258c10.54454,0 19.09258,8.54804 19.09258,19.09258c0,10.54454 -8.54804,19.09258 -19.09258,19.09258z" data-paper-data="{&quot;origPos&quot;:null,&quot;index&quot;:null}" fill="#ffffff" stroke="#8f8f8f" stroke-width="5" stroke-linecap="butt"/><path d="M237.82214,151.48343c-1.19824,0 -2.16961,-0.97137 -2.16961,-2.16961c0,-1.19824 0.97137,-2.16961 2.16961,-2.16961c1.19824,0 2.16961,0.97137 2.16961,2.16961c0,1.19824 -0.97137,2.16961 -2.16961,2.16961z" data-paper-data="{&quot;origPos&quot;:null,&quot;index&quot;:null}" fill="#8f8f8f" stroke="none" stroke-width="0.5" stroke-linecap="butt"/><path d="M228.05889,151.66423c-1.19824,0 -2.16961,-0.97137 -2.16961,-2.16961c0,-1.19824 0.97137,-2.16961 2.16961,-2.16961c1.19824,0 2.16961,0.97137 2.16961,2.16961c0,1.19824 -0.97137,2.16961 -2.16961,2.16961z" data-paper-data="{&quot;origPos&quot;:null,&quot;index&quot;:null}" fill="#8f8f8f" stroke="none" stroke-width="0.5" stroke-linecap="butt"/><path d="M229.02769,163.4001c-0.52621,-2.10483 1.57862,-2.63104 1.57862,-2.63104l1.5739,0.22736c0.1808,0.06027 0.3616,0.12053 0.5424,0.1808c-0.39151,0.18926 0.86786,0.06946 1.30272,0.06946c0.904,0 1.80801,0 2.71201,0c0.90945,0 1.56876,0.01662 2.46494,-0.31335c0.5467,-0.20128 1.0649,-0.68285 1.61146,-0.84719c0.05346,-0.01608 -0.02946,0.2005 0.01505,0.1668c0.62132,-0.47047 1.15407,-1.42173 1.65465,-2.02242c0,0 1.38895,-1.66674 3.05569,-0.27779c1.66674,1.38895 0.27779,3.05569 0.27779,3.05569c-0.49966,0.59959 -0.99993,1.45589 -1.59977,1.95521c-3.39858,2.82908 -8.66194,3.33005 -12.86673,2.33014c-0.1808,-0.06027 -0.3616,-0.12053 -0.5424,-0.1808l0.57069,-0.09006c-0.59076,0.05928 -1.94376,0.00633 -2.35104,-1.62281z" data-paper-data="{&quot;origPos&quot;:null,&quot;index&quot;:null}" fill="#8f8f8f" stroke="none" stroke-width="0.5" stroke-linecap="butt"/><path d="M246.03954,160.33095l0.10848,5.64099l-4.33922,-1.95265l-0.75936,4.55618l-4.33922,-2.92898l-1.30177,4.01378l-4.99011,-5.96643" data-paper-data="{&quot;origPos&quot;:null,&quot;index&quot;:null}" fill="none" stroke="#8f8f8f" stroke-width="2.5" stroke-linecap="round"/><path d="M246.77051,168.42928c0.22543,-0.10515 1.26471,0.02069 1.82703,0.03313l0.82223,-0.42273c-0.00312,-0.022 -0.00582,-0.04407 -0.00811,-0.06619c-0.07296,-0.51593 0.01701,-1.24774 0.90527,-1.71813c0.03346,-0.01816 0.06744,-0.0352 0.10189,-0.05109c0.91168,-0.43219 1.55231,-0.06681 1.9225,0.30169c0.08256,0.07588 0.15649,0.15849 0.22152,0.24641l0.72987,0.93997l-0.16705,0.12972l0.12139,0.24328l-0.03862,0.01927c0.50041,1.17352 0.97846,2.40421 1.81135,3.35055c0.04352,0.04944 -0.08571,-0.21391 -0.02221,-0.19638c0.58143,0.16049 1.23555,0.6939 1.82593,0.91852c0.20964,0.07977 0.53114,0.04079 0.62733,0.24343c0.41539,0.87512 0.63948,1.83707 0.8126,2.79017c0.27732,1.52677 -2.54929,1.82442 -3.6469,1.95657c-4.25012,0.51168 -9.8319,-1.92118 -10.55631,-6.46313c-0.22216,-1.39289 1.67275,-1.7711 2.7103,-2.25504z" data-paper-data="{&quot;origPos&quot;:null,&quot;origRot&quot;:0,&quot;index&quot;:null}" fill="#ffffff" stroke="none" stroke-width="0.5" stroke-linecap="butt"/><path d="M244.35266,173.75187c-0.54661,-0.93703 1.7041,-1.31367 1.7041,-1.31367l0.4068,0.4068c0.51609,0.67288 1.68345,1.12782 2.46144,1.44635c0.61957,0.25368 0.99326,0.71535 1.50941,0.98033c1.65899,0.85167 4.3451,0.12583 6.0281,-0.33317c0.37394,0.10774 1.29051,-0.82359 1.31081,-0.92067c0.03729,-0.17835 -0.21783,-0.439 -0.0678,-0.5424c0.14818,-0.10212 0.57024,0.41466 0.47042,0.26492c-0.30118,-0.45176 -1.51371,-0.93881 -1.99073,-1.27954c-1.31226,-0.93734 -2.38867,-2.0966 -3.52656,-3.23449c0,0 -0.76707,-0.76708 0,-1.53415c0.76708,-0.76707 1.53415,0 1.53415,0c0.80389,0.80389 1.57328,1.7069 2.44081,2.44081c0.64971,0.54963 2.17028,1.05088 2.61876,1.72361c1.51465,2.27196 -0.07223,4.33048 -2.21899,5.17507c-2.0062,0.54715 -5.13622,1.32673 -7.12517,0.34484c-0.53173,-0.26251 -0.95681,-0.70554 -1.47258,-0.99818c-1.20982,-0.68642 -2.43545,-1.01948 -3.50621,-1.99918l-0.4068,-0.4068c0,0 0.37664,0.71656 -0.16996,-0.22047z" data-paper-data="{&quot;origPos&quot;:null,&quot;index&quot;:null}" fill="#8f8f8f" stroke="#000000" stroke-width="0" stroke-linecap="butt"/></g></g></svg>