<svg version="1.1" xmlns="http://www.w3.org/2000/svg" xmlns:xlink="http://www.w3.org/1999/xlink" width="73.69445" height="73.69445"><g transform="translate(-199.88569,-140.125)"><g data-paper-data="{&quot;isPaintingLayer&quot;:true}" fill="none" fill-rule="nonzero" stroke="none" stroke-width="none" stroke-linecap="butt" stroke-linejoin="miter" stroke-miterlimit="10" stroke-dasharray="" stroke-dashoffset="0" font-family="none" font-weight="none" font-size="none" text-anchor="none" style="mix-blend-mode: normal"><path d="M201.38569,176.97222c0,-19.52173 15.82549,-35.34722 35.34722,-35.34722c19.52173,0 35.34723,15.82549 35.34723,35.34722c0,19.52173 -15.8255,35.34723 -35.34723,35.34723c-19.52173,0 -35.34722,-15.8255 -35.34722,-35.34723z" data-paper-data="{&quot;origPos&quot;:null}" fill="#d2ff00" stroke="#8ca000" stroke-width="3"/><path d="M227.77947,197.26857c-0.35789,1.57469 -1.93257,1.21681 -1.93257,1.21681l-0.78201,0.6101c-0.79876,0 -1.62323,0.01698 -2.44563,-0.00481c-0.49187,2.0328 -0.7336,4.13366 -0.50711,6.3985c0,0 0.16069,1.60683 -1.44615,1.76752c-1.60683,0.16068 -1.76752,-1.44615 -1.76752,-1.44615c-0.25508,-2.55083 0.0077,-4.88459 0.54407,-7.13552c-1.02093,-0.29319 -1.97374,-0.78434 -2.79341,-1.60402c-0.41285,-0.41285 -0.25331,-1.13989 -0.37996,-1.70983c0,0 -0.35031,-1.5764 1.22608,-1.92671c1.5764,-0.35031 1.92671,1.22608 1.92671,1.22608c0.04079,0.18358 0.08159,0.36716 0.12238,0.55073c0.20318,-0.12806 0.52615,0.01475 0.86033,0.18292c0.5827,-1.71865 1.25878,-3.4271 1.91208,-5.18919c-1.39894,-0.29175 -2.71827,-0.8196 -3.81228,-1.75733c0,0 -1.22608,-1.05093 -0.17515,-2.27701c1.05093,-1.22608 2.27701,-0.17515 2.27701,-0.17515c0.44329,0.37996 0.78633,0.92672 1.32987,1.13989c0.09059,0.03553 -0.03595,-0.26769 0.05967,-0.28576c0.31268,-0.05908 0.63521,0.04779 0.94991,0.09499c0.16729,0.02509 0.33068,0.05032 0.49127,0.07517c0.62764,-1.74599 1.42039,-3.33309 2.34089,-4.81757c-0.01806,-0.00793 -0.03611,-0.01593 -0.05414,-0.02397c-1.16095,-0.51793 -2.18759,-2.08253 -3.00575,-3.00296c0,0 -1.07285,-1.20695 0.1341,-2.2798c1.20696,-1.07285 2.2798,0.1341 2.2798,0.1341c0.63257,0.71164 1.51254,2.05583 2.44808,2.57933c0.96456,-1.25498 2.01594,-2.45328 3.12609,-3.63715c-1.12669,-1.06502 -1.90818,-2.46378 -2.11669,-4.34037c0,0 -0.17833,-1.60496 1.42664,-1.7833c1.60497,-0.17833 1.7833,1.42664 1.7833,1.42664c0.06333,0.56994 -0.00269,1.16972 0.18998,1.70984c0.10689,0.29965 0.51677,0.57459 0.87331,0.76098c0.13594,-0.13704 0.27244,-0.27423 0.40945,-0.41167c1.32549,-1.32958 3.07884,-2.02469 4.44929,-3.24503c-0.58056,-0.83948 -1.09755,-1.73415 -1.56206,-2.66317c0,0 -0.72219,-1.44436 0.72218,-2.16654c1.44437,-0.72218 2.16654,0.72218 2.16654,0.72218c0.35184,0.70369 0.73517,1.38531 1.16069,2.02915c1.19897,-0.94544 2.46526,-1.8702 3.78039,-2.74903c-0.39322,-0.93816 -0.65251,-1.94224 -0.77296,-3.14682c0,0 -0.16068,-1.60683 1.44615,-1.76752c1.60683,-0.16068 1.76752,1.44615 1.76752,1.44615c0.06662,0.66614 0.17812,1.22311 0.33841,1.72698c2.44669,-1.43138 5.00795,-2.6618 7.57926,-3.54838c-0.21253,-0.53767 -0.41071,-1.09662 -0.60746,-1.68686c0,0 -0.51066,-1.53197 1.02132,-2.04263c1.53198,-0.51066 2.04264,1.02132 2.04264,1.02132c0.21572,0.64715 0.42721,1.24336 0.66173,1.81055c0.0498,-0.01137 0.09958,-0.02259 0.14935,-0.03365c2.63505,-0.52701 5.14778,-1.3132 7.75565,-1.89272l-0.18437,0.1348c0.4327,-0.23605 1.13302,-0.41034 1.84759,0.28108c1.16051,1.12292 0.03759,2.28343 0.03759,2.28343l-1.00019,0.45347c-2.32984,0.51775 -4.59402,1.20001 -6.92942,1.71813c0.02131,0.02785 0.04281,0.05573 0.06453,0.08364l1.03948,0.50736c0,0 0.86403,1.36426 -0.50022,2.22828c-1.36426,0.86403 -2.22828,-0.50023 -2.22828,-0.50023l-0.86034,-0.25257c-0.33206,-0.42693 -0.6275,-0.84946 -0.89458,-1.27396c-2.57184,0.83119 -5.01878,2.23207 -7.29423,3.71254c0.04279,0.05908 0.08627,0.11898 0.13048,0.17976l1.07999,1.16117c0,0 0.73855,1.43606 -0.69752,2.17461c-1.43606,0.73855 -2.17461,-0.69752 -2.17461,-0.69752l-0.81983,-0.73865c-0.06846,-0.09413 -0.13572,-0.18735 -0.20178,-0.27981c-1.11651,0.73888 -2.27852,1.46164 -3.39424,2.22961c0.60307,0.52547 1.2704,0.98342 2.01453,1.35548l0.98963,0.30249c0,0 1.14187,1.14187 0,2.28374c-1.14187,1.14187 -2.28374,0 -2.28374,0l-0.15026,0.3025c-1.1925,-0.59625 -2.24028,-1.36055 -3.16618,-2.24997c-1.19654,0.93648 -2.7124,1.57252 -3.81249,2.60245c0.79313,0.32137 1.61186,0.59974 2.54169,0.80636l1.88162,0.42696c0,0 1.33941,0.90205 0.43736,2.24147c-0.90205,1.33941 -2.24147,0.43737 -2.24147,0.43737l-0.77812,0.047c-1.50652,-0.33478 -3.0288,-0.756 -4.39288,-1.37367c-0.76902,0.80712 -1.51178,1.6223 -2.21578,2.4601c1.31004,0.00379 2.65009,-0.09805 3.72928,-0.09805l1.73847,-0.32741c0,0 1.5623,0.4086 1.1537,1.9709c-0.4086,1.5623 -1.9709,1.1537 -1.9709,1.1537l-0.92127,0.43251c-1.94979,0 -3.9679,0.05606 -5.91914,-0.22952c-0.86235,1.29752 -1.61677,2.6746 -2.2266,4.17397l1.03859,-0.11629c0,0 1.58633,0.30216 1.28417,1.88849c-0.30216,1.58633 -1.88849,1.28417 -1.88849,1.28417l-0.83774,0.2185c-0.25838,0 -0.5187,-0.00236 -0.7801,-0.00811c-0.68079,1.81683 -1.40991,3.57887 -2.03187,5.35452c0.49467,-0.00827 0.9902,-0.0269 1.48209,-0.0269l1.49778,-0.52979c0,0 1.5747,0.35789 1.21681,1.93257z" data-paper-data="{&quot;origPos&quot;:null}" fill="#9fab56" stroke="none" stroke-width="0.5"/><path d="M223.38394,155.10402c2.76645,-0.61477 6.10529,-1.52423 8.94823,0.18153c0.94872,0.56923 3.61617,3.16442 3.61617,4.13368c0,0.96304 -2.62763,3.27602 -3.69863,3.54378c-2.93535,0.73384 -10.54762,-0.89453 -11.29228,-4.06469c-0.21919,-0.27568 -0.35014,-0.62466 -0.35014,-1.00422c0,-0.74068 0.49866,-1.3649 1.17858,-1.55523c0.23954,-0.28482 0.53146,-0.57693 0.88036,-0.87599z" data-paper-data="{&quot;origPos&quot;:null}" fill="#ffffff" stroke="none" stroke-width="0.5"/><path d="M249.55962,154.34024c0.06928,0.31048 0.12347,0.6241 0.15696,0.93857c0.11774,-0.09205 0.23138,-0.19138 0.34086,-0.29968c-0.0177,-0.00103 -0.03603,-0.00493 -0.05508,-0.01205c-0.32479,-0.12146 -0.09973,-0.70515 -0.27842,-1.00232c-0.06937,-0.11537 0.04632,0.41193 -0.08715,0.39435c-0.02685,-0.00353 -0.05249,-0.00999 -0.07716,-0.01887zM250.3431,154.74785c0.28319,-0.20403 0.6203,-0.42357 0.40242,-0.40105c-0.17229,0.01781 -0.28667,0.22781 -0.40242,0.40105zM241.21562,154.11067c0.12303,-0.39084 0.29934,-0.76829 0.5167,-1.10753c1.12282,-1.75248 3.05776,-2.19911 4.98143,-2.19911c3.78454,0.00777 7.45758,1.2128 6.21416,5.92357c-0.19627,0.74357 -1.83967,1.55102 -2.48502,1.86882c-2.32663,1.14575 -4.39386,1.18136 -6.71211,0.83014l-0.00658,0.03288l-0.16884,-0.03377l-0.16148,0.35525l-1.65843,-0.75383c-0.07792,-0.03335 -0.15268,-0.07266 -0.22372,-0.11734c-0.32932,-0.18942 -0.6978,-0.5291 -0.75816,-1.11373c-0.75822,-0.13273 -1.33448,-0.79436 -1.33448,-1.59059c0,-0.5586 0.28362,-1.05094 0.71471,-1.3409l0.96912,-0.67092c0.03779,-0.02732 0.07536,-0.05496 0.1127,-0.08291z" data-paper-data="{&quot;origPos&quot;:null}" fill="#ffffff" stroke="none" stroke-width="0.5"/><path d="M226.66855,162.00424c-0.0938,-0.06253 -0.18262,-0.12624 -0.26661,-0.19097c-0.57968,-0.20404 -1.00787,-0.72952 -1.07059,-1.36247c-0.74873,-1.98803 1.47439,-4.00765 3.55298,-2.85944c2.08862,1.15375 0.84059,4.78281 -1.51994,4.25825z" data-paper-data="{&quot;origPos&quot;:null}" fill="#00ff75" stroke="none" stroke-width="0.5"/><path d="M244.04009,158.8616c-2.53764,-2.53764 1.97697,-5.69505 4.07899,-3.24269c2.65394,3.09626 -3.92725,5.61023 -4.05684,3.27751z" data-paper-data="{&quot;origPos&quot;:null}" fill="#00ff75" stroke="none" stroke-width="0.5"/><path d="M226.22054,160.37933c0,-0.44593 0.36149,-0.80742 0.80742,-0.80742c0.44593,0 0.80742,0.36149 0.80742,0.80742c0,0.44593 -0.36149,0.80742 -0.80742,0.80742c-0.44593,0 -0.80742,-0.36149 -0.80742,-0.80742z" data-paper-data="{&quot;origPos&quot;:null}" fill="#000000" stroke="none" stroke-width="0.5"/><path d="M244.79129,158.13648c0,-0.44593 0.36149,-0.80742 0.80742,-0.80742c0.44593,0 0.80742,0.36149 0.80742,0.80742c0,0.44593 -0.36149,0.80742 -0.80742,0.80742c-0.44593,0 -0.80742,-0.36149 -0.80742,-0.80742z" data-paper-data="{&quot;origPos&quot;:null}" fill="#000000" stroke="none" stroke-width="0.5"/></g></g></svg>