<svg version="1.1" xmlns="http://www.w3.org/2000/svg" xmlns:xlink="http://www.w3.org/1999/xlink" width="41.75854" height="37.22226" viewBox="0,0,41.75854,37.22226"><g transform="translate(-217.72223,-161.59398)"><g data-paper-data="{&quot;isPaintingLayer&quot;:true}" fill-rule="nonzero" stroke-linecap="butt" stroke-linejoin="miter" stroke-miterlimit="10" stroke-dasharray="" stroke-dashoffset="0" style="mix-blend-mode: normal"><path d="M224.84616,197.31624c-3.10601,0 -5.62393,-2.41078 -5.62393,-5.38462c0,-2.97385 2.51792,-5.38462 5.62393,-5.38462c3.10601,0 5.62393,2.41078 5.62393,5.38462c0,2.97385 -2.51792,5.38462 -5.62393,5.38462z" data-paper-data="{&quot;origPos&quot;:null}" fill="#ff0000" stroke="#330000" stroke-width="3"/><path d="M252.48718,197.55556c-3.1721,0 -5.74359,-2.30363 -5.74359,-5.1453c0,-2.84167 2.57149,-5.1453 5.74359,-5.1453c3.1721,0 5.74359,2.30363 5.74359,5.1453c0,2.84167 -2.57149,5.1453 -5.74359,5.1453z" data-paper-data="{&quot;origPos&quot;:null}" fill="#ff0000" stroke="#330000" stroke-width="2.5"/><path d="M239.44444,191.09402c-8.78935,0 -15.91453,-5.518 -15.91453,-12.32479c0,-6.8068 7.12518,-12.32479 15.91453,-12.32479c8.78935,0 15.91453,5.518 15.91453,12.32479c0,6.8068 -7.12518,12.32479 -15.91453,12.32479z" data-paper-data="{&quot;origPos&quot;:null}" fill="#ff0000" stroke="#330000" stroke-width="2.5"/><path d="M249.71768,185.2195c-0.38357,0.17895 -0.80223,0.33238 -1.22549,0.33238c-0.02774,0 -0.05301,-0.00937 -0.07553,-0.02536l-0.08935,0.14891c-0.07518,0.13039 -0.19812,0.22977 -0.34491,0.27425c-0.2127,0.8598 -0.28428,1.35597 -1.30921,1.71788c-0.28963,0.10227 -0.58896,-0.18652 -0.85987,-0.33128c-0.50457,-0.26961 -0.96805,-0.63522 -1.41781,-0.99731c-0.00662,0.02325 -0.01462,0.04593 -0.02389,0.06793l-0.14004,0.35511c-0.11566,0.29536 -0.1054,0.66193 -0.31952,0.89568c-0.31677,0.34582 -0.6923,0.65548 -1.11576,0.85702c-0.10004,0.04761 -0.17922,-0.13043 -0.26591,-0.19943c-0.33822,-0.2692 -0.53057,-0.51243 -0.78443,-0.8509c-0.05087,-0.06782 -0.13665,-0.12279 -0.1772,-0.19441c-0.20653,0.04773 -0.41618,0.08387 -0.62955,0.10558c-0.67794,0.67862 -0.80969,0.97266 -2.06214,0.88273c-0.36455,-0.02618 -0.05338,-0.34052 -0.13346,-0.46391c-0.06203,-0.09558 -0.16114,-0.16114 -0.24171,-0.24171c-0.16554,-0.16554 -0.33262,-0.39744 -0.50461,-0.60155c-0.08623,0.05338 -0.17546,0.11123 -0.26892,0.17849c-0.2764,0.19892 -0.47427,0.50014 -0.76567,0.67635c-0.62529,0.37811 -1.22909,0.25761 -1.67647,-0.13987c-0.05832,0.01337 -0.1163,0.01529 -0.17364,-0.00379l-0.56491,0.15064c-0.0531,0.01544 -0.10925,0.02372 -0.16733,0.02372c-0.33043,0 -0.59829,-0.26786 -0.59829,-0.59829c0,-0.12572 0.03878,-0.24238 0.10502,-0.33868l0.52728,-0.79091l0.05759,0.03839c0.01807,-0.01865 0.03613,-0.03692 0.0542,-0.05481c-0.01529,-0.06881 -0.03012,-0.13756 -0.04479,-0.20568c-0.76322,0.48655 -1.13649,0.71545 -2.29473,0.15511c-0.13229,-0.064 -0.11662,-0.22418 -0.0754,-0.3969c-0.31239,-0.01994 -0.55959,-0.27963 -0.55959,-0.59706c0,-0.18676 0.08557,-0.35353 0.21964,-0.46325c-0.34342,0.02066 -0.7287,-0.09494 -1.18009,-0.40414c-0.21937,-0.15027 0,-0.53181 0,-0.79772c0,-0.66539 -0.01727,-1.31866 0.04651,-1.97171l-0.03489,-0.00698l0.01347,-0.06735l-0.33236,-0.41545l0.59861,-0.47889c0.10219,-0.12152 0.26994,-0.22378 0.53896,-0.17587c0.0136,0.00227 0.02705,0.00499 0.04032,0.00816c0.33258,0.07547 0.42813,0.30675 0.45075,0.48286c0.00537,0.03224 0.00817,0.06535 0.00817,0.09911c0,0.0333 -0.00272,0.06596 -0.00795,0.09777c0.11135,0.03759 0.20802,0.10706 0.27916,0.19756l0.26245,0.32807c0.12374,0.00804 0.15796,0.17897 0.23133,0.28917c0.01058,0.01589 0.02198,0.03052 0.03457,0.04322c0.09189,0.09261 0.2246,0.10315 0.32504,0.17432h0.2714c0.14685,0 0.28135,0.05291 0.38546,0.1407c0.69166,0.04959 1.46169,0.13143 1.77851,0.81348c0.21987,0.52262 0.37076,1.02801 0.31994,1.56524c0.5504,-0.32331 0.84977,-0.18911 1.60257,0.02972c0.10895,0.03167 0.89869,0.24263 1.00199,0.35774c0.1353,0.15076 0.29629,0.3456 0.4175,0.54992h0.47692c0.8013,0 1.22348,-0.08749 1.77662,0.33348l0.39434,-0.15774l0.02057,0.05142c0.31678,-0.04318 0.6407,-0.0294 0.90628,-0.10751c0.25041,-0.07365 0.95339,-0.84649 1.22317,-0.51852h0.33238c0.091,0 0.17726,0.02032 0.25448,0.05666c0.32517,-0.18629 0.65108,0.07444 0.65108,0.07444c0.01647,0.01318 0.03296,0.02639 0.04945,0.03961c0.25757,-0.11818 0.60052,-0.2622 0.65627,-0.29795c0.58389,-0.37444 1.06729,-0.76392 1.54617,-0.76738c0.09717,-0.07838 0.20447,-0.13872 0.32445,-0.17086c0.09233,-0.02474 0.1898,-0.04984 0.28943,-0.07116c0.01795,-0.15172 0.00411,-0.30921 0.02186,-0.46156l0.40711,-0.83508c0,0 0.24404,-0.15456 0.50037,-0.07931l0.14683,-0.18353c0.10954,-0.13935 0.27964,-0.22886 0.47064,-0.22886c0.30471,0 0.55622,0.2278 0.59352,0.52239l0.13171,0.92197l-0.00238,0.00034c0.07472,0.6029 0.12713,1.46694 -0.2763,1.65515zM236.32379,185.49835c-0.11086,-0.02181 -0.30396,-0.17583 -0.33238,-0.06648c-0.02853,0.10978 0.30547,0.0068 0.31861,0.11946c0.00408,0.03502 -0.01042,0.0644 -0.0345,0.09095c0.01224,-0.00425 0.0243,-0.00493 0.03596,-0.00102c0.05966,0.01999 0.10155,0.05444 0.13093,0.09499c0.00472,-0.07218 0.02224,-0.14086 0.05031,-0.2038c-0.05654,-0.01173 -0.11289,-0.02307 -0.16893,-0.0341zM234.39548,183.44499c-0.05296,-0.11401 -0.03655,-0.31309 -0.15888,-0.34203c-0.08109,-0.01918 -0.04253,0.16506 -0.08247,0.24403l0.27215,0.16329c-0.00866,-0.02253 -0.01881,-0.04436 -0.0308,-0.06529zM242.80274,186.8553c-0.00413,0.00176 -0.00826,0.00351 -0.01239,0.00526c0.01747,0.02378 0.035,0.04763 0.05264,0.07152c0.00202,-0.0052 0.00408,-0.01043 0.0062,-0.0157c-0.01833,-0.0236 -0.03396,-0.0443 -0.04644,-0.06108z" data-paper-data="{&quot;origPos&quot;:null}" fill="#ffffff" stroke="none" stroke-width="0.5"/><path d="M248.80103,182.79332c-0.07537,0.59352 -0.21978,0.39182 -0.21978,0.39182l-0.33238,0.26591c-0.47467,0.31705 -0.67361,0.87927 -1.10334,1.26452c-0.28649,0.25684 -0.83498,0.41962 -1.19323,0.55674c-1.59741,0.61145 -3.31214,0.43709 -4.99076,0.43709c-1.3383,-0.04168 -2.57359,-0.5775 -3.84082,-0.98189c-2.36143,-0.75355 -4.90326,-1.59726 -6.18481,-3.83998c0,0 -0.29684,-0.51946 0.22263,-0.8163c0.51946,-0.29684 0.8163,0.22263 0.8163,0.22263c0.17727,0.31022 0.3046,0.65493 0.53181,0.93067c0.44489,0.53991 1.09471,0.77141 1.70701,1.05213c1.27434,0.58424 2.51543,1.05027 3.836,1.50725c0.89449,0.30954 1.9581,0.78165 2.91189,0.72891c1.4992,0 3.13652,0.22029 4.55339,-0.35429c0.31433,-0.12747 0.84694,-0.28146 1.09548,-0.51322c0.32163,-0.29991 0.51329,-0.80195 0.89097,-1.12864l0.33238,-0.26591c0,0 1.04264,-0.05097 0.96727,0.54255z" data-paper-data="{&quot;origPos&quot;:null}" fill="#000000" stroke="none" stroke-width="0.5"/><path d="M235.50727,176.5307c-0.06156,0.59511 -0.65668,0.53355 -0.65668,0.53355l-0.32168,-0.00844c-1.14155,-0.22831 -2.30847,-0.38724 -3.47241,-0.38724c0,0 -0.59829,0 -0.59829,-0.59829c0,-0.59829 0.59829,-0.59829 0.59829,-0.59829c1.24201,0 2.48913,0.16689 3.70708,0.41048l0.21014,-0.00844c0,0 0.59511,0.06156 0.53355,0.65668z" data-paper-data="{&quot;origPos&quot;:null}" fill="#000000" stroke="none" stroke-width="0.5"/><path d="M252.52363,179.7361c-0.07608,0.59343 -0.63449,0.5208 -0.63449,0.5208l-0.41602,-0.02861c-1.59307,-0.12361 -3.2467,-0.37959 -4.82647,-0.64288c0,0 -0.59015,-0.09836 -0.49179,-0.68851c0.09836,-0.59015 0.68851,-0.49179 0.68851,-0.49179c1.53123,0.25521 3.16825,0.54245 4.71186,0.62942l0.41602,0.02861c0,0 0.62846,0.07953 0.55238,0.67296z" data-paper-data="{&quot;origPos&quot;:null}" fill="#000000" stroke="none" stroke-width="0.5"/><path d="M247.1314,162.40685c2.12845,0.45636 7.74822,2.74336 7.18187,5.88428c-0.35874,1.98953 -2.22707,3.60022 -4,4c-1.7591,0.39666 -3.46081,-1.71613 -5.09761,-2.17124c-3.21963,-0.89521 -6.40196,-1.27193 -9.90538,-0.50995c-1.45781,0.31707 -6.12897,3.36514 -7.27962,2.78988c-1.70432,0 -3.15968,-1.0659 -3.73583,-2.56744c-0.25603,-0.40429 -0.36981,-0.84573 -0.26281,-1.32723c-0.0009,-0.035 -0.00136,-0.07012 -0.00136,-0.10534c0,-1.58908 0.92663,-2.96173 2.26902,-3.60709c5.04091,-4.28305 16.35205,-3.34637 20.83172,-2.38589z" fill="#410000" stroke="none" stroke-width="0.5"/></g></g></svg>