<svg version="1.1" xmlns="http://www.w3.org/2000/svg" xmlns:xlink="http://www.w3.org/1999/xlink" width="117.19712" height="101.25124" viewBox="0,0,117.19712,101.25124"><g transform="translate(-186.41106,-122.68626)"><g data-paper-data="{&quot;isPaintingLayer&quot;:true}" fill="none" fill-rule="nonzero" stroke="none" stroke-width="none" stroke-linecap="butt" stroke-linejoin="miter" stroke-miterlimit="10" stroke-dasharray="" stroke-dashoffset="0" font-family="none" font-weight="none" font-size="none" text-anchor="none" style="mix-blend-mode: normal"><path d="M201.78125,181.4375c0,-21.53911 17.46089,-39 39,-39c21.53911,0 39,17.46089 39,39c0,21.53911 -17.46089,39 -39,39c-21.53911,0 -39,-17.46089 -39,-39z" data-paper-data="{&quot;origPos&quot;:null}" fill="#ffe4be" stroke="#d8b568" stroke-width="7"/><path d="M261.69092,181.93529c1.26536,0.72306 3.00867,0.97138 3.98581,1.98072c0.14902,0.15393 0.28022,0.32556 0.38919,0.51928c0.16997,0.30217 0.30183,0.64426 0.40131,1.01669c0.13568,0.43737 0.21294,0.90045 0.22265,1.38011c0.20471,2.6616 -0.58395,6.06901 -0.99896,7.93653c-0.75971,3.41868 -0.86807,4.56742 -4.88089,5.50337c-0.5277,0.12308 -1.58973,0.66035 -2.03358,0.40672c-5.07229,-2.89845 -2.70464,-7.28726 -2.25219,-11.72147c0.10854,-1.0638 0.02725,-4.08513 0.85759,-4.55961z" data-paper-data="{&quot;origPos&quot;:null}" fill="#000000" stroke="none" stroke-width="0.5"/><path d="M230.72208,182.48911c0.19356,4.13397 1.14328,12.94618 -5.03115,12.94618c-5.66225,0 -5.59982,-8.30769 -5.16667,-12.19401c0.03497,-0.31375 0.11505,-0.8192 0.24954,-1.38407c0.05319,-0.2888 0.1312,-0.56892 0.23173,-0.83804c0.3847,-1.20541 1.01394,-2.39448 1.96653,-2.4474c0.78263,-0.50805 1.71629,-0.80314 2.71887,-0.80314c2.45552,0 4.49761,1.77007 4.91992,4.10386c0.06262,0.19379 0.10103,0.39872 0.11124,0.61663z" data-paper-data="{&quot;origPos&quot;:null}" fill="#000000" stroke="none" stroke-width="0.5"/><path d="M189.51702,165.99279c-0.74022,-3.12804 -0.03756,-5.70404 0.70357,-9.03912c1.4492,-5.55668 4.54782,-13.3714 8.62599,-17.44957c3.23225,-3.23225 7.33433,-4.54917 11.19412,-6.6935c3.3696,-1.86214 6.42449,-4.23583 10.13902,-5.39621c6.71808,-2.09867 14.75533,-1.01214 21.70009,-1.01214c5.20121,0 10.87756,-0.17083 16.01108,0.68453c5.37271,0.89522 10.56544,2.24698 16.01776,2.92852c9.58676,1.24337 20.71005,8.91621 25.24027,17.65561c0.51807,0.99942 0.53462,2.18611 1.06071,3.23831c3.44877,7.7059 -0.14388,18.28562 -5.29659,24.57868c-2.02519,2.47338 -5.51503,4.24722 -8.32144,5.65043c-2.30674,1.14845 -4.57178,2.48207 -6.88996,3.57314c-2.64801,1.2463 -5.59187,1.50678 -8.42528,1.95474c-5.48718,0.86752 -10.8599,1.61105 -16.42779,1.61105c-4.55361,0 -9.4117,0.24595 -13.91557,-0.44079c-7.27649,-1.10951 -14.83155,-4.37894 -21.89143,-6.45538c-9.91852,-2.92384 -22.66628,-4.60276 -29.03983,-13.52573c0,0 -0.61489,-0.86084 -0.48471,-1.86255z" fill="#ff0000" stroke="none" stroke-width="0.5"/><path d="M190.26406,172.87952c0.05081,-0.17148 0.11025,-0.32705 0.17683,-0.46812c-3.06896,-4.48164 -4.02983,-10.70344 -4.02983,-16.47791c0,-9.00559 5.8982,-15.83598 12.76565,-20.78433c2.79829,-2.01631 4.86166,-3.76977 8.21788,-4.88636c10.37507,-3.19233 19.59114,-8.4882 30.82772,-7.4419c9.94485,0.99449 19.81319,2.51494 29.74883,3.7569c5.44377,0.68047 12.22963,1.74553 17.13022,4.35862c3.80371,2.02822 7.47996,5.71955 10.57746,8.69806c1.91915,1.91915 2.63961,4.0965 3.69806,6.51496c2.66506,6.08944 5.5547,12.82501 3.57737,19.6254c-0.48898,1.68169 -1.36025,3.32444 -2.07117,4.92401c-1.28839,2.89887 -2.85855,6.84839 -5.2502,9.0315c-2.75439,2.51422 -5.80796,3.07539 -9.25825,3.84411c-2.77386,0.61802 -5.31592,2.00424 -8.17125,2.45576c-1.47974,0.23399 -2.88914,0.14351 -4.28301,0.71249c-10.26619,3.42206 -21.34542,3.09704 -32.04057,3.09704c-1.10999,0 -2.83086,0.28636 -3.90625,0c-3.02167,-0.80463 -5.51774,-3.06652 -8.51535,-3.96547c-5.63933,-1.69118 -11.56868,-2.78793 -17.40349,-4.23417c-6.38515,-1.59629 -13.17738,-2.46331 -19.33397,-4.77203l-0.76991,-0.88133c0,0 -2.397,-0.71022 -1.68677,-3.10722zM203.18673,174.61656c3.37198,0.73252 6.78786,1.34963 10.08067,2.17283c6.12938,1.54811 12.26194,2.78298 18.22151,4.51583c2.10956,0.61339 5.04677,3.14931 6.48465,3.53453c1.07311,0.28749 2.7982,0 3.90625,0c10.14098,0 20.72298,0.40502 30.45943,-2.84046c2.42632,-0.72817 4.90536,-0.72873 7.34375,-1.40625c2.06611,-0.57408 4.04165,-1.52265 6.13949,-1.988c1.77109,-0.39287 4.3835,-0.52288 5.74175,-1.78089c2.16095,-2.00148 3.57884,-5.52134 4.7498,-8.156c0.49013,-1.10278 1.33815,-2.37746 1.67883,-3.51349c1.81532,-6.05328 -0.92776,-11.8312 -3.29763,-17.2496c-0.77457,-1.77096 -1.16201,-3.34511 -2.55194,-4.73504c-2.21089,-2.38165 -5.91298,-6.01297 -8.79754,-7.55194c-4.56833,-2.4373 -10.92591,-3.44527 -15.99478,-4.07888c-9.89429,-1.23679 -19.73505,-2.75399 -29.62617,-3.7431c-10.36536,-1.13491 -19.27826,4.29745 -28.85978,7.2456c-2.82877,0.75285 -4.44412,2.52362 -6.78212,4.17614c-5.59618,3.95541 -10.67185,9.3624 -10.67185,16.71567c0,7.74214 1.288,16.58686 9.99759,17.67556c0,0 1.14035,0.14254 1.77808,1.00751z" fill="#6c0000" stroke="none" stroke-width="0.5"/><path d="M205.16106,161.08974c0,-5.17767 4.19733,-9.375 9.375,-9.375c5.17767,0 9.375,4.19733 9.375,9.375c0,5.17767 -4.19733,9.375 -9.375,9.375c-5.17767,0 -9.375,-4.19733 -9.375,-9.375z" data-paper-data="{&quot;origPos&quot;:null}" fill="#ffffff" stroke="none" stroke-width="0"/><path d="M256.09856,164.21474c0,-5.86803 4.75697,-10.625 10.625,-10.625c5.86803,0 10.625,4.75697 10.625,10.625c0,5.86803 -4.75697,10.625 -10.625,10.625c-5.86803,0 -10.625,-4.75697 -10.625,-10.625z" data-paper-data="{&quot;origPos&quot;:null}" fill="#ffffff" stroke="none" stroke-width="0"/><path d="M232.03606,142.18349c0,-5.09138 4.12737,-9.21875 9.21875,-9.21875c5.09138,0 9.21875,4.12737 9.21875,9.21875c0,5.09138 -4.12737,9.21875 -9.21875,9.21875c-5.09138,0 -9.21875,-4.12737 -9.21875,-9.21875z" fill="#ffffff" stroke="none" stroke-width="0"/></g></g></svg>